<svg width="24" height="24" viewBox="0 0 24 24" fill="none" xmlns="http://www.w3.org/2000/svg">
<path d="M0 12C0 5.3725 5.3725 0 12 0C18.6275 0 24 5.3725 24 12C24 18.6275 18.6275 24 12 24C5.3725 24 0 18.6275 0 12Z" fill="#00C250"/>
<path d="M12.2 5.59985C8.12005 5.59985 4.80005 8.27435 4.80005 11.5619C4.80005 14.5089 7.43255 16.9769 10.9885 17.4439C11.23 17.4954 11.5575 17.6014 11.6405 17.8059C11.7155 17.9919 11.6895 18.2829 11.6645 18.4704L11.559 19.0994C11.527 19.2849 11.4106 19.8254 12.2 19.4954C12.9901 19.1649 16.4616 17.0039 18.0141 15.2299C19.0866 14.0624 19.6001 12.8774 19.6001 11.5619C19.6001 8.27435 16.2806 5.59985 12.2 5.59985Z" fill="white"/>
<path d="M10.1432 10C10.1241 10.0003 10.1053 10.0043 10.0877 10.0119C10.0702 10.0194 10.0544 10.0304 10.0411 10.0441C10.0278 10.0578 10.0173 10.074 10.0103 10.0917C10.0033 10.1095 9.99987 10.1284 10.0002 10.1475V13.4525C9.99987 13.4716 10.0033 13.4906 10.0103 13.5083C10.0173 13.5261 10.0278 13.5422 10.0411 13.556C10.0544 13.5697 10.0702 13.5806 10.0877 13.5882C10.1053 13.5957 10.1241 13.5997 10.1432 13.6H10.6572C10.6763 13.5997 10.6951 13.5957 10.7127 13.5882C10.7302 13.5806 10.746 13.5697 10.7593 13.556C10.7726 13.5422 10.7831 13.5261 10.7901 13.5083C10.7971 13.4906 10.8005 13.4716 10.8002 13.4525V10.1475C10.8005 10.1284 10.7971 10.1095 10.7901 10.0917C10.7831 10.074 10.7726 10.0578 10.7593 10.0441C10.746 10.0304 10.7302 10.0194 10.7127 10.0119C10.6951 10.0043 10.6763 10.0003 10.6572 10H10.1432ZM14.2497 10H13.7087C13.6891 9.99981 13.6697 10.0035 13.6516 10.0108C13.6334 10.0181 13.6169 10.0289 13.6029 10.0426C13.5889 10.0563 13.5778 10.0726 13.5701 10.0906C13.5624 10.1086 13.5584 10.1279 13.5582 10.1475V12.111L12.0172 10.0655C12.0135 10.0603 12.0095 10.0553 12.0052 10.0505L12.0042 10.0495L11.9952 10.0405L11.9927 10.038L11.9847 10.0315L11.9807 10.0285L11.9727 10.0235L11.9682 10.0205L11.9602 10.016L11.9557 10.014C11.9528 10.0126 11.9498 10.0115 11.9467 10.0105L11.9422 10.0085C11.9393 10.0074 11.9363 10.0066 11.9332 10.006L11.9277 10.0045L11.9192 10.0025L11.9127 10.0015L11.9047 10.0005H11.8972L11.8917 10H11.3507C11.3311 9.99981 11.3117 10.0035 11.2936 10.0108C11.2754 10.0181 11.2589 10.0289 11.2449 10.0426C11.2309 10.0563 11.2198 10.0726 11.2121 10.0906C11.2044 10.1086 11.2004 10.1279 11.2002 10.1475V13.4525C11.2002 13.534 11.2677 13.6 11.3507 13.6H11.8917C11.9113 13.6002 11.9307 13.5965 11.9488 13.5892C11.967 13.5819 11.9835 13.5711 11.9975 13.5574C12.0115 13.5437 12.0226 13.5274 12.0303 13.5094C12.038 13.4914 12.042 13.4721 12.0422 13.4525V11.4895L13.5852 13.5375C13.5962 13.5525 13.6092 13.5645 13.6237 13.574L13.6252 13.5755L13.6342 13.581L13.6387 13.583L13.6457 13.5865L13.6532 13.5895L13.6577 13.591C13.6609 13.5924 13.6643 13.5936 13.6677 13.5945L13.6702 13.595C13.6822 13.598 13.6952 13.6 13.7087 13.6H14.2497C14.2693 13.6002 14.2887 13.5965 14.3068 13.5892C14.325 13.5819 14.3415 13.5711 14.3555 13.5574C14.3695 13.5437 14.3806 13.5274 14.3883 13.5094C14.396 13.4914 14.4 13.4721 14.4002 13.4525V10.1475C14.4 10.1279 14.396 10.1086 14.3883 10.0906C14.3806 10.0726 14.3695 10.0563 14.3555 10.0426C14.3415 10.0289 14.325 10.0181 14.3068 10.0108C14.2887 10.0035 14.2693 9.99981 14.2497 10ZM9.4542 12.7725H8.0207V10.1475C8.02076 10.1282 8.01702 10.1091 8.0097 10.0912C8.00237 10.0734 7.9916 10.0571 7.97799 10.0434C7.96439 10.0297 7.94822 10.0188 7.93041 10.0114C7.9126 10.0039 7.8935 10.0001 7.8742 10H7.3467C7.32739 10.0001 7.30829 10.0039 7.29048 10.0114C7.27267 10.0188 7.2565 10.0297 7.2429 10.0434C7.22929 10.0571 7.21852 10.0734 7.21119 10.0912C7.20387 10.1091 7.20013 10.1282 7.2002 10.1475V13.4525C7.2002 13.492 7.2157 13.528 7.2412 13.5545L7.2432 13.5565L7.2452 13.5585C7.2722 13.5852 7.3087 13.6002 7.3467 13.6H9.4542C9.4735 13.5999 9.49259 13.5959 9.51038 13.5884C9.52816 13.5809 9.54429 13.57 9.55785 13.5562C9.57141 13.5425 9.58212 13.5262 9.58939 13.5083C9.59666 13.4905 9.60033 13.4713 9.6002 13.452V12.92C9.60033 12.8811 9.58504 12.8437 9.55767 12.8161C9.53031 12.7884 9.4931 12.7728 9.4542 12.7725ZM17.0542 10.8275C17.0931 10.8272 17.1303 10.8116 17.1577 10.7839C17.185 10.7563 17.2003 10.7189 17.2002 10.68V10.148C17.2003 10.1287 17.1967 10.1096 17.1894 10.0917C17.1821 10.0738 17.1714 10.0575 17.1579 10.0438C17.1443 10.03 17.1282 10.0191 17.1104 10.0116C17.0926 10.0041 17.0735 10.0001 17.0542 10H14.9462C14.9083 10.0001 14.8719 10.015 14.8447 10.0415L14.8432 10.0435L14.8407 10.046C14.8147 10.0734 14.8002 10.1097 14.8002 10.1475V13.4525C14.8002 13.492 14.8157 13.528 14.8412 13.5545L14.8432 13.5565L14.8452 13.5585C14.8722 13.5849 14.9084 13.5998 14.9462 13.6H17.0542C17.0931 13.5997 17.1303 13.5841 17.1577 13.5564C17.185 13.5288 17.2003 13.4914 17.2002 13.4525V12.92C17.2003 12.8811 17.185 12.8437 17.1577 12.8161C17.1303 12.7884 17.0931 12.7728 17.0542 12.7725H15.6207V12.2135H17.0542C17.0931 12.2132 17.1303 12.1976 17.1577 12.1699C17.185 12.1423 17.2003 12.1049 17.2002 12.066V11.534C17.2003 11.5147 17.1967 11.4956 17.1894 11.4777C17.1821 11.4598 17.1714 11.4435 17.1579 11.4298C17.1443 11.416 17.1282 11.4051 17.1104 11.3976C17.0926 11.3901 17.0735 11.3861 17.0542 11.386H15.6207V10.8275H17.0542Z" fill="#00C250"/>
</svg>
