<svg width="24" height="24" viewBox="0 0 24 24" fill="none" xmlns="http://www.w3.org/2000/svg">
<path fill-rule="evenodd" clip-rule="evenodd" d="M12 24C18.6274 24 24 18.6274 24 12C24 5.37258 18.6274 0 12 0C5.37258 0 0 5.37258 0 12C0 18.6274 5.37258 24 12 24Z" fill="#E60023"/>
<path d="M10.4595 16.6893C10.2849 17.4019 10.1195 18.0489 9.96334 18.7052C9.72447 19.6616 9.45803 20.5993 8.95272 21.4619C8.62198 22.0151 8.29123 22.5589 7.91455 23.0746C7.85942 23.1496 7.8043 23.2809 7.69405 23.2434C7.5838 23.2153 7.5838 23.084 7.56542 22.9715C7.46436 22.1839 7.40924 21.3963 7.42761 20.6086C7.44599 20.0085 7.52867 19.4272 7.66649 18.8459C7.96048 17.5707 8.25448 16.2955 8.55766 15.0203C8.68629 14.4577 8.8241 13.8858 8.95272 13.3232C9.00785 13.0606 8.85166 12.8731 8.79654 12.6575C8.54848 11.6729 8.56685 10.7072 9.03541 9.80704C9.38453 9.13194 9.93578 8.67249 10.7351 8.70062C11.4517 8.72875 11.8743 9.16944 12.0213 9.87267C12.1591 10.5103 11.957 11.1104 11.81 11.7104C11.6079 12.5356 11.3047 13.3326 11.121 14.1671C10.928 15.0484 11.4517 15.9579 12.3245 16.1642C13.28 16.3893 14.2263 15.9298 14.8051 15.1891C15.2185 14.664 15.5309 14.092 15.733 13.4638C15.8984 12.9481 16.0362 12.423 16.1097 11.8792C16.1832 11.2979 16.2383 10.7165 16.2016 10.1258C16.1189 8.8694 15.6136 7.82862 14.603 7.08788C14.0885 6.71283 13.4913 6.48779 12.8574 6.38465C12.4164 6.30964 11.9662 6.27214 11.516 6.29089C10.8178 6.3284 10.1471 6.47842 9.49478 6.75971C8.91597 7.01287 8.40148 7.36917 7.96048 7.82862C7.5103 8.29744 7.16118 8.84127 6.9223 9.45073C6.64668 10.154 6.49968 10.8759 6.53643 11.6261C6.564 12.348 6.72018 13.0325 7.22549 13.5857C7.40924 13.7826 7.47355 14.017 7.37249 14.2983C7.29899 14.514 7.23468 14.739 7.18874 14.9734C7.09687 15.4235 6.82124 15.4141 6.53643 15.2735C5.976 14.9828 5.49826 14.5702 5.18588 13.9983C4.8827 13.4357 4.67139 12.845 4.59789 12.2074C4.55195 11.8323 4.47845 11.4573 4.50602 11.0822C4.57033 10.2477 4.7357 9.45073 5.08482 8.67249C5.45232 7.85675 5.95763 7.15352 6.59156 6.53468C7.35411 5.81269 8.2361 5.29699 9.21916 4.95944C9.80715 4.75316 10.4135 4.64065 11.0291 4.56563C11.369 4.51875 11.7089 4.5 12.0397 4.5C13.0136 4.5 13.9691 4.66877 14.8786 5.04383C15.6871 5.38138 16.3945 5.85958 17.0101 6.47842C17.9104 7.38793 18.4801 8.49434 18.6822 9.76015C18.7833 10.3696 18.7557 10.9885 18.7006 11.6073C18.6271 12.4512 18.4617 13.2669 18.1769 14.0639C17.9564 14.6734 17.6624 15.236 17.2949 15.7704C17.056 16.108 16.7896 16.4174 16.5048 16.6987C16.1097 17.0831 15.6412 17.3738 15.145 17.6082C14.4009 17.9457 13.6199 18.1051 12.8114 18.0395C12.1591 17.9832 11.5711 17.7676 11.0383 17.355C10.8178 17.1769 10.6708 16.9425 10.4595 16.6893Z" fill="white"/>
</svg>
