<svg width="24" height="24" viewBox="0 0 24 24" fill="none" xmlns="http://www.w3.org/2000/svg">
<path fill-rule="evenodd" clip-rule="evenodd" d="M12 24C18.6274 24 24 18.6274 24 12C24 5.37258 18.6274 0 12 0C5.37258 0 0 5.37258 0 12C0 18.6274 5.37258 24 12 24ZM7.85248 18.4756C8.0958 18.9027 11.0794 18.7232 11.9702 18.6466C12.0132 18.6476 12.0564 18.6481 12.0997 18.648C12.1431 18.648 12.1863 18.6475 12.2293 18.6466C13.1201 18.7232 16.1037 18.9026 16.347 18.4756C16.5152 18.1804 15.855 17.8398 15.1095 17.6396C15.8981 16.986 16.4 16.053 16.4935 14.9552C17.0789 15.8821 17.6282 16.5096 17.7267 16.2868C18.0504 15.5542 17.5911 13.7692 16.3489 10.9316C16.3791 10.5844 16.3789 10.2155 16.347 9.82645C16.1089 6.92024 14.4917 5.32101 12.2263 5.25218L12.0997 5.25C9.76815 5.2623 8.09502 6.86649 7.85248 9.82652C7.8206 10.2156 7.82037 10.5844 7.85058 10.9317C6.60838 13.7692 6.14912 15.5543 6.4728 16.2868C6.57125 16.5096 7.12054 15.8822 7.70601 14.9552C7.79944 16.0531 8.30136 16.9861 9.09003 17.6397C8.34448 17.8399 7.68429 18.1805 7.85248 18.4756Z" fill="#12B7F5"/>
<path d="M11.9703 18.6466C11.0795 18.7232 8.09593 18.9027 7.8526 18.4756C7.68442 18.1805 8.34461 17.8399 9.09015 17.6397C8.30149 16.9861 7.79956 16.0531 7.70613 14.9552C7.12067 15.8822 6.57137 16.5096 6.47292 16.2868C6.14924 15.5543 6.6085 13.7692 7.85071 10.9317C7.82049 10.5844 7.82072 10.2156 7.8526 9.82652C8.09514 6.86649 9.76827 5.2623 12.0999 5.25L12.2264 5.25218C14.4918 5.32101 16.109 6.92024 16.3471 9.82645C16.379 10.2155 16.3792 10.5844 16.349 10.9316C17.5912 13.7692 18.0505 15.5542 17.7268 16.2867C17.6284 16.5096 17.0791 15.8821 16.4936 14.9552C16.4002 16.053 15.8982 16.986 15.1096 17.6396C15.8551 17.8398 16.5153 18.1804 16.3471 18.4756C16.1038 18.9026 13.1202 18.7232 12.2294 18.6466C12.1864 18.6475 12.1432 18.648 12.0999 18.648C12.0565 18.6481 12.0133 18.6476 11.9703 18.6466Z" fill="white"/>
</svg>
