<svg width="24" height="24" viewBox="0 0 24 24" fill="none" xmlns="http://www.w3.org/2000/svg">
<circle cx="12" cy="12" r="12" fill="#FFB800"/>
<path d="M11.9998 4.57137C12.0918 4.57207 12.1837 4.61452 12.2297 4.70012L14.444 8.76089C14.4633 8.7964 14.4903 8.82715 14.523 8.8509C14.5556 8.87465 14.5932 8.89078 14.6329 8.89813L19.2236 9.74354C19.2682 9.75168 19.3097 9.7718 19.3437 9.80173C19.3777 9.83167 19.4029 9.8703 19.4167 9.91348C19.4304 9.95666 19.4321 10.0028 19.4217 10.0469C19.4112 10.0909 19.389 10.1314 19.3573 10.1638L15.9304 13.7463L16.0507 13.747C16.4709 13.7484 16.8211 13.7336 17.0489 13.7116C17.2307 13.6939 17.2661 13.8107 17.2661 13.8107C16.8566 13.9766 16.4383 14.1199 16.0132 14.2401L16.7079 18.4324C16.7148 18.4773 16.7094 18.5232 16.6923 18.5652C16.6751 18.6072 16.6468 18.6437 16.6104 18.6708C16.5741 18.6979 16.531 18.7147 16.4858 18.7191C16.4407 18.7236 16.3952 18.7157 16.3542 18.6963L12.1165 16.6801C12.0801 16.6626 12.0402 16.6536 11.9998 16.6536C11.9594 16.6536 11.9195 16.6626 11.8831 16.6801L7.64545 18.6963C7.60445 18.7157 7.55893 18.7236 7.51378 18.7191C7.46863 18.7147 7.42556 18.6979 7.38919 18.6708C7.35282 18.6437 7.32454 18.6072 7.30736 18.5652C7.29019 18.5232 7.28479 18.4773 7.29173 18.4324L8.05507 13.8326C8.06135 13.7912 8.05798 13.7489 8.04522 13.709C8.03246 13.6691 8.01065 13.6327 7.98149 13.6027L4.64233 10.1638C4.61064 10.1313 4.5884 10.0908 4.57797 10.0467C4.56755 10.0026 4.56934 9.95642 4.58316 9.91323C4.59698 9.87003 4.6223 9.83141 4.6564 9.80152C4.69051 9.77162 4.73211 9.75158 4.77674 9.74354L9.36668 8.89813C9.40628 8.89069 9.44371 8.8745 9.47627 8.85076C9.50882 8.82702 9.53567 8.79632 9.55486 8.76089L11.7692 4.70012C11.7926 4.65999 11.8263 4.62687 11.8669 4.60422C11.9075 4.58158 11.9534 4.57023 11.9998 4.57137ZM12.4745 9.61478C10.6995 9.60063 8.95636 10.1001 8.1916 10.5055C8.00979 10.6017 8.11874 10.8549 8.3048 10.8266C11.0186 10.4107 12.7922 11.0368 12.8671 11.1011C12.9209 11.1471 12.9181 11.2143 12.8587 11.261C12.8091 11.3006 9.56547 13.6225 8.59061 14.4417C8.43709 14.5705 8.47741 14.8407 8.72856 14.8867C8.96202 14.9291 9.37941 14.9758 9.79964 14.99C12.3549 15.0777 14.5608 14.6596 16.0132 14.2401L15.9304 13.7463H15.866C14.6726 13.7307 13.0108 13.5928 11.8951 13.1655C11.8102 13.1329 11.7819 13.041 11.8597 12.9815C12.5212 12.4729 14.4158 11.1577 15.0829 10.5925C15.213 10.4821 15.2477 10.3378 15.09 10.2211C14.7857 9.9968 13.7147 9.62468 12.4745 9.61478Z" fill="white"/>
</svg>
