<svg width="24" height="24" viewBox="0 0 24 24" fill="none" xmlns="http://www.w3.org/2000/svg">
<circle cx="12" cy="12" r="12" fill="#F50D31"/>
<path d="M16.0438 12.2146C15.4112 12.092 15.7184 11.752 15.7184 11.752C15.7184 11.752 16.3376 10.731 15.5963 9.98972C14.6772 9.0706 12.4442 10.1062 12.4442 10.1062C11.5915 10.3716 11.8176 9.98584 11.9384 9.32994C11.9384 8.55713 11.6735 7.24921 9.40163 8.02207C7.13236 8.79878 5.18366 11.5194 5.18366 11.5194C3.82874 13.3283 4.00783 14.7255 4.00783 14.7255C4.34655 17.8107 7.62468 18.6578 10.1744 18.8589C12.8576 19.0686 16.4779 17.9337 17.5756 15.6019C18.6734 13.2657 16.6786 12.3414 16.0438 12.2146ZM10.373 17.9885C7.71014 18.1132 5.55735 16.7777 5.55735 15.0008C5.55735 13.2213 7.71014 11.7943 10.373 11.6717C13.0384 11.5487 15.195 12.6469 15.195 14.4221C15.195 16.199 13.0384 17.8673 10.373 17.9885Z" fill="white"/>
<path d="M9.84176 12.8431C7.16343 13.1568 7.47281 15.6655 7.47281 15.6655C7.47281 15.6655 7.44563 16.4604 8.19129 16.8647C9.75848 17.7135 11.3719 17.1996 12.1874 16.1467C13.0034 15.0938 12.5244 12.5319 9.84176 12.8431ZM9.16648 16.3646C8.66638 16.4232 8.26331 16.135 8.26331 15.7164C8.26331 15.3001 8.62149 14.8638 9.12159 14.8116C9.69592 14.7568 10.07 15.0877 10.07 15.5059C10.07 15.9227 9.66441 16.3076 9.16648 16.3646ZM10.7453 15.02C10.5758 15.1464 10.3674 15.1283 10.278 14.9768C10.1844 14.8284 10.2193 14.5911 10.3911 14.4664C10.5896 14.3192 10.7958 14.3615 10.8852 14.5095C10.9749 14.661 10.9106 14.8888 10.7453 15.02ZM19.9205 10.8085C19.933 10.7589 19.9412 10.708 19.9416 10.6545C19.9774 10.4175 19.9999 10.1772 19.9999 9.93689C19.9999 7.29345 17.8497 5.14282 15.2063 5.14282C14.8399 5.14282 14.5435 5.4397 14.5435 5.80562C14.5435 6.17158 14.8399 6.46842 15.2063 6.46842C17.1187 6.46842 18.6743 8.02443 18.6743 9.9369C18.6743 10.1501 18.6548 10.3637 18.6165 10.5712L18.6242 10.5725C18.6216 10.5975 18.6169 10.6221 18.6169 10.648C18.6169 11.014 18.9134 11.3108 19.2797 11.3108C19.5887 11.3108 19.8458 11.0985 19.9192 10.8129H19.92C19.9199 10.8114 19.9201 10.8099 19.9205 10.8085Z" fill="white"/>
<path d="M17.8452 10.186C17.853 10.1036 17.8612 10.0216 17.8612 9.93704C17.8612 8.47293 16.6702 7.28198 15.2061 7.28198C14.9011 7.28198 14.6538 7.5292 14.6538 7.83431C14.6538 8.13936 14.9011 8.38663 15.2061 8.38663C16.061 8.38663 16.7565 9.0822 16.7565 9.93702C16.7565 10.0048 16.7522 10.0712 16.744 10.1363L16.757 10.1381C16.7543 10.1601 16.744 10.1795 16.744 10.2024C16.744 10.5075 16.9913 10.7547 17.2964 10.7547C17.5755 10.7547 17.7965 10.5441 17.834 10.2753L17.8396 10.2761C17.8413 10.2624 17.8405 10.2477 17.8422 10.2339C17.8426 10.2231 17.8487 10.2136 17.8487 10.2023C17.8487 10.1964 17.8452 10.1916 17.8452 10.186Z" fill="white"/>
</svg>
