<svg width="24" height="24" viewBox="0 0 24 24" fill="none" xmlns="http://www.w3.org/2000/svg">
<path fill-rule="evenodd" clip-rule="evenodd" d="M12 24C18.6274 24 24 18.6274 24 12C24 5.37258 18.6274 0 12 0C5.37258 0 0 5.37258 0 12C0 18.6274 5.37258 24 12 24ZM18.75 13.5088C18.75 11.601 16.8551 10.0544 14.5176 10.0544C12.1801 10.0544 10.2851 11.601 10.2851 13.5088C10.2851 15.4167 12.1801 16.9633 14.5176 16.9633C15.0922 16.9633 15.6401 16.8698 16.1396 16.7005L17.4365 17.3906L17.1994 16.1814C18.146 15.5479 18.75 14.5859 18.75 13.5088ZM15.2083 9.54775C14.6132 7.7449 12.6508 6.42188 10.3216 6.42188C7.52064 6.42188 5.25 8.33521 5.25 10.6954C5.25 12.0406 5.98761 13.2407 7.14062 14.024L6.85541 15.4675L8.40073 14.6518C8.91284 14.8285 9.46688 14.9367 10.0468 14.963C9.83764 14.5136 9.72264 14.0236 9.72264 13.5088C9.72264 11.2744 11.8893 9.50595 14.5176 9.50595C14.7517 9.50595 14.9822 9.51998 15.2083 9.54775ZM12.4014 12.298C12.4014 11.9636 12.6791 11.6926 13.0216 11.6926C13.3642 11.6926 13.6419 11.9636 13.6419 12.298C13.6419 12.6324 13.3642 12.9034 13.0216 12.9034C12.6791 12.9034 12.4014 12.6324 12.4014 12.298ZM15.3933 12.298C15.3933 11.9636 15.671 11.6926 16.0135 11.6926C16.3561 11.6926 16.6338 11.9636 16.6338 12.298C16.6338 12.6324 16.3561 12.9034 16.0135 12.9034C15.671 12.9034 15.3933 12.6324 15.3933 12.298ZM7.80406 9.16406C7.80406 8.79036 8.11443 8.48742 8.4973 8.48742C8.88017 8.48742 9.19054 8.79036 9.19054 9.16406C9.19054 9.53776 8.88017 9.84071 8.4973 9.84071C8.11443 9.84071 7.80406 9.53776 7.80406 9.16406ZM11.4527 9.16406C11.4527 8.79036 11.7631 8.48742 12.146 8.48742C12.5288 8.48742 12.8392 8.79036 12.8392 9.16406C12.8392 9.53776 12.5288 9.84071 12.146 9.84071C11.7631 9.84071 11.4527 9.53776 11.4527 9.16406Z" fill="#00C250"/>
<path fill-rule="evenodd" clip-rule="evenodd" d="M14.5176 10.0544C16.8551 10.0544 18.75 11.601 18.75 13.5088C18.75 14.5859 18.146 15.5479 17.1994 16.1814L17.4365 17.3906L16.1396 16.7005C15.6401 16.8698 15.0922 16.9633 14.5176 16.9633C12.1801 16.9633 10.2851 15.4167 10.2851 13.5088C10.2851 11.601 12.1801 10.0544 14.5176 10.0544ZM10.3216 6.42188C12.6508 6.42188 14.6132 7.7449 15.2083 9.54775C14.9822 9.51998 14.7517 9.50595 14.5176 9.50595C11.8893 9.50595 9.72264 11.2744 9.72264 13.5088C9.72264 14.0236 9.83763 14.5136 10.0468 14.963C9.46688 14.9367 8.91284 14.8285 8.40073 14.6518L6.85541 15.4675L7.14062 14.024C5.98761 13.2407 5.25 12.0406 5.25 10.6954C5.25 8.33521 7.52064 6.42188 10.3216 6.42188ZM13.0216 11.6926C12.6791 11.6926 12.4014 11.9636 12.4014 12.298C12.4014 12.6324 12.6791 12.9034 13.0216 12.9034C13.3642 12.9034 13.6419 12.6324 13.6419 12.298C13.6419 11.9636 13.3642 11.6926 13.0216 11.6926ZM16.0135 11.6926C15.671 11.6926 15.3933 11.9636 15.3933 12.298C15.3933 12.6324 15.671 12.9034 16.0135 12.9034C16.3561 12.9034 16.6338 12.6324 16.6338 12.298C16.6338 11.9636 16.3561 11.6926 16.0135 11.6926ZM8.4973 8.48742C8.11443 8.48742 7.80406 8.79036 7.80406 9.16406C7.80406 9.53776 8.11443 9.84071 8.4973 9.84071C8.88017 9.84071 9.19054 9.53776 9.19054 9.16406C9.19054 8.79036 8.88017 8.48742 8.4973 8.48742ZM12.146 8.48742C11.7631 8.48742 11.4527 8.79036 11.4527 9.16406C11.4527 9.53776 11.7631 9.84071 12.146 9.84071C12.5288 9.84071 12.8392 9.53776 12.8392 9.16406C12.8392 8.79036 12.5288 8.48742 12.146 8.48742Z" fill="white"/>
</svg>
