<svg id="图层_1" data-name="图层 1" xmlns="http://www.w3.org/2000/svg" viewBox="0 0 150 150"><title>chart</title><path d="M144,1a5,5,0,0,1,5,5V144a5,5,0,0,1-5,5H6a5,5,0,0,1-5-5V6A5,5,0,0,1,6,1H144m0-1H6A6,6,0,0,0,0,6V144a6,6,0,0,0,6,6H144a6,6,0,0,0,6-6V6a6,6,0,0,0-6-6Z" fill="#e0e0e0"/><rect x="35" y="33" width="82" height="78" fill="#ff7d80"/><polygon points="35 75 48.79 51.01 62.58 51.01 75.64 62.01 90.15 57.01 103.94 45.01 117 53.01 117 111 35 111 35 75" fill="#ffcc5e"/><polygon points="35 111 35 92.42 56.04 76 75.64 87 90.88 68 103.21 82 117 72 117 111 35 111" fill="#738bec"/><rect x="16" y="21" width="1" height="90" fill="#e0e0e0"/><rect x="16" y="110" width="120" height="1" fill="#e0e0e0"/></svg>