<svg id="图层_1" data-name="图层 1" xmlns="http://www.w3.org/2000/svg" viewBox="0 0 150 150"><title>chart</title><path d="M144,1a5,5,0,0,1,5,5V144a5,5,0,0,1-5,5H6a5,5,0,0,1-5-5V6A5,5,0,0,1,6,1H144m0-1H6A6,6,0,0,0,0,6V144a6,6,0,0,0,6,6H144a6,6,0,0,0,6-6V6a6,6,0,0,0-6-6Z" fill="#e0e0e0"/><polygon points="16 111 16 72 31 72 31 62 47 62 47 53 63 53 63 69 79 69 79 62 95 62 95 56 111 56 111 46 127 46 127 111 16 111" fill="#ffcc5e"/><polygon points="16 111 16 91 31 91 31 75 47 75 47 84 63 84 63 98 79 98 79 87 95 87 95 70 111 70 111 79 127 79 127 111 16 111" fill="#738bec"/><rect x="16" y="21" width="1" height="90" fill="#e0e0e0"/><rect x="16" y="110" width="120" height="1" fill="#e0e0e0"/></svg>