<svg id="图层_1" data-name="图层 1" xmlns="http://www.w3.org/2000/svg" viewBox="0 0 150 150"><title>chart</title><path d="M144,1a5,5,0,0,1,5,5V144a5,5,0,0,1-5,5H6a5,5,0,0,1-5-5V6A5,5,0,0,1,6,1H144m0-1H6A6,6,0,0,0,0,6V144a6,6,0,0,0,6,6H144a6,6,0,0,0,6-6V6a6,6,0,0,0-6-6Z" fill="#e0e0e0"/><polygon points="16 63 47 40 72 55 92 44 129 60.88 129 111 16 111 16 63" fill="#ff7d80"/><polygon points="16 85 35 63 54 63 72 73 92 63 111 43 129 59 129 111 16 111 16 85" fill="#ffcc5e"/><polygon points="16 111 16 97.42 45 81 72 92 93 73 110 87 129 77 129 111 16 111" fill="#738bec"/><rect x="16" y="21" width="1" height="90" fill="#e0e0e0"/><rect x="16" y="110" width="120" height="1" fill="#e0e0e0"/></svg>