<svg id="图层_1" data-name="图层 1" xmlns="http://www.w3.org/2000/svg" viewBox="0 0 150 150"><title>chart</title><path d="M144,1a5,5,0,0,1,5,5V144a5,5,0,0,1-5,5H6a5,5,0,0,1-5-5V6A5,5,0,0,1,6,1H144m0-1H6A6,6,0,0,0,0,6V144a6,6,0,0,0,6,6H144a6,6,0,0,0,6-6V6a6,6,0,0,0-6-6Z" fill="#e0e0e0"/><rect x="57.5" y="-10.5" width="10" height="95" transform="translate(99.5 -25.5) rotate(90)" fill="#fbb53d"/><rect x="53.5" y="19.5" width="10" height="35" transform="translate(95.5 -21.5) rotate(90)" fill="#fbc45f"/><rect x="88" y="20" width="10" height="34" transform="translate(130 -56) rotate(90)" fill="#fcd281"/><rect x="57.5" y="8.5" width="10" height="95" transform="translate(118.5 -6.5) rotate(90)" fill="#7abd6d"/><rect x="65.5" y="37.5" width="10" height="37" transform="translate(126.5 -14.5) rotate(90)" fill="#89cf7a"/><rect x="94.5" y="45.5" width="10" height="21" transform="translate(155.5 -43.5) rotate(90)" fill="#98e688"/><rect x="57.5" y="28.5" width="10" height="95" transform="translate(138.5 13.5) rotate(90)" fill="#6077d4"/><rect x="54.5" y="58.5" width="10" height="35" transform="translate(135.5 16.5) rotate(90)" fill="#6c84e6"/><rect x="88.5" y="59.5" width="10" height="33" transform="translate(169.5 -17.5) rotate(90)" fill="#839af3"/><rect x="57.5" y="47.5" width="10" height="95" transform="translate(157.5 32.5) rotate(90)" fill="#f7646b"/><rect x="62" y="75" width="10" height="40" transform="translate(162 28) rotate(90)" fill="#f77e84"/><rect x="93.5" y="83.5" width="10" height="23" transform="translate(193.5 -3.5) rotate(90)" fill="#f99da1"/><rect x="74.5" y="51.5" width="1" height="120" transform="translate(186.5 36.5) rotate(90)" fill="#e0e0e0"/><rect x="-29.5" y="66.5" width="90" height="1" transform="translate(82.5 51.5) rotate(90)" fill="#e0e0e0"/></svg>