<svg id="图层_1" data-name="图层 1" xmlns="http://www.w3.org/2000/svg" viewBox="0 0 150 150"><title>chart</title><path d="M144,1a5,5,0,0,1,5,5V144a5,5,0,0,1-5,5H6a5,5,0,0,1-5-5V6A5,5,0,0,1,6,1H144m0-1H6A6,6,0,0,0,0,6V144a6,6,0,0,0,6,6H144a6,6,0,0,0,6-6V6a6,6,0,0,0-6-6Z" fill="#e0e0e0"/><rect x="36.5" y="8.5" width="6" height="51" transform="translate(73.5 -5.5) rotate(90)" fill="#ffcc5e"/><rect x="26.5" y="24.5" width="6" height="31" transform="translate(69.5 10.5) rotate(90)" fill="#8cd57f"/><rect x="57" width="6" height="92" transform="translate(106 -14) rotate(90)" fill="#738bec"/><rect x="47.5" y="15.5" width="6" height="73" transform="translate(102.5 1.5) rotate(90)" fill="#ff7d80"/><rect x="36.5" y="52.5" width="6" height="51" transform="translate(117.5 38.5) rotate(90)" fill="#ffcc5e"/><rect x="26.5" y="68.5" width="6" height="31" transform="translate(113.5 54.5) rotate(90)" fill="#8cd57f"/><rect x="57" y="44" width="6" height="92" transform="translate(150 30) rotate(90)" fill="#738bec"/><rect x="47.5" y="59.5" width="6" height="73" transform="translate(146.5 45.5) rotate(90)" fill="#ff7d80"/><rect x="73.5" y="51.5" width="1" height="120" transform="translate(185.5 37.5) rotate(90)" fill="#e0e0e0"/><rect x="-30.5" y="66.5" width="90" height="1" transform="translate(81.5 52.5) rotate(90)" fill="#e0e0e0"/></svg>