<svg id="图层_1" data-name="图层 1" xmlns="http://www.w3.org/2000/svg" viewBox="0 0 150 150"><title>chart</title><path d="M144,1a5,5,0,0,1,5,5V144a5,5,0,0,1-5,5H6a5,5,0,0,1-5-5V6A5,5,0,0,1,6,1H144m0-1H6A6,6,0,0,0,0,6V144a6,6,0,0,0,6,6H144a6,6,0,0,0,6-6V6a6,6,0,0,0-6-6Z" fill="#e0e0e0"/><rect x="48.5" y="-1.5" width="10" height="77" transform="translate(90.5 -16.5) rotate(90)" fill="#ffbe30"/><rect x="50" y="21" width="10" height="32" transform="translate(92 -18) rotate(90)" fill="#ffcc5e"/><rect x="76.5" y="26.5" width="10" height="21" transform="translate(118.5 -44.5) rotate(90)" fill="#ffd884"/><rect x="42.5" y="23.5" width="10" height="65" transform="translate(103.5 8.5) rotate(90)" fill="#7ec472"/><rect x="39.5" y="42.5" width="10" height="27" transform="translate(100.5 11.5) rotate(90)" fill="#8cd57f"/><rect x="64" y="45" width="10" height="22" transform="translate(125 -13) rotate(90)" fill="#9aea8c"/><rect x="57.5" y="28.5" width="10" height="95" transform="translate(138.5 13.5) rotate(90)" fill="#677edc"/><rect x="54.5" y="58.5" width="10" height="35" transform="translate(135.5 16.5) rotate(90)" fill="#738bec"/><rect x="88.5" y="59.5" width="10" height="33" transform="translate(169.5 -17.5) rotate(90)" fill="#8aa0f8"/><rect x="49" y="56" width="10" height="78" transform="translate(149 41) rotate(90)" fill="#fe6f72"/><rect x="46" y="81" width="10" height="28" transform="translate(146 44) rotate(90)" fill="#fe898c"/><rect x="74" y="81" width="10" height="28" transform="translate(174 16) rotate(90)" fill="#fea6a8"/><rect x="74.5" y="51.5" width="1" height="120" transform="translate(186.5 36.5) rotate(90)" fill="#e0e0e0"/><rect x="-29.5" y="66.5" width="90" height="1" transform="translate(82.5 51.5) rotate(90)" fill="#e0e0e0"/></svg>