<svg id="图层_1" data-name="图层 1" xmlns="http://www.w3.org/2000/svg" viewBox="0 0 150 150"><title>chart</title><path d="M144,1a5,5,0,0,1,5,5V144a5,5,0,0,1-5,5H6a5,5,0,0,1-5-5V6A5,5,0,0,1,6,1H144m0-1H6A6,6,0,0,0,0,6V144a6,6,0,0,0,6,6H144a6,6,0,0,0,6-6V6a6,6,0,0,0-6-6Z" fill="#e0e0e0"/><rect x="39" y="22" width="10" height="90" fill="#fbb53d"/><rect x="39" y="51" width="10" height="31" fill="#fbc45f"/><rect x="39" y="22" width="10" height="29" fill="#fcd281"/><rect x="60" y="22" width="10" height="90" fill="#7abd6d"/><rect x="60" y="43" width="10" height="33" fill="#89cf7a"/><rect x="60" y="22" width="10" height="21" fill="#98e688"/><rect x="82" y="22" width="10" height="90" fill="#6077d4"/><rect x="82" y="50" width="10" height="35" fill="#6c84e6"/><rect x="82" y="22" width="10" height="28" fill="#839af3"/><rect x="103" y="22" width="10" height="90" fill="#f7646b"/><rect x="103" y="45" width="10" height="35" fill="#f77e84"/><rect x="103" y="22" width="10" height="23" fill="#f99da1"/><rect x="14" y="22" width="1" height="90" fill="#e0e0e0"/><rect x="14" y="111" width="120" height="1" fill="#e0e0e0"/></svg>