<svg id="图层_1" data-name="图层 1" xmlns="http://www.w3.org/2000/svg" viewBox="0 0 150 150"><title>chart</title><path d="M144,1a5,5,0,0,1,5,5V144a5,5,0,0,1-5,5H6a5,5,0,0,1-5-5V6A5,5,0,0,1,6,1H144m0-1H6A6,6,0,0,0,0,6V144a6,6,0,0,0,6,6H144a6,6,0,0,0,6-6V6a6,6,0,0,0-6-6Z" fill="#e0e0e0"/><rect x="39" y="40" width="10" height="72" fill="#ffbe30"/><rect x="39" y="61" width="10" height="32" fill="#ffcc5e"/><rect x="39" y="40" width="10" height="21" fill="#ffd884"/><rect x="60" y="52" width="10" height="60" fill="#7ec472"/><rect x="60" y="69" width="10" height="27" fill="#8cd57f"/><rect x="60" y="52" width="10" height="17" fill="#9aea8c"/><rect x="82" y="22" width="10" height="90" fill="#677edc"/><rect x="82" y="50" width="10" height="35" fill="#738bec"/><rect x="82" y="22" width="10" height="28" fill="#8aa0f8"/><rect x="103" y="39" width="10" height="73" fill="#fe6f72"/><rect x="103" y="62" width="10" height="28" fill="#fe898c"/><rect x="103" y="39" width="10" height="23" fill="#fea6a8"/><rect x="14" y="22" width="1" height="90" fill="#e0e0e0"/><rect x="14" y="111" width="120" height="1" fill="#e0e0e0"/></svg>