<svg xmlns="http://www.w3.org/2000/svg" viewBox="0 0 150 150"><title>chart26</title><g id="图层_1" data-name="图层 1"><path d="M144,1a5,5,0,0,1,5,5V144a5,5,0,0,1-5,5H6a5,5,0,0,1-5-5V6A5,5,0,0,1,6,1H144m0-1H6A6,6,0,0,0,0,6V144a6,6,0,0,0,6,6H144a6,6,0,0,0,6-6V6a6,6,0,0,0-6-6Z" fill="#e0e0e0"/></g><g id="图层_2" data-name="图层 2"><polygon points="105.19 64.08 44.81 64.08 57.75 83.79 92.25 83.79 105.19 64.08" fill="#ffcc5e"/><polygon points="108.06 59.7 121 39.98 29 39.98 41.94 59.7 108.06 59.7" fill="#738bec"/><polygon points="60.63 88.17 75 110.08 89.38 88.17 60.63 88.17" fill="#ff7d80"/></g></svg>