<svg id="图层_1" data-name="图层 1" xmlns="http://www.w3.org/2000/svg" xmlns:xlink="http://www.w3.org/1999/xlink" viewBox="0 0 150 150"><defs><radialGradient id="未命名的渐变_3" cx="31.68" cy="-37.69" r="88.77" gradientTransform="matrix(1, 0, 0, -1, 11.93, -6.07)" gradientUnits="userSpaceOnUse"><stop offset="0" stop-color="#fffbf3"/><stop offset="1" stop-color="#fffaf0"/></radialGradient><radialGradient id="未命名的渐变_4" cx="-21.5" cy="15.49" r="14.63" gradientTransform="matrix(1, 0, 0, -1, 91.33, 73.33)" gradientUnits="userSpaceOnUse"><stop offset="0" stop-color="#fbfbfb"/><stop offset="1" stop-color="#e1e1e1"/></radialGradient></defs><title>chart</title><path d="M144,1a5,5,0,0,1,5,5V144a5,5,0,0,1-5,5H6a5,5,0,0,1-5-5V6A5,5,0,0,1,6,1H144m0-1H6A6,6,0,0,0,0,6V144a6,6,0,0,0,6,6H144a6,6,0,0,0,6-6V6a6,6,0,0,0-6-6Z" fill="#e0e0e0"/><path id="shape1" d="M40,63A35,35,0,1,1,75,98,35,35,0,0,1,40,63Z" fill="#c5cbd1" stroke="#9ca6b7" stroke-width="0.5"/><path id="shape2" d="M41.8,63A33.2,33.2,0,1,1,75,96.21,33.19,33.19,0,0,1,41.8,63Z" fill="#ebf2f2"/><path id="shape3" d="M43.61,63A31.39,31.39,0,1,1,75,94.39,31.41,31.41,0,0,1,43.61,63Z" stroke="#9ca6b7" stroke-width="0.5" fill="url(#未命名的渐变_3)"/><path id="shape4" d="M53.61,84.41A30.26,30.26,0,0,1,50.5,45.22L53,47a27.27,27.27,0,0,0,2.77,35.26Z" fill="#8cd57f"/><path id="shape5" d="M50.5,45.22a30.29,30.29,0,0,1,49,0L97.06,47A27.27,27.27,0,0,0,53,47Z" fill="#738bec"/><path id="shape6" d="M99.5,45.22a30.31,30.31,0,0,1,5.42,13l-3,.49A27.08,27.08,0,0,0,97.06,47Z" fill="#ffcc5e"/><path id="shape7" d="M104.92,58.26a32.38,32.38,0,0,1,.36,4.75,30.36,30.36,0,0,1-1.48,9.35l-2.88-.93A27.18,27.18,0,0,0,102.24,63a26.05,26.05,0,0,0-.33-4.26Z" fill="#ff7d80"/><path id="shape8" d="M103.8,72.36a30.14,30.14,0,0,1-7.4,12l-2.15-2.15a27.26,27.26,0,0,0,6.67-10.83Z" fill="#34a0ee"/><g opacity="0.7"><g id="shape9"><path d="M55.12,82.89l2.41-2.42" fill="#4f4f4f" stroke="#5a5a5a"/><g style="isolation:isolate"><text transform="translate(60.57 77.44)" font-size="2.64" fill="#4f4f4f" font-family="ArialMT, Arial" style="isolation:isolate">0</text></g></g><path id="shape10" d="M51,77.64l1.41-.9" fill="#4f4f4f" stroke="#5a5a5a"/><g id="shape11"><path d="M48.22,71.59l3.23-1" fill="#4f4f4f" stroke="#5a5a5a"/><g style="isolation:isolate"><text transform="translate(54.86 69.78)" font-size="2.64" fill="#4f4f4f" font-family="ArialMT, Arial" style="isolation:isolate">10</text></g></g><path id="shape12" d="M46.93,65.05l1.68-.13" fill="#4f4f4f" stroke="#5a5a5a"/><g id="shape13"><path d="M47.19,58.39l3.34.52" fill="#4f4f4f" stroke="#5a5a5a"/><g style="isolation:isolate"><text transform="translate(54.16 60.79)" font-size="2.64" fill="#4f4f4f" font-family="ArialMT, Arial" style="isolation:isolate">20</text></g></g><path id="shape14" d="M49,52l1.58.66" fill="#4f4f4f" stroke="#5a5a5a"/><g id="shape15"><path d="M52.25,46.17l2.74,2" fill="#4f4f4f" stroke="#5a5a5a"/><g style="isolation:isolate"><text transform="translate(57.6 52.47)" font-size="2.64" fill="#4f4f4f" font-family="ArialMT, Arial" style="isolation:isolate">30</text></g></g><path id="shape16" d="M56.77,41.28l1.09,1.29" fill="#4f4f4f" stroke="#5a5a5a"/><g id="shape17"><path d="M62.32,37.58l1.55,3" fill="#4f4f4f" stroke="#5a5a5a"/><g style="isolation:isolate"><text transform="translate(64.46 46.63)" font-size="2.64" fill="#4f4f4f" font-family="ArialMT, Arial" style="isolation:isolate">40</text></g></g><path id="shape18" d="M68.56,35.27,69,36.92" fill="#4f4f4f" stroke="#5a5a5a"/><g id="shape19"><path d="M75.19,34.48v3.4" fill="#4f4f4f" stroke="#5a5a5a"/><g style="isolation:isolate"><text transform="translate(73.21 44.55)" font-size="2.64" fill="#4f4f4f" font-family="ArialMT, Arial" style="isolation:isolate">50</text></g></g><path id="shape20" d="M81.8,35.27l-.4,1.65" fill="#4f4f4f" stroke="#5a5a5a"/><g id="shape21"><path d="M88,37.58l-1.52,3" fill="#4f4f4f" stroke="#5a5a5a"/><g style="isolation:isolate"><text transform="translate(81.96 46.63)" font-size="2.64" fill="#4f4f4f" font-family="ArialMT, Arial" style="isolation:isolate">60</text></g></g><path id="shape22" d="M93.59,41.28,92.5,42.57" fill="#4f4f4f" stroke="#5a5a5a"/><g id="shape23"><path d="M98.11,46.17l-2.74,2" fill="#4f4f4f" stroke="#5a5a5a"/><g style="isolation:isolate"><text transform="translate(88.8 52.47)" font-size="2.64" fill="#4f4f4f" font-family="ArialMT, Arial" style="isolation:isolate">70</text></g></g><path id="shape24" d="M101.38,52l-1.59.66" fill="#4f4f4f" stroke="#5a5a5a"/><g id="shape25"><path d="M103.19,58.39l-3.36.52" fill="#4f4f4f" stroke="#5a5a5a"/><g style="isolation:isolate"><text transform="translate(92.23 60.79)" font-size="2.64" fill="#4f4f4f" font-family="ArialMT, Arial" style="isolation:isolate">80</text></g></g><path id="shape26" d="M103.46,65.05l-1.72-.13" fill="#4f4f4f" stroke="#5a5a5a"/><g id="shape27"><path d="M102.14,71.59l-3.24-1" fill="#4f4f4f" stroke="#5a5a5a"/><g style="isolation:isolate"><text transform="translate(91.54 69.78)" font-size="2.64" fill="#4f4f4f" font-family="ArialMT, Arial" style="isolation:isolate">90</text></g></g><path id="shape28" d="M99.36,77.64l-1.45-.9" fill="#4f4f4f" stroke="#5a5a5a"/><g id="shape29"><path d="M95.24,82.89l-2.41-2.42" fill="#4f4f4f" stroke="#5a5a5a"/><g style="isolation:isolate"><text transform="translate(85.83 77.44)" font-size="2.64" fill="#4f4f4f" font-family="ArialMT, Arial" style="isolation:isolate">100</text></g></g></g><g id="shape30"><polygon points="74.31 61.36 75.67 64.67 96.9 53.98 74.31 61.36" fill="#ff7d80"/><path d="M74.31,61.36l1.36,3.31L96.9,54Z" fill="#ff7d80"/></g><g id="shape31"><path d="M69.83,63A5.17,5.17,0,1,1,75,68.17,5.16,5.16,0,0,1,69.83,63Z" opacity="0.4"/><path d="M69.83,63A5.17,5.17,0,1,1,75,68.17,5.16,5.16,0,0,1,69.83,63Z" stroke="#909090" fill="url(#未命名的渐变_4)"/></g><g opacity="0.7" style="isolation:isolate"><text transform="translate(71.53 90.15)" font-size="3.3" font-family="ArialMT, Arial" style="isolation:isolate">$75</text></g><g opacity="0.7" style="isolation:isolate"><text transform="translate(64.43 83.55)" font-size="3.3" fill="#171c2d" font-family="ArialMT, Arial" style="isolation:isolate">Sales <tspan x="9.18" y="0" letter-spacing="-0.06em">V</tspan><tspan x="11.2" y="0">olume</tspan></text></g></svg>