<svg id="图层_1" data-name="图层 1" xmlns="http://www.w3.org/2000/svg" viewBox="0 0 150 150"><title>chart</title><path d="M144,1a5,5,0,0,1,5,5V144a5,5,0,0,1-5,5H6a5,5,0,0,1-5-5V6A5,5,0,0,1,6,1H144m0-1H6A6,6,0,0,0,0,6V144a6,6,0,0,0,6,6H144a6,6,0,0,0,6-6V6a6,6,0,0,0-6-6Z" fill="#e0e0e0"/><rect x="15" y="22" width="1" height="90" fill="#e0e0e0"/><rect x="15" y="111" width="120" height="1" fill="#e0e0e0"/><rect x="15" y="92" width="120" height="1" fill="#e0e0e0"/><rect x="15" y="73" width="120" height="1" fill="#e0e0e0"/><rect x="15" y="54" width="120" height="1" fill="#e0e0e0"/><polyline points="33.5 83.5 50.5 83.5 50.5 62.5 66.5 62.5 66.5 42.5 85.5 42.5 85.5 54.5 103.5 54.5 103.5 35.5 118.5 35.5" fill="none" stroke="#6c84e6" stroke-miterlimit="10"/><circle cx="33.5" cy="83.5" r="2" fill="#fff"/><path d="M33.5,82A1.5,1.5,0,1,1,32,83.5,1.5,1.5,0,0,1,33.5,82m0-1A2.5,2.5,0,1,0,36,83.5,2.5,2.5,0,0,0,33.5,81Z" fill="#738bec"/><circle cx="50.5" cy="83.5" r="2" fill="#fff"/><path d="M50.5,82A1.5,1.5,0,1,1,49,83.5,1.5,1.5,0,0,1,50.5,82m0-1A2.5,2.5,0,1,0,53,83.5,2.5,2.5,0,0,0,50.5,81Z" fill="#738bec"/><circle cx="66.5" cy="62.5" r="2" fill="#fff"/><path d="M66.5,61A1.5,1.5,0,1,1,65,62.5,1.5,1.5,0,0,1,66.5,61m0-1A2.5,2.5,0,1,0,69,62.5,2.5,2.5,0,0,0,66.5,60Z" fill="#738bec"/><circle cx="50.5" cy="62.5" r="2" fill="#fff"/><path d="M50.5,61A1.5,1.5,0,1,1,49,62.5,1.5,1.5,0,0,1,50.5,61m0-1A2.5,2.5,0,1,0,53,62.5,2.5,2.5,0,0,0,50.5,60Z" fill="#738bec"/><circle cx="66.5" cy="42.5" r="2" fill="#fff"/><path d="M66.5,41A1.5,1.5,0,1,1,65,42.5,1.5,1.5,0,0,1,66.5,41m0-1A2.5,2.5,0,1,0,69,42.5,2.5,2.5,0,0,0,66.5,40Z" fill="#738bec"/><circle cx="85.5" cy="42.5" r="2" fill="#fff"/><path d="M85.5,41A1.5,1.5,0,1,1,84,42.5,1.5,1.5,0,0,1,85.5,41m0-1A2.5,2.5,0,1,0,88,42.5,2.5,2.5,0,0,0,85.5,40Z" fill="#738bec"/><circle cx="85.5" cy="54.5" r="2" fill="#fff"/><path d="M85.5,53A1.5,1.5,0,1,1,84,54.5,1.5,1.5,0,0,1,85.5,53m0-1A2.5,2.5,0,1,0,88,54.5,2.5,2.5,0,0,0,85.5,52Z" fill="#738bec"/><circle cx="103.5" cy="54.5" r="2" fill="#fff"/><path d="M103.5,53a1.5,1.5,0,1,1-1.5,1.5,1.5,1.5,0,0,1,1.5-1.5m0-1a2.5,2.5,0,1,0,2.5,2.5,2.5,2.5,0,0,0-2.5-2.5Z" fill="#738bec"/><circle cx="103.5" cy="35.5" r="2" fill="#fff"/><path d="M103.5,34a1.5,1.5,0,1,1-1.5,1.5,1.5,1.5,0,0,1,1.5-1.5m0-1a2.5,2.5,0,1,0,2.5,2.5,2.5,2.5,0,0,0-2.5-2.5Z" fill="#738bec"/><circle cx="118.5" cy="35.5" r="2" fill="#fff"/><path d="M118.5,34a1.5,1.5,0,1,1-1.5,1.5,1.5,1.5,0,0,1,1.5-1.5m0-1a2.5,2.5,0,1,0,2.5,2.5,2.5,2.5,0,0,0-2.5-2.5Z" fill="#738bec"/><polyline points="33.5 49.5 50.5 49.5 50.5 73.5 67.5 73.5 67.5 89.5 85.5 89.5 85.5 77.5 103.5 77.5 103.5 63.5 118.5 63.5" fill="none" stroke="#ff7d80" stroke-miterlimit="10"/><circle cx="33.5" cy="49.5" r="2" fill="#fff"/><path d="M33.5,48A1.5,1.5,0,1,1,32,49.5,1.5,1.5,0,0,1,33.5,48m0-1A2.5,2.5,0,1,0,36,49.5,2.5,2.5,0,0,0,33.5,47Z" fill="#ff7d80"/><circle cx="50.5" cy="49.5" r="2" fill="#fff"/><path d="M50.5,48A1.5,1.5,0,1,1,49,49.5,1.5,1.5,0,0,1,50.5,48m0-1A2.5,2.5,0,1,0,53,49.5,2.5,2.5,0,0,0,50.5,47Z" fill="#ff7d80"/><circle cx="50.5" cy="73.5" r="2" fill="#fff"/><path d="M50.5,72A1.5,1.5,0,1,1,49,73.5,1.5,1.5,0,0,1,50.5,72m0-1A2.5,2.5,0,1,0,53,73.5,2.5,2.5,0,0,0,50.5,71Z" fill="#ff7d80"/><circle cx="67.5" cy="73.5" r="2" fill="#fff"/><path d="M67.5,72A1.5,1.5,0,1,1,66,73.5,1.5,1.5,0,0,1,67.5,72m0-1A2.5,2.5,0,1,0,70,73.5,2.5,2.5,0,0,0,67.5,71Z" fill="#ff7d80"/><circle cx="67.5" cy="89.5" r="2" fill="#fff"/><path d="M67.5,88A1.5,1.5,0,1,1,66,89.5,1.5,1.5,0,0,1,67.5,88m0-1A2.5,2.5,0,1,0,70,89.5,2.5,2.5,0,0,0,67.5,87Z" fill="#ff7d80"/><circle cx="85.5" cy="89.5" r="2" fill="#fff"/><path d="M85.5,88A1.5,1.5,0,1,1,84,89.5,1.5,1.5,0,0,1,85.5,88m0-1A2.5,2.5,0,1,0,88,89.5,2.5,2.5,0,0,0,85.5,87Z" fill="#ff7d80"/><circle cx="85.5" cy="77.5" r="2" fill="#fff"/><path d="M85.5,76A1.5,1.5,0,1,1,84,77.5,1.5,1.5,0,0,1,85.5,76m0-1A2.5,2.5,0,1,0,88,77.5,2.5,2.5,0,0,0,85.5,75Z" fill="#ff7d80"/><circle cx="103.5" cy="77.5" r="2" fill="#fff"/><path d="M103.5,76a1.5,1.5,0,1,1-1.5,1.5,1.5,1.5,0,0,1,1.5-1.5m0-1a2.5,2.5,0,1,0,2.5,2.5,2.5,2.5,0,0,0-2.5-2.5Z" fill="#ff7d80"/><circle cx="103.5" cy="63.5" r="2" fill="#fff"/><path d="M103.5,62a1.5,1.5,0,1,1-1.5,1.5,1.5,1.5,0,0,1,1.5-1.5m0-1a2.5,2.5,0,1,0,2.5,2.5,2.5,2.5,0,0,0-2.5-2.5Z" fill="#ff7d80"/><circle cx="118.5" cy="63.5" r="2" fill="#fff"/><path d="M118.5,62a1.5,1.5,0,1,1-1.5,1.5,1.5,1.5,0,0,1,1.5-1.5m0-1a2.5,2.5,0,1,0,2.5,2.5,2.5,2.5,0,0,0-2.5-2.5Z" fill="#ff7d80"/></svg>