<svg id="图层_1" data-name="图层 1" xmlns="http://www.w3.org/2000/svg" viewBox="0 0 150 150"><title>chart</title><path d="M144,1a5,5,0,0,1,5,5V144a5,5,0,0,1-5,5H6a5,5,0,0,1-5-5V6A5,5,0,0,1,6,1H144m0-1H6A6,6,0,0,0,0,6V144a6,6,0,0,0,6,6H144a6,6,0,0,0,6-6V6a6,6,0,0,0-6-6Z" fill="#e0e0e0"/><rect x="16" y="21" width="1" height="90" fill="#e0e0e0"/><rect x="16" y="110" width="120" height="1" fill="#e0e0e0"/><rect x="16" y="91" width="120" height="1" fill="#e0e0e0"/><rect x="16" y="72" width="120" height="1" fill="#e0e0e0"/><rect x="16" y="53" width="120" height="1" fill="#e0e0e0"/><rect x="16" y="34" width="120" height="1" fill="#e0e0e0"/><polyline points="34.5 83.5 48.5 91.5 62.5 86.5 76.5 59.5 90.5 49.5 106.5 65.5 121.5 56.5" fill="none" stroke="#8cd57f" stroke-miterlimit="10"/><circle cx="34.5" cy="83.5" r="2" fill="#fff"/><path d="M34.5,82A1.5,1.5,0,1,1,33,83.5,1.5,1.5,0,0,1,34.5,82m0-1A2.5,2.5,0,1,0,37,83.5,2.5,2.5,0,0,0,34.5,81Z" fill="#8cd57f"/><circle cx="48.5" cy="91.5" r="2" fill="#fff"/><path d="M48.5,90A1.5,1.5,0,1,1,47,91.5,1.5,1.5,0,0,1,48.5,90m0-1A2.5,2.5,0,1,0,51,91.5,2.5,2.5,0,0,0,48.5,89Z" fill="#8cd57f"/><circle cx="62.5" cy="86.5" r="2" fill="#fff"/><path d="M62.5,85A1.5,1.5,0,1,1,61,86.5,1.5,1.5,0,0,1,62.5,85m0-1A2.5,2.5,0,1,0,65,86.5,2.5,2.5,0,0,0,62.5,84Z" fill="#8cd57f"/><circle cx="76.5" cy="59.5" r="2" fill="#fff"/><path d="M76.5,58A1.5,1.5,0,1,1,75,59.5,1.5,1.5,0,0,1,76.5,58m0-1A2.5,2.5,0,1,0,79,59.5,2.5,2.5,0,0,0,76.5,57Z" fill="#8cd57f"/><circle cx="90.5" cy="49.5" r="2" fill="#fff"/><path d="M90.5,48A1.5,1.5,0,1,1,89,49.5,1.5,1.5,0,0,1,90.5,48m0-1A2.5,2.5,0,1,0,93,49.5,2.5,2.5,0,0,0,90.5,47Z" fill="#8cd57f"/><circle cx="106.5" cy="65.5" r="2" fill="#fff"/><path d="M106.5,64a1.5,1.5,0,1,1-1.5,1.5,1.5,1.5,0,0,1,1.5-1.5m0-1a2.5,2.5,0,1,0,2.5,2.5,2.5,2.5,0,0,0-2.5-2.5Z" fill="#8cd57f"/><circle cx="121.5" cy="56.5" r="2" fill="#fff"/><path d="M121.5,55a1.5,1.5,0,1,1-1.5,1.5,1.5,1.5,0,0,1,1.5-1.5m0-1a2.5,2.5,0,1,0,2.5,2.5,2.5,2.5,0,0,0-2.5-2.5Z" fill="#8cd57f"/><polyline points="34.5 72.5 48.5 62.5 62.5 67.5 76.5 78.5 91.5 66.5 106.5 38.5 121.5 38.5" fill="none" stroke="#ff7d80" stroke-miterlimit="10"/><circle cx="34.5" cy="72.5" r="2" fill="#fff"/><path d="M34.5,71A1.5,1.5,0,1,1,33,72.5,1.5,1.5,0,0,1,34.5,71m0-1A2.5,2.5,0,1,0,37,72.5,2.5,2.5,0,0,0,34.5,70Z" fill="#ff7d80"/><circle cx="48.5" cy="62.5" r="2" fill="#fff"/><path d="M48.5,61A1.5,1.5,0,1,1,47,62.5,1.5,1.5,0,0,1,48.5,61m0-1A2.5,2.5,0,1,0,51,62.5,2.5,2.5,0,0,0,48.5,60Z" fill="#ff7d80"/><circle cx="62.5" cy="67.5" r="2" fill="#fff"/><path d="M62.5,66A1.5,1.5,0,1,1,61,67.5,1.5,1.5,0,0,1,62.5,66m0-1A2.5,2.5,0,1,0,65,67.5,2.5,2.5,0,0,0,62.5,65Z" fill="#ff7d80"/><circle cx="76.5" cy="78.5" r="2" fill="#fff"/><path d="M76.5,77A1.5,1.5,0,1,1,75,78.5,1.5,1.5,0,0,1,76.5,77m0-1A2.5,2.5,0,1,0,79,78.5,2.5,2.5,0,0,0,76.5,76Z" fill="#ff7d80"/><circle cx="91.5" cy="66.5" r="2" fill="#fff"/><path d="M91.5,65A1.5,1.5,0,1,1,90,66.5,1.5,1.5,0,0,1,91.5,65m0-1A2.5,2.5,0,1,0,94,66.5,2.5,2.5,0,0,0,91.5,64Z" fill="#ff7d80"/><circle cx="106.5" cy="38.5" r="2" fill="#fff"/><path d="M106.5,37a1.5,1.5,0,1,1-1.5,1.5,1.5,1.5,0,0,1,1.5-1.5m0-1a2.5,2.5,0,1,0,2.5,2.5,2.5,2.5,0,0,0-2.5-2.5Z" fill="#ff7d80"/><circle cx="121.5" cy="38.5" r="2" fill="#fff"/><path d="M121.5,37a1.5,1.5,0,1,1-1.5,1.5,1.5,1.5,0,0,1,1.5-1.5m0-1a2.5,2.5,0,1,0,2.5,2.5,2.5,2.5,0,0,0-2.5-2.5Z" fill="#ff7d80"/><text transform="translate(18.43 28)" font-size="11" fill="gray" font-family="SourceHanSansCN-Normal, Source Han Sans CN">100%</text></svg>