<svg id="图层_1" data-name="图层 1" xmlns="http://www.w3.org/2000/svg" viewBox="0 0 150 150"><title>chart</title><path d="M144,1a5,5,0,0,1,5,5V144a5,5,0,0,1-5,5H6a5,5,0,0,1-5-5V6A5,5,0,0,1,6,1H144m0-1H6A6,6,0,0,0,0,6V144a6,6,0,0,0,6,6H144a6,6,0,0,0,6-6V6a6,6,0,0,0-6-6Z" fill="#e0e0e0"/><rect x="15" y="22" width="1" height="90" fill="#e0e0e0"/><rect x="15" y="111" width="120" height="1" fill="#e0e0e0"/><rect x="15" y="92" width="120" height="1" fill="#e0e0e0"/><rect x="15" y="73" width="120" height="1" fill="#e0e0e0"/><rect x="15" y="54" width="120" height="1" fill="#e0e0e0"/><rect x="15" y="35" width="120" height="1" fill="#e0e0e0"/><polyline points="28.5 73.5 46.5 80.5 66.5 61.5 86.5 80.5 106.5 51.5 125.5 58.5" fill="none" stroke="#738bec" stroke-miterlimit="10"/><circle cx="28.5" cy="73.5" r="2" fill="#fff"/><path d="M28.5,72A1.5,1.5,0,1,1,27,73.5,1.5,1.5,0,0,1,28.5,72m0-1A2.5,2.5,0,1,0,31,73.5,2.5,2.5,0,0,0,28.5,71Z" fill="#738bec"/><circle cx="46.5" cy="80.5" r="2" fill="#fff"/><path d="M46.5,79A1.5,1.5,0,1,1,45,80.5,1.5,1.5,0,0,1,46.5,79m0-1A2.5,2.5,0,1,0,49,80.5,2.5,2.5,0,0,0,46.5,78Z" fill="#738bec"/><circle cx="66.5" cy="61.5" r="2" fill="#fff"/><path d="M66.5,60A1.5,1.5,0,1,1,65,61.5,1.5,1.5,0,0,1,66.5,60m0-1A2.5,2.5,0,1,0,69,61.5,2.5,2.5,0,0,0,66.5,59Z" fill="#738bec"/><circle cx="86.5" cy="80.5" r="2" fill="#fff"/><path d="M86.5,79A1.5,1.5,0,1,1,85,80.5,1.5,1.5,0,0,1,86.5,79m0-1A2.5,2.5,0,1,0,89,80.5,2.5,2.5,0,0,0,86.5,78Z" fill="#738bec"/><circle cx="106.5" cy="51.5" r="2" fill="#fff"/><path d="M106.5,50a1.5,1.5,0,1,1-1.5,1.5,1.5,1.5,0,0,1,1.5-1.5m0-1a2.5,2.5,0,1,0,2.5,2.5,2.5,2.5,0,0,0-2.5-2.5Z" fill="#738bec"/><circle cx="125.5" cy="58.5" r="2" fill="#fff"/><path d="M125.5,57a1.5,1.5,0,1,1-1.5,1.5,1.5,1.5,0,0,1,1.5-1.5m0-1a2.5,2.5,0,1,0,2.5,2.5,2.5,2.5,0,0,0-2.5-2.5Z" fill="#738bec"/><polyline points="28.5 54.5 47.5 45.5 66.5 78.5 86.5 92.5 106.5 77.5 125.5 70.5" fill="none" stroke="#ff7d80" stroke-miterlimit="10"/><circle cx="28.5" cy="54.5" r="2" fill="#fff"/><path d="M28.5,53A1.5,1.5,0,1,1,27,54.5,1.5,1.5,0,0,1,28.5,53m0-1A2.5,2.5,0,1,0,31,54.5,2.5,2.5,0,0,0,28.5,52Z" fill="#ff7d80"/><circle cx="47.5" cy="45.5" r="2" fill="#fff"/><path d="M47.5,44A1.5,1.5,0,1,1,46,45.5,1.5,1.5,0,0,1,47.5,44m0-1A2.5,2.5,0,1,0,50,45.5,2.5,2.5,0,0,0,47.5,43Z" fill="#ff7d80"/><circle cx="66.5" cy="78.5" r="2" fill="#fff"/><path d="M66.5,77A1.5,1.5,0,1,1,65,78.5,1.5,1.5,0,0,1,66.5,77m0-1A2.5,2.5,0,1,0,69,78.5,2.5,2.5,0,0,0,66.5,76Z" fill="#ff7d80"/><circle cx="86.5" cy="92.5" r="2" fill="#fff"/><path d="M86.5,91A1.5,1.5,0,1,1,85,92.5,1.5,1.5,0,0,1,86.5,91m0-1A2.5,2.5,0,1,0,89,92.5,2.5,2.5,0,0,0,86.5,90Z" fill="#ff7d80"/><circle cx="106.5" cy="77.5" r="2" fill="#fff"/><path d="M106.5,76a1.5,1.5,0,1,1-1.5,1.5,1.5,1.5,0,0,1,1.5-1.5m0-1a2.5,2.5,0,1,0,2.5,2.5,2.5,2.5,0,0,0-2.5-2.5Z" fill="#ff7d80"/><circle cx="125.5" cy="70.5" r="2" fill="#fff"/><path d="M125.5,69a1.5,1.5,0,1,1-1.5,1.5,1.5,1.5,0,0,1,1.5-1.5m0-1a2.5,2.5,0,1,0,2.5,2.5,2.5,2.5,0,0,0-2.5-2.5Z" fill="#ff7d80"/></svg>