<svg id="图层_1" data-name="图层 1" xmlns="http://www.w3.org/2000/svg" viewBox="0 0 150 150"><title>chart</title><path d="M144,1a5,5,0,0,1,5,5V144a5,5,0,0,1-5,5H6a5,5,0,0,1-5-5V6A5,5,0,0,1,6,1H144m0-1H6A6,6,0,0,0,0,6V144a6,6,0,0,0,6,6H144a6,6,0,0,0,6-6V6a6,6,0,0,0-6-6Z" fill="#e0e0e0"/><rect x="15" y="22" width="1" height="90" fill="#e0e0e0"/><rect x="15" y="111" width="120" height="1" fill="#e0e0e0"/><path d="M72.5,46a19,19,0,1,1-19,19,19,19,0,0,1,19-19m0-15a34,34,0,1,0,34,34,34,34,0,0,0-34-34Z" fill="#738bec"/><path d="M91.5,65A19,19,0,0,1,64.12,82l-8.7,12.36A34,34,0,0,0,106.5,65Z" fill="#ffcc5e"/><path d="M62.87,48.64A19,19,0,0,1,91.5,65h15A34,34,0,0,0,55,35.87Z" fill="#ff7d80"/></svg>