<svg id="图层_1" data-name="图层 1" xmlns="http://www.w3.org/2000/svg" viewBox="0 0 150 150"><title>chart</title><path d="M144,1a5,5,0,0,1,5,5V144a5,5,0,0,1-5,5H6a5,5,0,0,1-5-5V6A5,5,0,0,1,6,1H144m0-1H6A6,6,0,0,0,0,6V144a6,6,0,0,0,6,6H144a6,6,0,0,0,6-6V6a6,6,0,0,0-6-6Z" fill="#e0e0e0"/><rect x="15" y="22" width="1" height="90" fill="#e0e0e0"/><rect x="15" y="111" width="120" height="1" fill="#e0e0e0"/><circle cx="75.5" cy="67" r="32" fill="#738bec"/><path d="M98.13,89.63A31.9,31.9,0,0,0,107.5,67H75S98,89,98.13,89.63Z" fill="#ffcc5e"/><path d="M107.5,67a32,32,0,0,0-32-32H75V67Z" fill="#ff7d80"/></svg>