<svg id="图层_1" data-name="图层 1" xmlns="http://www.w3.org/2000/svg" viewBox="0 0 150 150"><title>chart</title><path d="M144,1a5,5,0,0,1,5,5V144a5,5,0,0,1-5,5H6a5,5,0,0,1-5-5V6A5,5,0,0,1,6,1H144m0-1H6A6,6,0,0,0,0,6V144a6,6,0,0,0,6,6H144a6,6,0,0,0,6-6V6a6,6,0,0,0-6-6Z" fill="#e0e0e0"/><rect x="15" y="22" width="1" height="90" fill="#e0e0e0"/><rect x="15" y="111" width="120" height="1" fill="#e0e0e0"/><path d="M75.5,96a29,29,0,0,0,29-29h-58A29,29,0,0,0,75.5,96Z" fill="#37aef7"/><path d="M75,67V31A34,34,0,0,0,43.69,76.93Z" fill="#738bec"/><path d="M75.5,99a32,32,0,0,0,32-32H75L55.8,92.22A31.85,31.85,0,0,0,75.5,99Z" fill="#8cd57f"/><path d="M100.55,92a35.25,35.25,0,0,0,10.36-25H75S100.41,91.31,100.55,92Z" fill="#ffcc5e"/><path d="M106.48,67a31,31,0,0,0-31-31H75V67Z" fill="#ff7d80"/></svg>