<svg id="图层_1" data-name="图层 1" xmlns="http://www.w3.org/2000/svg" viewBox="0 0 150 150"><title>chart</title><path d="M144,1a5,5,0,0,1,5,5V144a5,5,0,0,1-5,5H6a5,5,0,0,1-5-5V6A5,5,0,0,1,6,1H144m0-1H6A6,6,0,0,0,0,6V144a6,6,0,0,0,6,6H144a6,6,0,0,0,6-6V6a6,6,0,0,0-6-6Z" fill="#e0e0e0"/><rect x="15" y="22" width="1" height="90" fill="#e0e0e0"/><rect x="15" y="111" width="120" height="1" fill="#e0e0e0"/><rect x="30.5" y="62" width="90" height="1" fill="#e0e0e0"/><rect x="30.5" y="62" width="90" height="1" transform="translate(138 -13) rotate(90)" fill="#e0e0e0"/><rect x="30.5" y="62" width="90" height="1" transform="translate(167.38 28.37) rotate(120)" fill="#e0e0e0"/><rect x="30.5" y="62" width="90" height="1" transform="translate(91.88 -34.13) rotate(60)" fill="#e0e0e0"/><rect x="30.5" y="62" width="90" height="1" transform="translate(172.13 78.88) rotate(150)" fill="#e0e0e0"/><rect x="30.5" y="62" width="90" height="1" transform="translate(41.37 -29.38) rotate(30)" fill="#e0e0e0"/><path d="M75.6,21l20.94,5.59,15.34,15.32,5.63,20.93-5.6,20.94L96.6,99.07,75.66,104.7,54.72,99.11,39.38,83.79,33.76,62.86l5.59-20.94L54.66,26.58,75.6,21m0-1L54.15,25.68,38.45,41.4,32.72,62.86l5.77,21.45L54.2,100l21.46,5.74L97.11,100l15.7-15.72,5.73-21.46-5.77-21.45L97.06,25.65,75.6,19.92Z" fill="#e0e0e0"/><path d="M75.6,27.86l17.49,4.67L105.9,45.32l4.69,17.48-4.67,17.48L93.14,93.09l-17.48,4.7L58.17,93.12,45.37,80.33l-4.7-17.48,4.67-17.48L58.13,32.56l17.47-4.7m0-1-18,4.83L44.44,44.85l-4.81,18,4.84,18L57.66,94l18,4.81,18-4.83L106.82,80.8l4.81-18-4.84-18L93.61,31.64l-18-4.81Z" fill="#e0e0e0"/><path d="M75.61,34.87l14,3.73L99.83,48.83l3.76,14-3.73,14L89.63,87l-14,3.76-14-3.74L51.43,76.82l-3.76-14,3.74-14L61.63,38.62l14-3.75m0-1-14.5,3.9L50.51,48.35l-3.87,14.5,3.89,14.49L61.15,88l14.5,3.87,14.5-3.9,10.6-10.62,3.88-14.5-3.9-14.49L90.11,37.7l-14.5-3.87Z" fill="#e0e0e0"/><path d="M75.61,41.81l10.51,2.81,7.7,7.68,2.83,10.51L93.84,73.32,86.15,81l-10.5,2.82L65.14,81l-7.7-7.68L54.62,62.84l2.8-10.51,7.69-7.7,10.5-2.82m0-1-11,3-8.06,8.08-3,11,3,11,8.08,8.06,11,2.95,11-3,8.07-8.07,2.94-11-3-11-8.08-8.07-11-2.94Z" fill="#e0e0e0"/><path d="M75.62,48.22l7.3,2,5.35,5.34,2,7.3-2,7.31-5.34,5.35-7.3,2-7.3-2L63,70.14l-2-7.3L63,55.53l5.34-5.35,7.3-2m0-1-7.82,2.1L62.08,55,60,62.84l2.1,7.82,5.73,5.72,7.82,2.09,7.82-2.11,5.72-5.72,2.09-7.83L89.17,55l-5.73-5.72-7.82-2.08Z" fill="#e0e0e0"/><path d="M75.62,55.28l3.78,1,2.76,2.76,1,3.77-1,3.77-2.76,2.77-3.77,1-3.78-1L69.1,66.6l-1-3.77,1-3.77,2.76-2.77,3.77-1m0-1L71.33,55.4,68.2,58.54l-1.15,4.29,1.15,4.29,3.15,3.14,4.29,1.15,4.29-1.16,3.14-3.14,1.14-4.29-1.15-4.29-3.14-3.14-4.3-1.15Z" fill="#e0e0e0"/><polygon points="57 51.78 61.49 38.23 75.63 34.48 93.12 31.98 106.26 44.74 103.76 62.33 97.27 74.58 83.03 75.53 75.5 70.53 66.26 78.5 51.02 76.64 47.58 62.5 57 51.78" fill="none" stroke="#8cd57f" stroke-miterlimit="10"/><circle cx="51.02" cy="76.64" r="2" fill="#fff"/><path d="M51,75.14a1.5,1.5,0,1,1-1.5,1.5,1.5,1.5,0,0,1,1.5-1.5m0-1a2.5,2.5,0,1,0,2.5,2.5,2.5,2.5,0,0,0-2.5-2.5Z" fill="#8cd57f"/><circle cx="66.26" cy="78.5" r="2" fill="#fff"/><path d="M66.26,77a1.5,1.5,0,1,1-1.5,1.5,1.5,1.5,0,0,1,1.5-1.5m0-1a2.5,2.5,0,1,0,2.5,2.5,2.5,2.5,0,0,0-2.5-2.5Z" fill="#8cd57f"/><circle cx="75.5" cy="70.53" r="2" fill="#fff"/><path d="M75.5,69a1.5,1.5,0,1,1-1.5,1.5A1.5,1.5,0,0,1,75.5,69m0-1a2.5,2.5,0,1,0,2.5,2.5A2.49,2.49,0,0,0,75.5,68Z" fill="#8cd57f"/><circle cx="83.02" cy="75.53" r="2" fill="#fff"/><path d="M83,74a1.5,1.5,0,1,1-1.5,1.5A1.5,1.5,0,0,1,83,74m0-1a2.5,2.5,0,1,0,2.5,2.5A2.49,2.49,0,0,0,83,73Z" fill="#8cd57f"/><circle cx="97.27" cy="74.58" r="2" fill="#fff"/><path d="M97.27,73.08a1.5,1.5,0,1,1-1.5,1.5,1.5,1.5,0,0,1,1.5-1.5m0-1a2.5,2.5,0,1,0,2.5,2.5,2.5,2.5,0,0,0-2.5-2.5Z" fill="#8cd57f"/><circle cx="103.76" cy="62.33" r="2" fill="#fff"/><path d="M103.76,60.83a1.5,1.5,0,1,1-1.5,1.5,1.5,1.5,0,0,1,1.5-1.5m0-1a2.5,2.5,0,1,0,2.5,2.5,2.49,2.49,0,0,0-2.5-2.5Z" fill="#8cd57f"/><circle cx="106.26" cy="44.74" r="2" fill="#fff"/><path d="M106.26,43.24a1.5,1.5,0,1,1-1.5,1.5,1.5,1.5,0,0,1,1.5-1.5m0-1a2.5,2.5,0,1,0,2.5,2.5,2.5,2.5,0,0,0-2.5-2.5Z" fill="#8cd57f"/><circle cx="47.58" cy="62.5" r="2" fill="#fff"/><path d="M47.58,61a1.5,1.5,0,1,1-1.5,1.5,1.5,1.5,0,0,1,1.5-1.5m0-1a2.5,2.5,0,1,0,2.5,2.5,2.5,2.5,0,0,0-2.5-2.5Z" fill="#8cd57f"/><circle cx="61.49" cy="38.23" r="2" fill="#fff"/><path d="M61.49,36.73a1.5,1.5,0,1,1-1.5,1.5,1.51,1.51,0,0,1,1.5-1.5m0-1a2.5,2.5,0,1,0,2.5,2.5,2.5,2.5,0,0,0-2.5-2.5Z" fill="#8cd57f"/><circle cx="57" cy="51.78" r="2" fill="#fff"/><path d="M57,50.28a1.5,1.5,0,1,1-1.5,1.5,1.5,1.5,0,0,1,1.5-1.5m0-1a2.5,2.5,0,1,0,2.5,2.5,2.5,2.5,0,0,0-2.5-2.5Z" fill="#8cd57f"/><circle cx="75.63" cy="34.49" r="2" fill="#fff"/><path d="M75.63,33a1.5,1.5,0,1,1-1.5,1.5,1.5,1.5,0,0,1,1.5-1.5m0-1a2.5,2.5,0,1,0,2.5,2.5,2.49,2.49,0,0,0-2.5-2.5Z" fill="#8cd57f"/><circle cx="93.12" cy="31.99" r="2" fill="#fff"/><path d="M93.12,30.49a1.5,1.5,0,1,1-1.5,1.5,1.5,1.5,0,0,1,1.5-1.5m0-1a2.5,2.5,0,1,0,2.5,2.5,2.49,2.49,0,0,0-2.5-2.5Z" fill="#8cd57f"/><polygon points="45.08 44.74 54.13 26.5 75.5 27.5 89.67 38.5 94.07 51.78 91.57 62 88.68 70.11 86.5 81 75.63 91.02 61.1 87.43 57 73.18 60.77 62.5 45.08 44.74" fill="none" stroke="#ff7d80" stroke-miterlimit="10"/><circle cx="60.77" cy="62.5" r="2" fill="#fff"/><path d="M60.77,61a1.5,1.5,0,1,1-1.5,1.5,1.5,1.5,0,0,1,1.5-1.5m0-1a2.5,2.5,0,1,0,2.5,2.5,2.5,2.5,0,0,0-2.5-2.5Z" fill="#ff7d80"/><circle cx="45.08" cy="44.74" r="2" fill="#fff"/><path d="M45.08,43.24a1.5,1.5,0,1,1-1.5,1.5,1.5,1.5,0,0,1,1.5-1.5m0-1a2.5,2.5,0,1,0,2.5,2.5,2.5,2.5,0,0,0-2.5-2.5Z" fill="#ff7d80"/><circle cx="54.5" cy="26.5" r="2" fill="#fff"/><path d="M54.5,25A1.5,1.5,0,1,1,53,26.5,1.5,1.5,0,0,1,54.5,25m0-1A2.5,2.5,0,1,0,57,26.5,2.5,2.5,0,0,0,54.5,24Z" fill="#ff7d80"/><circle cx="75.5" cy="27.5" r="2" fill="#fff"/><path d="M75.5,26A1.5,1.5,0,1,1,74,27.5,1.5,1.5,0,0,1,75.5,26m0-1A2.5,2.5,0,1,0,78,27.5,2.5,2.5,0,0,0,75.5,25Z" fill="#ff7d80"/><circle cx="89.67" cy="38.5" r="2" fill="#fff"/><path d="M89.67,37a1.5,1.5,0,1,1-1.5,1.5,1.5,1.5,0,0,1,1.5-1.5m0-1a2.5,2.5,0,1,0,2.5,2.5,2.5,2.5,0,0,0-2.5-2.5Z" fill="#ff7d80"/><circle cx="94.07" cy="51.78" r="2" fill="#fff"/><path d="M94.07,50.28a1.5,1.5,0,1,1-1.5,1.5,1.5,1.5,0,0,1,1.5-1.5m0-1a2.5,2.5,0,1,0,2.5,2.5,2.5,2.5,0,0,0-2.5-2.5Z" fill="#ff7d80"/><circle cx="91.57" cy="62" r="2" fill="#fff"/><path d="M91.57,60.5a1.5,1.5,0,1,1-1.5,1.5,1.5,1.5,0,0,1,1.5-1.5m0-1a2.5,2.5,0,1,0,2.5,2.5,2.5,2.5,0,0,0-2.5-2.5Z" fill="#ff7d80"/><circle cx="88.68" cy="70.11" r="2" fill="#fff"/><path d="M88.68,68.61a1.5,1.5,0,1,1-1.5,1.5,1.5,1.5,0,0,1,1.5-1.5m0-1a2.5,2.5,0,1,0,2.5,2.5,2.5,2.5,0,0,0-2.5-2.5Z" fill="#ff7d80"/><circle cx="86.5" cy="81" r="2" fill="#fff"/><path d="M86.5,79.5A1.5,1.5,0,1,1,85,81a1.5,1.5,0,0,1,1.5-1.5m0-1A2.5,2.5,0,1,0,89,81a2.5,2.5,0,0,0-2.5-2.5Z" fill="#ff7d80"/><circle cx="75.63" cy="91.02" r="2" fill="#fff"/><path d="M75.63,89.52a1.5,1.5,0,1,1-1.5,1.5,1.5,1.5,0,0,1,1.5-1.5m0-1a2.5,2.5,0,1,0,2.5,2.5,2.5,2.5,0,0,0-2.5-2.5Z" fill="#ff7d80"/><circle cx="61.11" cy="87.43" r="2" fill="#fff"/><path d="M61.1,85.93a1.5,1.5,0,1,1-1.5,1.5,1.5,1.5,0,0,1,1.5-1.5m0-1a2.5,2.5,0,1,0,2.5,2.5,2.5,2.5,0,0,0-2.5-2.5Z" fill="#ff7d80"/><circle cx="57" cy="73.18" r="2" fill="#fff"/><path d="M57,71.68a1.5,1.5,0,1,1-1.5,1.5,1.5,1.5,0,0,1,1.5-1.5m0-1a2.5,2.5,0,1,0,2.5,2.5,2.5,2.5,0,0,0-2.5-2.5Z" fill="#ff7d80"/><text transform="translate(106.76 106.5)" font-size="11" fill="gray" font-family="SourceHanSansCN-Normal, Source Han Sans CN">100%</text></svg>