<svg id="图层_1" data-name="图层 1" xmlns="http://www.w3.org/2000/svg" viewBox="0 0 150 150"><title>chart</title><path d="M144,1a5,5,0,0,1,5,5V144a5,5,0,0,1-5,5H6a5,5,0,0,1-5-5V6A5,5,0,0,1,6,1H144m0-1H6A6,6,0,0,0,0,6V144a6,6,0,0,0,6,6H144a6,6,0,0,0,6-6V6a6,6,0,0,0-6-6Z" fill="#e0e0e0"/><rect x="15" y="22" width="1" height="90" fill="#e0e0e0"/><rect x="15" y="111" width="120" height="1" fill="#e0e0e0"/><rect x="30.5" y="62" width="90" height="1" fill="#e0e0e0"/><rect x="30.5" y="62" width="90" height="1" transform="translate(138 -13) rotate(90)" fill="#e0e0e0"/><rect x="30.5" y="62" width="90" height="1" transform="translate(167.38 28.37) rotate(120)" fill="#e0e0e0"/><rect x="30.5" y="62" width="90" height="1" transform="translate(91.88 -34.13) rotate(60)" fill="#e0e0e0"/><rect x="30.5" y="62" width="90" height="1" transform="translate(172.13 78.88) rotate(150)" fill="#e0e0e0"/><rect x="30.5" y="62" width="90" height="1" transform="translate(41.37 -29.38) rotate(30)" fill="#e0e0e0"/><path d="M75.6,21l20.94,5.59,15.34,15.32,5.63,20.93-5.6,20.94L96.6,99.07,75.66,104.7,54.72,99.11,39.38,83.79,33.76,62.86l5.59-20.94L54.67,26.58,75.6,21m0-1L54.15,25.68,38.45,41.4,32.72,62.86l5.77,21.45L54.21,100l21.45,5.74L97.12,100l15.69-15.72,5.73-21.46-5.76-21.45L97.06,25.65,75.6,19.92Z" fill="#e0e0e0"/><path d="M75.6,27.86l17.49,4.67L105.9,45.32l4.69,17.48-4.67,17.48L93.14,93.09l-17.48,4.7L58.17,93.12,45.37,80.33l-4.7-17.48,4.67-17.48L58.13,32.56l17.47-4.7m0-1-18,4.83L44.44,44.85l-4.81,18,4.84,18L57.66,94l18,4.81,18-4.83L106.82,80.8l4.81-18-4.84-18L93.61,31.64l-18-4.81Z" fill="#e0e0e0"/><path d="M75.61,34.87l14,3.73L99.83,48.83l3.76,14-3.73,14L89.63,87l-14,3.76-14-3.74L51.43,76.82l-3.76-14,3.74-14L61.63,38.62l14-3.75m0-1-14.5,3.9L50.51,48.35l-3.87,14.5,3.89,14.49L61.15,88l14.5,3.87,14.5-3.9,10.6-10.62,3.88-14.5-3.9-14.49L90.11,37.7l-14.5-3.87Z" fill="#e0e0e0"/><path d="M75.61,41.81l10.51,2.81,7.7,7.68,2.83,10.51L93.84,73.32,86.15,81l-10.5,2.82L65.14,81l-7.7-7.68L54.62,62.84l2.8-10.51,7.69-7.7,10.5-2.82m0-1-11,3-8.06,8.08-3,11,3,11,8.08,8.06,11,2.95,11-3,8.07-8.07,2.94-11-3-11-8.08-8.07-11-2.94Z" fill="#e0e0e0"/><path d="M75.62,48.22l7.3,2,5.35,5.34,2,7.3-1.95,7.31-5.35,5.35-7.3,2-7.3-2L63,70.14l-2-7.3L63,55.53l5.34-5.35,7.3-2m0-1-7.82,2.1L62.08,55,60,62.84l2.1,7.82,5.73,5.72,7.82,2.09,7.82-2.11,5.72-5.72,2.09-7.83L89.17,55l-5.73-5.72-7.82-2.08Z" fill="#e0e0e0"/><path d="M75.63,55.28l3.77,1,2.76,2.76,1,3.77-1,3.77-2.76,2.77-3.77,1-3.78-1L69.1,66.6l-1-3.77,1-3.77,2.76-2.77,3.78-1m0-1L71.33,55.4,68.2,58.54l-1.15,4.29,1.15,4.29,3.15,3.14,4.29,1.15,4.29-1.16,3.14-3.14,1.14-4.29-1.15-4.29-3.14-3.14-4.3-1.15Z" fill="#e0e0e0"/><polygon points="40.51 62.5 45.05 44.5 61.49 38.23 75.63 27 89.48 38.23 91.17 53.45 83.38 62 91.57 71.23 89.88 87.42 75.5 97.65 62.86 84.39 48.52 78.5 40.51 62.5" fill="none" stroke="#738bec" stroke-miterlimit="10"/><circle cx="48.52" cy="78.5" r="2" fill="#fff"/><path d="M48.52,77A1.5,1.5,0,1,1,47,78.5a1.5,1.5,0,0,1,1.5-1.5m0-1A2.5,2.5,0,1,0,51,78.5a2.5,2.5,0,0,0-2.5-2.5Z" fill="#738bec"/><circle cx="62.86" cy="84.39" r="2" fill="#fff"/><path d="M62.86,82.89a1.5,1.5,0,1,1-1.5,1.5,1.5,1.5,0,0,1,1.5-1.5m0-1a2.5,2.5,0,1,0,2.5,2.5,2.5,2.5,0,0,0-2.5-2.5Z" fill="#738bec"/><circle cx="75.5" cy="97.65" r="2" fill="#fff"/><path d="M75.5,96.15a1.5,1.5,0,1,1-1.5,1.5,1.5,1.5,0,0,1,1.5-1.5m0-1a2.5,2.5,0,1,0,2.5,2.5,2.5,2.5,0,0,0-2.5-2.5Z" fill="#738bec"/><circle cx="89.88" cy="87.42" r="2" fill="#fff"/><path d="M89.88,85.92a1.5,1.5,0,1,1-1.5,1.5,1.5,1.5,0,0,1,1.5-1.5m0-1a2.5,2.5,0,1,0,2.5,2.5,2.5,2.5,0,0,0-2.5-2.5Z" fill="#738bec"/><circle cx="91.57" cy="71.23" r="2" fill="#fff"/><path d="M91.57,69.73a1.5,1.5,0,1,1-1.5,1.5,1.5,1.5,0,0,1,1.5-1.5m0-1a2.5,2.5,0,1,0,2.5,2.5,2.5,2.5,0,0,0-2.5-2.5Z" fill="#738bec"/><circle cx="83.38" cy="62" r="2" fill="#fff"/><path d="M83.38,60.5a1.5,1.5,0,1,1-1.5,1.5,1.5,1.5,0,0,1,1.5-1.5m0-1a2.5,2.5,0,1,0,2.5,2.5,2.5,2.5,0,0,0-2.5-2.5Z" fill="#738bec"/><circle cx="91.17" cy="53.46" r="2" fill="#fff"/><path d="M91.17,52a1.5,1.5,0,1,1-1.5,1.5,1.5,1.5,0,0,1,1.5-1.5m0-1a2.5,2.5,0,1,0,2.5,2.5,2.49,2.49,0,0,0-2.5-2.5Z" fill="#738bec"/><circle cx="40.51" cy="62.5" r="2" fill="#fff"/><path d="M40.51,61A1.5,1.5,0,1,1,39,62.5a1.5,1.5,0,0,1,1.5-1.5m0-1A2.5,2.5,0,1,0,43,62.5a2.5,2.5,0,0,0-2.5-2.5Z" fill="#738bec"/><circle cx="61.49" cy="38.23" r="2" fill="#fff"/><path d="M61.49,36.73a1.5,1.5,0,1,1-1.5,1.5,1.51,1.51,0,0,1,1.5-1.5m0-1a2.5,2.5,0,1,0,2.5,2.5,2.5,2.5,0,0,0-2.5-2.5Z" fill="#738bec"/><circle cx="45.05" cy="44.5" r="2" fill="#fff"/><path d="M45.05,43a1.5,1.5,0,1,1-1.5,1.5,1.5,1.5,0,0,1,1.5-1.5m0-1a2.5,2.5,0,1,0,2.5,2.5,2.5,2.5,0,0,0-2.5-2.5Z" fill="#738bec"/><circle cx="75.63" cy="27" r="2" fill="#fff"/><path d="M75.63,25.5a1.5,1.5,0,1,1-1.5,1.5,1.5,1.5,0,0,1,1.5-1.5m0-1a2.5,2.5,0,1,0,2.5,2.5,2.5,2.5,0,0,0-2.5-2.5Z" fill="#738bec"/><circle cx="89.48" cy="38.23" r="2" fill="#fff"/><path d="M89.48,36.73a1.5,1.5,0,1,1-1.5,1.5,1.5,1.5,0,0,1,1.5-1.5m0-1a2.5,2.5,0,1,0,2.5,2.5,2.5,2.5,0,0,0-2.5-2.5Z" fill="#738bec"/><polygon points="55.03 62.5 57.29 51.99 65.48 45.15 75.63 51.52 83.59 48.49 99.77 48.49 111.02 62.5 100.45 76.91 85.88 81 75.5 84.39 67.98 75.53 68.65 66.46 55.03 62.5" fill="none" stroke="#ff7d80" stroke-miterlimit="10"/><circle cx="55.03" cy="62.5" r="2" fill="#fff"/><path d="M55,61a1.5,1.5,0,1,1-1.5,1.5A1.5,1.5,0,0,1,55,61m0-1a2.5,2.5,0,1,0,2.5,2.5A2.5,2.5,0,0,0,55,60Z" fill="#ff7d80"/><circle cx="57.29" cy="51.99" r="2" fill="#fff"/><path d="M57.29,50.49a1.5,1.5,0,1,1-1.5,1.5,1.5,1.5,0,0,1,1.5-1.5m0-1a2.5,2.5,0,1,0,2.5,2.5,2.5,2.5,0,0,0-2.5-2.5Z" fill="#ff7d80"/><circle cx="65.48" cy="45.15" r="2" fill="#fff"/><path d="M65.48,43.65a1.5,1.5,0,1,1-1.5,1.5,1.5,1.5,0,0,1,1.5-1.5m0-1a2.5,2.5,0,1,0,2.5,2.5,2.5,2.5,0,0,0-2.5-2.5Z" fill="#ff7d80"/><circle cx="75.63" cy="51.52" r="2" fill="#fff"/><path d="M75.63,50a1.5,1.5,0,1,1-1.5,1.5,1.5,1.5,0,0,1,1.5-1.5m0-1a2.5,2.5,0,1,0,2.5,2.5,2.5,2.5,0,0,0-2.5-2.5Z" fill="#ff7d80"/><circle cx="83.59" cy="48.49" r="2" fill="#fff"/><path d="M83.59,47a1.5,1.5,0,1,1-1.5,1.5,1.5,1.5,0,0,1,1.5-1.5m0-1a2.5,2.5,0,1,0,2.5,2.5,2.5,2.5,0,0,0-2.5-2.5Z" fill="#ff7d80"/><circle cx="99.77" cy="48.49" r="2" fill="#fff"/><path d="M99.77,47a1.5,1.5,0,1,1-1.5,1.5,1.5,1.5,0,0,1,1.5-1.5m0-1a2.5,2.5,0,1,0,2.5,2.5,2.5,2.5,0,0,0-2.5-2.5Z" fill="#ff7d80"/><circle cx="111.02" cy="62.5" r="2" fill="#fff"/><path d="M111,61a1.5,1.5,0,1,1-1.5,1.5A1.5,1.5,0,0,1,111,61m0-1a2.5,2.5,0,1,0,2.5,2.5A2.5,2.5,0,0,0,111,60Z" fill="#ff7d80"/><circle cx="100.45" cy="76.91" r="2" fill="#fff"/><path d="M100.45,75.41a1.5,1.5,0,1,1-1.5,1.5,1.5,1.5,0,0,1,1.5-1.5m0-1a2.5,2.5,0,1,0,2.5,2.5,2.5,2.5,0,0,0-2.5-2.5Z" fill="#ff7d80"/><circle cx="85.88" cy="81" r="2" fill="#fff"/><path d="M85.88,79.5a1.5,1.5,0,1,1-1.5,1.5,1.5,1.5,0,0,1,1.5-1.5m0-1a2.5,2.5,0,1,0,2.5,2.5,2.5,2.5,0,0,0-2.5-2.5Z" fill="#ff7d80"/><circle cx="75.5" cy="84.39" r="2" fill="#fff"/><path d="M75.5,82.89a1.5,1.5,0,1,1-1.5,1.5,1.5,1.5,0,0,1,1.5-1.5m0-1a2.5,2.5,0,1,0,2.5,2.5,2.5,2.5,0,0,0-2.5-2.5Z" fill="#ff7d80"/><circle cx="67.98" cy="75.53" r="2" fill="#fff"/><path d="M68,74a1.5,1.5,0,1,1-1.5,1.5A1.5,1.5,0,0,1,68,74m0-1a2.5,2.5,0,1,0,2.5,2.5A2.49,2.49,0,0,0,68,73Z" fill="#ff7d80"/><circle cx="68.65" cy="66.46" r="2" fill="#fff"/><path d="M68.65,65a1.5,1.5,0,1,1-1.5,1.5,1.5,1.5,0,0,1,1.5-1.5m0-1a2.5,2.5,0,1,0,2.5,2.5,2.5,2.5,0,0,0-2.5-2.5Z" fill="#ff7d80"/></svg>