<svg id="图层_1" data-name="图层 1" xmlns="http://www.w3.org/2000/svg" viewBox="0 0 150 150"><title>chart</title><path d="M144,1a5,5,0,0,1,5,5V144a5,5,0,0,1-5,5H6a5,5,0,0,1-5-5V6A5,5,0,0,1,6,1H144m0-1H6A6,6,0,0,0,0,6V144a6,6,0,0,0,6,6H144a6,6,0,0,0,6-6V6a6,6,0,0,0-6-6Z" fill="#e0e0e0"/><rect x="15" y="22" width="1" height="90" fill="#e0e0e0"/><rect x="15" y="111" width="120" height="1" fill="#e0e0e0"/><rect x="30.5" y="62" width="90" height="1" fill="#e0e0e0"/><rect x="30.5" y="62" width="90" height="1" transform="translate(138 -13) rotate(90)" fill="#e0e0e0"/><rect x="30.5" y="62" width="90" height="1" transform="translate(167.38 28.37) rotate(120)" fill="#e0e0e0"/><rect x="30.5" y="62" width="90" height="1" transform="translate(91.88 -34.13) rotate(60)" fill="#e0e0e0"/><rect x="30.5" y="62" width="90" height="1" transform="translate(172.13 78.88) rotate(150)" fill="#e0e0e0"/><rect x="30.5" y="62" width="90" height="1" transform="translate(41.37 -29.38) rotate(30)" fill="#e0e0e0"/><path d="M75.6,21l20.94,5.59,15.34,15.32,5.63,20.93-5.6,20.94L96.6,99.07,75.66,104.7,54.72,99.11,39.38,83.79,33.76,62.86l5.59-20.94L54.66,26.58,75.6,21m0-1L54.15,25.68,38.45,41.4,32.72,62.86l5.77,21.45L54.2,100l21.46,5.74L97.11,100l15.7-15.72,5.73-21.46-5.77-21.45L97.06,25.65,75.6,19.92Z" fill="#e0e0e0"/><path d="M75.6,27.86l17.49,4.67L105.9,45.32l4.69,17.48-4.67,17.48L93.14,93.09l-17.48,4.7L58.17,93.12,45.37,80.33l-4.7-17.48,4.67-17.48L58.13,32.56l17.47-4.7m0-1-18,4.83L44.44,44.85l-4.81,18,4.84,18L57.66,94l18,4.81,18-4.83L106.82,80.8l4.81-18-4.84-18L93.61,31.64l-18-4.81Z" fill="#e0e0e0"/><path d="M75.61,34.87l14,3.73L99.83,48.83l3.76,14-3.73,14L89.63,87l-14,3.76-14-3.74L51.43,76.82l-3.76-14,3.74-14L61.63,38.62l14-3.75m0-1-14.5,3.9L50.51,48.35l-3.87,14.5,3.89,14.49L61.15,88l14.5,3.87,14.5-3.9,10.6-10.62,3.88-14.5-3.9-14.49L90.11,37.7l-14.5-3.87Z" fill="#e0e0e0"/><path d="M75.61,41.81l10.51,2.81,7.7,7.68,2.83,10.51L93.84,73.32,86.15,81l-10.5,2.82L65.14,81l-7.7-7.68L54.62,62.84l2.8-10.51,7.69-7.7,10.5-2.82m0-1-11,3-8.06,8.08-3,11,3,11,8.08,8.06,11,2.95,11-3,8.07-8.07,2.94-11-3-11-8.08-8.07-11-2.94Z" fill="#e0e0e0"/><path d="M75.62,48.22l7.3,2,5.35,5.34,2,7.3-2,7.31-5.34,5.35-7.3,2-7.3-2L63,70.14l-2-7.3L63,55.53l5.34-5.35,7.3-2m0-1-7.82,2.1L62.08,55,60,62.84l2.1,7.82,5.73,5.72,7.82,2.09,7.82-2.11,5.72-5.72,2.09-7.83L89.17,55l-5.73-5.72-7.82-2.08Z" fill="#e0e0e0"/><path d="M75.62,55.28l3.78,1,2.76,2.76,1,3.77-1,3.77-2.76,2.77-3.77,1-3.78-1L69.1,66.6l-1-3.77,1-3.77,2.76-2.77,3.77-1m0-1L71.33,55.4,68.2,58.54l-1.15,4.29,1.15,4.29,3.15,3.14,4.29,1.15,4.29-1.16,3.14-3.14,1.14-4.29-1.15-4.29-3.14-3.14-4.3-1.15Z" fill="#e0e0e0"/><polygon points="50.25 62.5 47.75 46.58 60.78 37.68 75.5 32.12 90.92 35.83 101.5 47.67 104 62.5 97.25 75 86.67 81.91 75.5 82.31 65.75 79.38 57.25 73.13 50.25 62.5" fill="#738bec" stroke="#738bec" stroke-miterlimit="10" opacity="0.3"/><polygon points="50.25 62.5 47.75 46.58 60.78 37.68 75.5 32.12 90.92 35.83 101.5 47.67 104 62.5 97.25 75 86.67 81.91 75.5 82.31 65.75 79.38 57.25 73.13 50.25 62.5" fill="none" stroke="#738bec" stroke-miterlimit="10"/></svg>