<svg id="图层_1" data-name="图层 1" xmlns="http://www.w3.org/2000/svg" viewBox="0 0 150 150"><title>chart</title><path d="M144,1a5,5,0,0,1,5,5V144a5,5,0,0,1-5,5H6a5,5,0,0,1-5-5V6A5,5,0,0,1,6,1H144m0-1H6A6,6,0,0,0,0,6V144a6,6,0,0,0,6,6H144a6,6,0,0,0,6-6V6a6,6,0,0,0-6-6Z" fill="#e0e0e0"/><rect x="16" y="21" width="1" height="90" fill="#e0e0e0"/><rect x="42" y="21" width="1" height="90" fill="#e0e0e0"/><rect x="68" y="21" width="1" height="90" fill="#e0e0e0"/><rect x="94" y="21" width="1" height="90" fill="#e0e0e0"/><rect x="120" y="21" width="1" height="90" fill="#e0e0e0"/><rect x="16" y="110" width="120" height="1" fill="#e0e0e0"/><rect x="16" y="90" width="120" height="1" fill="#e0e0e0"/><rect x="16" y="69" width="120" height="1" fill="#e0e0e0"/><rect x="16" y="48" width="120" height="1" fill="#e0e0e0"/><rect x="16" y="27" width="120" height="1" fill="#e0e0e0"/><circle cx="41.5" cy="48.5" r="7.5" fill="#f87278"/><circle cx="69.5" cy="56.5" r="5.5" fill="#738bec"/><circle cx="53.5" cy="85.5" r="5.5" fill="#fbc43e"/><circle cx="104" cy="78" r="10" fill="#8cd57f"/></svg>