<svg id="图层_1" data-name="图层 1" xmlns="http://www.w3.org/2000/svg" viewBox="0 0 50 50"><title>形状</title><path id="shape13" d="M8.63,17.68a8.88,8.88,0,0,1,2.59-6.17,9,9,0,0,1,6-2.44,9,9,0,0,1,4.5,1.31,5.94,5.94,0,0,0,6.6,0,8.6,8.6,0,0,1,13.06,7.3,9,9,0,0,1-1.29,4.47,5.94,5.94,0,0,0,0,6.59,9.64,9.64,0,0,1,1.29,4.52s0,3.91-2.67,6.23a9.84,9.84,0,0,1-5.91,2.34,8.3,8.3,0,0,1-4.48-1.32,5.83,5.83,0,0,0-6.6,0,8.83,8.83,0,0,1-4.5,1.32,8.87,8.87,0,0,1-5.93-2.34,9,9,0,0,1-2.65-6.23,8.17,8.17,0,0,1,1.31-4.52,5.68,5.68,0,0,0,0-6.59A8.36,8.36,0,0,1,8.63,17.68Z" fill="#6e8cd7" stroke="#6e8cd7"/></svg>