<svg id="图层_1" data-name="图层 1" xmlns="http://www.w3.org/2000/svg" viewBox="0 0 50 50"><title>形状</title><path d="M27.07,8.94h0a2.65,2.65,0,0,0,3.2.73h0A2.67,2.67,0,0,1,34,11.46h0a2.64,2.64,0,0,0,2.57,2h0a2.67,2.67,0,0,1,2.58,3.24h0a2.65,2.65,0,0,0,1.42,3h0a2.65,2.65,0,0,1,.92,4h0a2.66,2.66,0,0,0,0,3.29h0a2.66,2.66,0,0,1-.92,4h0a2.65,2.65,0,0,0-1.42,3h0a2.66,2.66,0,0,1-2.58,3.23h0a2.66,2.66,0,0,0-2.57,2h0a2.67,2.67,0,0,1-3.73,1.8h0a2.64,2.64,0,0,0-3.2.73h0a2.67,2.67,0,0,1-4.14,0h0a2.64,2.64,0,0,0-3.2-.73h0A2.67,2.67,0,0,1,16,39.3h0a2.66,2.66,0,0,0-2.57-2h0A2.66,2.66,0,0,1,10.85,34h0a2.65,2.65,0,0,0-1.42-3h0a2.66,2.66,0,0,1-.92-4h0a2.66,2.66,0,0,0,0-3.29h0a2.65,2.65,0,0,1,.92-4h0a2.65,2.65,0,0,0,1.42-3h0a2.67,2.67,0,0,1,2.58-3.24h0a2.64,2.64,0,0,0,2.57-2h0a2.67,2.67,0,0,1,3.73-1.79h0a2.65,2.65,0,0,0,3.2-.73h0A2.66,2.66,0,0,1,27.07,8.94Z" fill="#6e8cd7" stroke="#6e8cd7"/></svg>