<svg id="图层_1" data-name="图层 1" xmlns="http://www.w3.org/2000/svg" viewBox="0 0 50 50"><title>形状</title><path id="shape175" d="M6.86,32A4.94,4.94,0,0,1,2.93,27,5.11,5.11,0,0,1,6.86,22s-2.13-4.07,2.62-4.67a5.35,5.35,0,0,1,2.58-4.9,4.9,4.9,0,0,1,4.07-.44c1.88.57,4.81,1.8,4.81,1.8A4.41,4.41,0,0,1,25,11.6a4.31,4.31,0,0,1,4.06,2.14,49.72,49.72,0,0,1,4.81-1.8,5,5,0,0,1,4.07.44,5.45,5.45,0,0,1,2.58,4.9c1.68.17,4.14,1.2,2.62,4.67A5,5,0,0,1,47.07,27,4.9,4.9,0,0,1,43.15,32c1.5,3.46-.95,4.49-2.63,4.66a5.45,5.45,0,0,1-2.58,4.9,5.1,5.1,0,0,1-4.07.44c-1.08-.23-4.81-1.8-4.81-1.8A4.31,4.31,0,0,1,25,42.29a4.43,4.43,0,0,1-4.06-2.14S18,41.38,16.13,42a4.94,4.94,0,0,1-4.07-.44,5.36,5.36,0,0,1-2.58-4.9C4.87,36,6.74,32.18,6.86,32Z" fill="#6e8cd7" stroke="#6e8cd7"/></svg>