<svg id="图层_1" data-name="图层 1" xmlns="http://www.w3.org/2000/svg" viewBox="0 0 50 50"><title>形状</title><path id="shape107" d="M13.84,12.66h7.51s2.7-.23,3.65-2.13c1.07,2,3.68,2.13,3.68,2.13h7.47a5.25,5.25,0,0,1,5.24,5.24v3.54s.25,2.7,2.13,3.67c-1.88.92-2.13,3.65-2.13,3.65v3.57a5.24,5.24,0,0,1-5.24,5.23H28.68S26,37.85,25,39.69c-.87-1.87-3.65-2.13-3.65-2.13H13.84a5.23,5.23,0,0,1-5.23-5.23V28.76s-.24-2.65-2.13-3.65a5.09,5.09,0,0,0,2.13-3.67V17.9A5.24,5.24,0,0,1,13.84,12.66Z" fill="#6e8cd7" stroke="#6e8cd7"/></svg>