<svg id="图层_1" data-name="图层 1" xmlns="http://www.w3.org/2000/svg" viewBox="0 0 50 50"><title>形状</title><path id="shape105" d="M16.84,16.9a4.37,4.37,0,0,1-1-4.68C17,9.61,20.61,8.82,25,8.82s8,.9,9.06,3.4a4.24,4.24,0,0,1-.84,4.68,4.24,4.24,0,0,1,4.66-.82c1.86.75,3.42,3.38,3.42,9S40,33.29,37.88,34.27a4.74,4.74,0,0,1-4.74-.82,4.21,4.21,0,0,1,.94,4.75c-.52,1.26-2.25,3.39-9.12,3.39s-8.43-2.1-9.07-3.39a4.43,4.43,0,0,1,.89-4.78,4.29,4.29,0,0,1-4.68.85c-1-.47-3.4-1.81-3.4-9.06s2.22-8.66,3.4-9.13A4.54,4.54,0,0,1,16.84,16.9Z" fill="#6e8cd7" stroke="#6e8cd7"/></svg>