<svg id="图层_1" data-name="图层 1" xmlns="http://www.w3.org/2000/svg" viewBox="0 0 50 50"><title>形状</title><path id="shape190" d="M13.68,17.2A5.19,5.19,0,0,1,15,15a4.69,4.69,0,0,1,2.33-1.24,7.36,7.36,0,0,1,1.14-.11,6.57,6.57,0,0,1,13.13,0,5.73,5.73,0,0,1,2.32.54A4.55,4.55,0,0,1,36,16.3a5.21,5.21,0,0,1,.47,2.23,6.58,6.58,0,0,1,0,13.15A4.2,4.2,0,0,1,36,33.76a4.77,4.77,0,0,1-2.28,2.34,6,6,0,0,1-2.2.48,6.56,6.56,0,0,1-13.12,0,4.65,4.65,0,0,1-3.23-1.11,4.89,4.89,0,0,1-1.67-3.76,6.57,6.57,0,0,1,0-13.14A6.62,6.62,0,0,1,13.68,17.2Z" fill="#6e8cd7" stroke="#6e8cd7"/></svg>