<svg id="图层_1" data-name="图层 1" xmlns="http://www.w3.org/2000/svg" viewBox="0 0 50 50"><title>形状</title><path id="shape30" d="M3.56,27.11s3.27-1,5.21-6.86,6-11.54,17.86-11.38a13.56,13.56,0,0,1,6.77,2.66c2.68,2.33,5.26,3.87,6.27,3s2-2.75,4.17-3.3c.67-.22,1.6,0,1.8-.22s.62,0,.68.54.31,2.87-.38,2.77-1-.72-2-.72A6.72,6.72,0,0,0,40,16a3.46,3.46,0,0,0,.56,2.67c.92,1.34,3,5.32,2.29,9.24A17.47,17.47,0,0,1,30.2,40.56C22.64,42.27,16.25,42.18,10.93,37A21.49,21.49,0,0,1,8,32.16C6.75,29.28,5.85,27.62,3.56,27.11Z" fill="#6e8cd7" stroke="#6e8cd7"/></svg>