<svg id="图层_1" data-name="图层 1" xmlns="http://www.w3.org/2000/svg" viewBox="0 0 50 50"><title>形状</title><path id="shape35" d="M6.18,15.39s5.54,2,8.29,0,1.85-3.86,1.85-3.86a4.73,4.73,0,0,0,5.57-.34C24.88,9,25,4.55,25,4.55s.07,4.42,3.11,6.64a4.72,4.72,0,0,0,5.57.34s-.92,1.83,1.85,3.86,8.29,0,8.29,0-4.2,2.45-4.36,6.41,2.29,3.64,2.29,3.64-2.59.45-2.29,4.33,4.36,6.87,4.36,6.87-5.85-1.93-8.29-.87a2.68,2.68,0,0,0-1.85,3.12,4.67,4.67,0,0,0-5.57.34c-3,2.24-3.11,6.64-3.11,6.64s-.11-4.35-3.11-6.64a4.59,4.59,0,0,0-5.57-.34,2.66,2.66,0,0,0-1.85-3.12c-2.45-1.05-8.29.87-8.29.87s4.05-3,4.36-6.87-2.28-4.33-2.28-4.33,2.06.19,2.28-2.74C10.9,18,6.18,15.39,6.18,15.39Z" fill="#6e8cd7" stroke="#6e8cd7"/></svg>