<svg id="图层_1" data-name="图层 1" xmlns="http://www.w3.org/2000/svg" viewBox="0 0 50 50"><title>形状</title><path id="shape32" d="M17.61,12.87a9.72,9.72,0,0,1,3.85-1.71l.22-2.82a1.2,1.2,0,0,1,1.18-1h4.58s.94.18.94,1,.19,2.92.19,2.92,3.45,1.14,3.85,1.67l2.44-2.11s.36-.33,1.31.27a18.3,18.3,0,0,1,3.23,3.38,1.15,1.15,0,0,1-.22,1.36c-.61.74-1.74,2-1.74,2a13.84,13.84,0,0,1,1.53,4l3.1.17a9.53,9.53,0,0,1,.8,1.55s.1,3.2,0,3.2,0,1.84-1.1,1.84l-2.84.22A9.79,9.79,0,0,1,37.4,32.5l1.92,2.41s.64.43.07,1.36a16.33,16.33,0,0,1-3.52,3.39,1,1,0,0,1-1.53-.31l-1.92-1.71a17.86,17.86,0,0,1-3.86,1.56s-.06.7-.2,3c0,0-.05.92-1.8.92,0,0-3.14.1-3.75,0a1.12,1.12,0,0,1-1.18-1.27L21.5,39.3s-3.58-1.23-3.84-1.8l-2,2a1,1,0,0,1-1.57.09s-3-2.33-3.5-3.51a1.15,1.15,0,0,1,.27-1.28l1.57-1.89s.13-.08-.09-.79a19.56,19.56,0,0,1-1.22-3.34L8.27,28.5s-1,.17-1-1.79c0,0-.3-3.2,0-3.2,0,0,.18-1.77,1.14-1.77h2.79a12.67,12.67,0,0,1,1.53-4l-2.09-2.28s-.58-.68.34-1.54a13.84,13.84,0,0,1,3.15-3,1.05,1.05,0,0,1,1.57.09Z" fill="#6e8cd7" stroke="#6e8cd7"/></svg>