<svg id="图层_1" data-name="图层 1" xmlns="http://www.w3.org/2000/svg" viewBox="0 0 50 50"><title>边框</title><path d="M31.71,42.31a5.51,5.51,0,0,1-3.45-1.52,5,5,0,0,0-3.59-1.47,4.31,4.31,0,0,0-3,1.34c-.94.84-2,1.78-5,1.58s-4.62-2.55-4.5-6.28c0-.21,0-.38,0-.54C11.13,35.51,9,35,6.54,30.57,6.5,30.47,5,27,2,26.17a8.1,8.1,0,0,0,3.89-4c1.76-3.4,3-5.41,6.7-6.05a6.13,6.13,0,0,1,2.58-5.86C18.52,8,22.06,11,23.23,12l.13.11c.94.78,1.1.82,1.31.83s.68-.26,1.22-.8c2.26-2.26,4.54-3.15,6.8-2.67,3.18.67,4.36,4.16,4.24,6.62,1.27.12,4.44.94,6.51,5.9a6.1,6.1,0,0,0,3.31,3.43l1.49.62-1.59.26s-1.56.34-3.17,3.28l-.46.86c-1.47,2.74-2.76,5.14-5.81,4.91.13,1.48.08,5.14-3.56,6.59A5.21,5.21,0,0,1,31.71,42.31Zm-6.78-3.92a6.09,6.09,0,0,1,3.9,1.67c1.27,1,2.36,1.82,4.48,1,3.86-1.54,2.94-6,2.9-6.16l-.14-.68.68.12c2.84.5,3.94-1.54,5.45-4.36l.47-.86A8.64,8.64,0,0,1,45.5,25.8a6.92,6.92,0,0,1-2.93-3.52C40.26,16.75,36.51,17,36.46,17l-.56,0,.07-.56c.24-1.82-.53-5.47-3.47-6.09S27.33,12,26.59,12.73s-1.4,1.13-2,1.11-.85-.21-1.87-1.05l-.13-.11c-1.79-1.51-4.46-3.32-6.94-1.66a5.24,5.24,0,0,0-2.12,5.38l.12.49-.51.07c-3.66.49-4.68,2.18-6.46,5.63A8.46,8.46,0,0,1,3.92,26a8.71,8.71,0,0,1,3.46,4.18c2.35,4.26,4.39,4.54,5.08,4.26a.41.41,0,0,1,.33-.12h.39l.06.39a.43.43,0,0,1,0,.28c-.11.5-.38,3.22.84,4.92a3.43,3.43,0,0,0,2.7,1.4c2.58.18,3.41-.56,4.28-1.34a5.2,5.2,0,0,1,3.59-1.57Z" fill="#6e8cd7"/></svg>