<svg id="图层_1" data-name="图层 1" xmlns="http://www.w3.org/2000/svg" viewBox="0 0 50 50"><title>边框</title><path d="M39.94,42.63A7.15,7.15,0,0,1,35.19,41,5.26,5.26,0,0,1,31.4,42a18.29,18.29,0,0,1-4.88-1.71c-.27-.13-.47-.23-.58-.27a1.15,1.15,0,0,0-.92,0c-.75.33-4.59,2-6.59,2a6.2,6.2,0,0,1-3.24-1.08c-.73.6-2.74,1.83-6.65,1.59l-.46,0V42c0-.18,0-4.37,1.76-6.51A6,6,0,0,1,9,31.69a12.71,12.71,0,0,1,.76-2.58,8.68,8.68,0,0,0,.76-3.18,9.19,9.19,0,0,0-1.08-3.85A11.15,11.15,0,0,1,9,20.9c-.33-1-.27-4,.63-5.27C9,15,8.05,13.28,8.08,9.14V8.71l.43,0a13.36,13.36,0,0,1,6.54,1.22,11.11,11.11,0,0,1,3.83-1.18,9,9,0,0,1,2.9.74,10.8,10.8,0,0,0,3.32.86,10.72,10.72,0,0,0,3.38-.86,9.11,9.11,0,0,1,2.81-.74,7.44,7.44,0,0,1,3.17.89l.65.3a10.3,10.3,0,0,1,6.62-1.16l.4,0v.42c0,.52.05,4.88-1.57,6.46a8.65,8.65,0,0,1,.93,3.91,5.48,5.48,0,0,1-.95,3.29,3.72,3.72,0,0,0-.67,1.84,8.08,8.08,0,0,0,.85,4.69,6.62,6.62,0,0,1-.24,6.14c.61.76,1.9,2.84,1.39,6.53l0,.32-.32.08A7,7,0,0,1,39.94,42.63Zm-4.73-3,.33.33A6.57,6.57,0,0,0,41,41.6c.41-3.9-1.35-5.6-1.43-5.67l-.33-.31.28-.35a5.5,5.5,0,0,0,.36-5.45,9.1,9.1,0,0,1-.94-5.16,4.62,4.62,0,0,1,.81-2.28,4.56,4.56,0,0,0,.82-2.77,7.17,7.17,0,0,0-1-3.77l-.3-.41.44-.28c1.08-.66,1.48-3.57,1.49-5.51a9.19,9.19,0,0,0-5.74,1.18l-.2.15L35,10.88c-.31-.11-.62-.26-.95-.41a6.6,6.6,0,0,0-2.76-.8,8.64,8.64,0,0,0-2.48.68,11.48,11.48,0,0,1-3.71.92,11.39,11.39,0,0,1-3.65-.92,8.76,8.76,0,0,0-2.55-.68,10.92,10.92,0,0,0-3.64,1.19L15,11l-.22-.13A12,12,0,0,0,9,9.61c.05,4.76,1.48,5.53,1.5,5.54l.8.4-.76.46c-.69.39-1.05,3.43-.68,4.59a10.18,10.18,0,0,0,.46,1.09,10,10,0,0,1,1.16,4.24,9.63,9.63,0,0,1-.82,3.52A11.57,11.57,0,0,0,10,31.84a5.24,5.24,0,0,0,.84,3.45l.24.33-.28.29c-1.38,1.41-1.66,4.51-1.72,5.67,4.17.12,5.72-1.57,5.73-1.58l.31-.36.37.31a5.33,5.33,0,0,0,3,1.1c1.45,0,4.57-1.16,6.17-1.88a2.19,2.19,0,0,1,1.65,0c.11,0,.35.15.65.3a17.5,17.5,0,0,0,4.59,1.63A4.52,4.52,0,0,0,34.87,40Z" fill="#6e8cd7"/></svg>