<svg id="图层_1" data-name="图层 1" xmlns="http://www.w3.org/2000/svg" viewBox="0 0 50 50"><title>边框</title><path d="M25.12,45.76c-.7,0-1.18-.77-1.24-.86l-.36-.7c-.16-.3-.32-.61-.35-.68a2.4,2.4,0,0,0-1.05-.77,6.4,6.4,0,0,1-1.64-.83,3.23,3.23,0,0,1-1.06-1.53,1.93,1.93,0,0,0-.64-1,3.2,3.2,0,0,0-.78-.41,3.71,3.71,0,0,1-1.78-1.36,5,5,0,0,1-.58-1,2.67,2.67,0,0,0-1.27-1.36A3.17,3.17,0,0,1,12.27,33c0-.09-.22-1-1.68-1.58h0A3,3,0,0,1,8.77,29.7a3.49,3.49,0,0,0-1.2-1.88,2.41,2.41,0,0,0-.67-.32,2,2,0,0,1-.4-.17,2.43,2.43,0,0,1-1.25-1.48v-.09A1.69,1.69,0,0,1,6,24.54,3.56,3.56,0,0,1,7,24a2.09,2.09,0,0,0,.67-.35,3.22,3.22,0,0,0,1-1.51,3.08,3.08,0,0,1,1.95-2,2.69,2.69,0,0,0,1.7-1.57,3.16,3.16,0,0,1,2.1-2.19A2.23,2.23,0,0,0,15.62,15,4.14,4.14,0,0,1,17,13.15a8,8,0,0,1,1-.55,3.6,3.6,0,0,0,.7-.38,3,3,0,0,0,.84-1.43,3.92,3.92,0,0,1,2.57-2,1.79,1.79,0,0,0,1-.78c.07-.1.19-.35.33-.61s.31-.62.4-.76A1.81,1.81,0,0,1,25,5.77h.16a1.67,1.67,0,0,1,1.18.87c.12.22.23.44.33.65a7,7,0,0,0,.36.67,2.27,2.27,0,0,0,1.1.82l.23.1a3.68,3.68,0,0,1,2.28,1.89c.1.23.17.41.23.57a1.56,1.56,0,0,0,.6.87,10.66,10.66,0,0,1,1.77.93,5,5,0,0,1,1.35,1.79,2.6,2.6,0,0,0,1.26,1.41A3.25,3.25,0,0,1,38,18.47,2.26,2.26,0,0,0,39.49,20l.2.08a3.2,3.2,0,0,1,2,2.06,2.55,2.55,0,0,0,.8,1.33l.18.15a2.09,2.09,0,0,0,.67.35,2.74,2.74,0,0,1,1,.6A1.75,1.75,0,0,1,45,25.76,2,2,0,0,1,44.3,27a3.15,3.15,0,0,1-.8.5l-.36.14a1.66,1.66,0,0,0-.53.27,2.66,2.66,0,0,0-.94,1.4,3.6,3.6,0,0,1-1,1.55,3.68,3.68,0,0,1-1.09.64A2.67,2.67,0,0,0,38,33a3.3,3.3,0,0,1-2.14,2.19h0a2.71,2.71,0,0,0-1.23,1.35,5.72,5.72,0,0,1-1.32,1.84,4.57,4.57,0,0,1-1,.54,2.82,2.82,0,0,0-.55.27c-.39.27-.53.37-.91,1.29h0a3.37,3.37,0,0,1-1.68,1.88,10.37,10.37,0,0,1-1,.39,2.29,2.29,0,0,0-1,.79,8.36,8.36,0,0,0-.52,1c-.08.16-.14.29-.2.4A1.55,1.55,0,0,1,25.12,45.76Zm-18.91-20a1.68,1.68,0,0,0,.75.74,1.74,1.74,0,0,0,.25.11,3.58,3.58,0,0,1,.88.42,4.29,4.29,0,0,1,1.57,2.35,2.14,2.14,0,0,0,1.24,1.17c2,.83,2.29,2.2,2.3,2.26a2.1,2.1,0,0,0,1.44,1.47l.12,0a3.56,3.56,0,0,1,1.77,1.9A5,5,0,0,0,17,37a2.8,2.8,0,0,0,1.28,1,4.53,4.53,0,0,1,1,.53,2.79,2.79,0,0,1,1,1.55,2.29,2.29,0,0,0,.71,1,5.05,5.05,0,0,0,1.42.71A3.22,3.22,0,0,1,24,43.08l.36.68.35.68c.09.15.31.36.4.36s.18,0,.43-.4l.15-.3A10.2,10.2,0,0,1,26.27,43a3.1,3.1,0,0,1,1.56-1.19c.23-.07.86-.35.86-.35a2.45,2.45,0,0,0,1.19-1.33c.48-1.19.75-1.41,1.23-1.74a3.79,3.79,0,0,1,.78-.39,3.52,3.52,0,0,0,.84-.43,4.85,4.85,0,0,0,1-1.45,3.52,3.52,0,0,1,1.79-1.86,2.33,2.33,0,0,0,1.53-1.54,3.62,3.62,0,0,1,2.27-2.22,3.26,3.26,0,0,0,.8-.48A2.79,2.79,0,0,0,40.76,29a3.54,3.54,0,0,1,1.3-1.89,2.61,2.61,0,0,1,.74-.38l.32-.13a1.79,1.79,0,0,0,.51-.3,2,2,0,0,0,.41-.54,2.51,2.51,0,0,0-.41-.47,1.8,1.8,0,0,0-.69-.38,3.18,3.18,0,0,1-1-.54l-.15-.13a3.42,3.42,0,0,1-1.08-1.73A2.21,2.21,0,0,0,39.39,21l-.23-.1a3.2,3.2,0,0,1-2.1-2.15,2.25,2.25,0,0,0-1.47-1.51l-.11,0a3.51,3.51,0,0,1-1.7-1.84,4,4,0,0,0-1.09-1.47,10.15,10.15,0,0,0-1.63-.84L30.94,13a2.55,2.55,0,0,1-.92-1.3l-.22-.54A2.85,2.85,0,0,0,28,9.76l-.23-.1a3.08,3.08,0,0,1-1.5-1.15,5.51,5.51,0,0,1-.44-.8c-.1-.19-.2-.41-.32-.62a.77.77,0,0,0-.41-.36,1,1,0,0,0-.43.39c-.07.12-.22.41-.35.68s-.32.62-.38.71a2.81,2.81,0,0,1-1.55,1.17,3,3,0,0,0-1.95,1.45A4,4,0,0,1,19.34,13a4.54,4.54,0,0,1-.91.52,7.23,7.23,0,0,0-.91.48,3.35,3.35,0,0,0-1,1.33,3.12,3.12,0,0,1-1.84,2,2.2,2.2,0,0,0-1.51,1.55A3.54,3.54,0,0,1,11,21,2.17,2.17,0,0,0,9.51,22.5,4.17,4.17,0,0,1,8.3,24.34a2.88,2.88,0,0,1-1,.54,2.8,2.8,0,0,0-.75.39A1.23,1.23,0,0,0,6.21,25.75Z" fill="#6e8cd7"/></svg>