<svg id="图层_1" data-name="图层 1" xmlns="http://www.w3.org/2000/svg" viewBox="0 0 50 50"><title>边框</title><path d="M21.12,9.61,5.33,25.4,21.12,41.19a5.54,5.54,0,0,0,7.83,0L44.74,25.4,28.94,9.61A5.53,5.53,0,0,0,21.12,9.61Zm7.12,30.87a4.54,4.54,0,0,1-6.42,0L6.74,25.4,21.83,10.32a4.53,4.53,0,0,1,6.41,0L43.32,25.4Z" fill="#6e8cd7"/><path d="M29.25,8.59a6,6,0,0,0-8.43,0L4.08,25.33,4,25.4,20.81,42.21a6,6,0,0,0,8.45,0L46,25.47l.07-.07Zm-.13,33.48a5.78,5.78,0,0,1-8.17,0L4.29,25.4,21,8.73a5.78,5.78,0,0,1,8.15,0L45.78,25.4Z" fill="#6e8cd7"/></svg>