<svg id="图层_1" data-name="图层 1" xmlns="http://www.w3.org/2000/svg" viewBox="0 0 50 50"><title>边框</title><path d="M25.06,44.9a7.46,7.46,0,0,1-7.46-6.83,5.49,5.49,0,0,1-5.22-5.22,7.48,7.48,0,0,1,0-14.91,5.94,5.94,0,0,1,.15-1.1h0A5.91,5.91,0,0,1,14,14.29a5.37,5.37,0,0,1,2.73-1.45,5.48,5.48,0,0,1,.86-.11,7.47,7.47,0,0,1,14.89,0,6.09,6.09,0,0,1,2.26.61,5.32,5.32,0,0,1,2.42,2.45,5.86,5.86,0,0,1,.55,2.15,7.49,7.49,0,0,1,0,14.92,5.19,5.19,0,0,1-.47,2,5.58,5.58,0,0,1-2.67,2.73,6.65,6.65,0,0,1-2.09.53A7.48,7.48,0,0,1,25.06,44.9Zm-6.54-7.83v.5a6.52,6.52,0,0,0,13,0v-.45H32a6,6,0,0,0,2.14-.46,4.65,4.65,0,0,0,2.21-2.27,4.18,4.18,0,0,0,.38-2l-.06-.52h.52a6.53,6.53,0,0,0,0-13.06l-.47,0v-.47a5.12,5.12,0,0,0-.45-2.15,4.38,4.38,0,0,0-2-2.05,5.7,5.7,0,0,0-2.25-.52H31.6l0-.46a6.52,6.52,0,0,0-13,0v.45h-.46a6.91,6.91,0,0,0-1.12.11A4.5,4.5,0,0,0,14.7,15a4.88,4.88,0,0,0-1.24,2.13,6.37,6.37,0,0,0-.12,1.29v.46l-.46,0a6.53,6.53,0,0,0,0,13.05h.47v.47A4.73,4.73,0,0,0,14.92,36,4.53,4.53,0,0,0,18,37.11Z" fill="#6e8cd7"/></svg>