<svg id="图层_1" data-name="图层 1" xmlns="http://www.w3.org/2000/svg" viewBox="0 0 50 50"><title>边框</title><path d="M25.32,44.77h-.25c-.26,0-.32-.07-.81-.67a6.07,6.07,0,0,0-.43-.5,5.6,5.6,0,0,0-2.56-1H17.78A5.88,5.88,0,0,1,12,36.86V34.58a9.19,9.19,0,0,1-6.75-9,9.19,9.19,0,0,1,6.75-9V14.28a5.9,5.9,0,0,1,5.75-5.79h3.61a5,5,0,0,0,2.54-1c.06-.06.46-.55.78-1l.4-.5.39.51c.31.4.7.89.78,1a5.56,5.56,0,0,0,2.6,1h3.52a5.9,5.9,0,0,1,5.79,5.76v2.29a9.19,9.19,0,0,1,6.75,9,9.19,9.19,0,0,1-6.75,9v2.25a5.87,5.87,0,0,1-5.76,5.78H28.76a5,5,0,0,0-2.5,1c-.07.06-.47.55-.79,1Zm-4-3.15a6.53,6.53,0,0,1,3.11,1.21,4.79,4.79,0,0,1,.56.64l0,0a7.25,7.25,0,0,1,.56-.66,6.17,6.17,0,0,1,3.08-1.22h3.67a4.91,4.91,0,0,0,4.79-4.82v-3l.38-.1a8.4,8.4,0,0,0,0-16.3l-.38-.1v-3a4.92,4.92,0,0,0-4.82-4.79H28.76A6.55,6.55,0,0,1,25.6,8.27a4.12,4.12,0,0,1-.53-.62,4.26,4.26,0,0,1-.53.61,6.13,6.13,0,0,1-3.12,1.23H17.78A4.92,4.92,0,0,0,13,14.32v3l-.38.1a8.4,8.4,0,0,0,0,16.3l.38.1v3a4.91,4.91,0,0,0,4.81,4.8Z" fill="#6e8cd7"/></svg>