<svg id="图层_1" data-name="图层 1" xmlns="http://www.w3.org/2000/svg" viewBox="0 0 50 50"><title>边框</title><path d="M25.4,45.4l-.89,0A4.81,4.81,0,0,0,23,43h0A13.21,13.21,0,0,0,19.45,41a10.31,10.31,0,0,1-2.34-1.14,6.61,6.61,0,0,1-2.19-4.34,6.78,6.78,0,0,1-4.35-2.18A8.49,8.49,0,0,1,9.43,31a9,9,0,0,0-1.92-3.5A4.21,4.21,0,0,0,5.15,26l0-.9a5,5,0,0,0,2.32-1.54A9.73,9.73,0,0,0,9.38,20a8,8,0,0,1,1.18-2.34,6.57,6.57,0,0,1,4.31-2.15,6.7,6.7,0,0,1,2.18-4.36,6.71,6.71,0,0,1,2-1,11.91,11.91,0,0,0,3.28-1.58A4.77,4.77,0,0,0,24.5,5.4l.92.06s0,1.08,1.58,2.61h0A12.74,12.74,0,0,0,30.54,10a7.94,7.94,0,0,1,2.31,1.1A6.56,6.56,0,0,1,35,15.44a6.73,6.73,0,0,1,4.35,2.19A8,8,0,0,1,40.52,20a10.72,10.72,0,0,0,1.88,3.49,4.52,4.52,0,0,0,2.66,1.62L45,26s-1.28,0-2.72,1.78a11.54,11.54,0,0,0-1.8,3.47h0A6,6,0,0,1,35,35.58a6.75,6.75,0,0,1-2.37,4.48,7.09,7.09,0,0,1-2.2,1h0a11.5,11.5,0,0,0-3.36,1.82A5,5,0,0,0,25.4,45.4ZM6.48,25.5A6,6,0,0,1,8.2,26.9a10,10,0,0,1,2.11,3.85,7.11,7.11,0,0,0,1,2.08c1.26,1.66,4,1.86,4.06,1.86l.4,0,0,.4a5.88,5.88,0,0,0,1.87,4.05,9.58,9.58,0,0,0,2.09,1,13.46,13.46,0,0,1,3.81,2.07A6.47,6.47,0,0,1,25,44a6.06,6.06,0,0,1,1.57-1.88,12.1,12.1,0,0,1,3.68-2,6.43,6.43,0,0,0,1.9-.87,6.1,6.1,0,0,0,2-4.18l0-.41.4,0c4.26-.33,5-3.56,5-3.7a12.28,12.28,0,0,1,2-3.83,6.55,6.55,0,0,1,2-1.67,6.4,6.4,0,0,1-1.79-1.45,11.45,11.45,0,0,1-2.08-3.86,7.33,7.33,0,0,0-1-2c-1.33-1.71-4-1.87-4.07-1.87l-.4,0,0-.4a5.74,5.74,0,0,0-1.85-4.06,6.63,6.63,0,0,0-2-1,13.59,13.59,0,0,1-3.89-2.12A7.7,7.7,0,0,1,25,7a6.91,6.91,0,0,1-2.11,2.32A13,13,0,0,1,19.34,11a5.91,5.91,0,0,0-1.69.86,6,6,0,0,0-1.89,4.07v.41l-.41,0a5.68,5.68,0,0,0-4.1,1.89,7,7,0,0,0-1,2,10.77,10.77,0,0,1-2.14,3.94A7.15,7.15,0,0,1,6.48,25.5Z" fill="#6e8cd7"/></svg>