<svg id="图层_1" data-name="图层 1" xmlns="http://www.w3.org/2000/svg" viewBox="0 0 50 50"><title>边框</title><path d="M25.11,43.15c-2.5,0-6.75-2.77-6.93-2.89C10.36,34.36,9.9,24.66,9.73,21l0-.33a64,64,0,0,1,0-6.46V14l5.65-6.38H34.83L40.41,14l0,.14a44.2,44.2,0,0,1,0,6.52c-.28,14.3-8,19.25-8.35,19.45C32,40.25,27.61,43.15,25.11,43.15ZM10.7,14.44c0,.69-.13,3.33,0,6.18l0,.33c.17,3.53.61,12.89,8,18.5,0,0,4.15,2.7,6.35,2.7s6.42-2.83,6.46-2.86,7.64-4.91,7.9-18.65a48.76,48.76,0,0,0,0-6.18l-5.09-5.8H15.83Z" fill="#6e8cd7"/></svg>