<svg id="图层_1" data-name="图层 1" xmlns="http://www.w3.org/2000/svg" viewBox="0 0 50 50"><title>边框</title><path d="M25.17,43.7l-.38-.41c-1.34-1.44-2.95-2.31-7.5-4-4.87-1.87-7.25-7.25-6.2-14A15.73,15.73,0,0,0,9.56,15l-.19-.3.24-.26c.15-.17,3.79-4.05,8.15-3.72,3.88-3.13,7.24-3,7.38-3s3.2-.16,7.34,3.05c4.34-.4,8,3.55,8.17,3.72l.22.25L40.7,15c-2.65,4.51-1.56,10.14-1.54,10.19,1.64,11.51-6.15,14-6.23,14.06s-5.95,1.93-7.43,4ZM10.51,14.85A16.93,16.93,0,0,1,12,25.36c-1,6.33,1.17,11.33,5.62,13S23.71,41,25.1,42.3c2-2.12,7.32-3.84,7.56-3.91s7.12-2.36,5.59-13c0-.21-1.12-5.76,1.49-10.51-.86-.83-4-3.58-7.35-3.18l-.18,0-.15-.12c-3.92-3.09-6.88-3-6.91-3s-3.29-.06-7,3l-.15.12-.19,0C14.46,11.32,11.37,14,10.51,14.85Z" fill="#6e8cd7"/></svg>