<svg id="图层_1" data-name="图层 1" xmlns="http://www.w3.org/2000/svg" viewBox="0 0 50 50"><title>边框</title><path d="M25.15,42.23h-.1A10.65,10.65,0,0,1,16.39,38L8,23.53a10.43,10.43,0,0,1,.4-9.8c2-3.65,4.81-5.5,8.38-5.5H33.36a9.56,9.56,0,0,1,8.39,5.52c2.79,5.63.49,9.62.39,9.79L33.71,38A10.36,10.36,0,0,1,25.15,42.23ZM8.8,23.07l8.37,14.45a10,10,0,0,0,7.89,3.79h.08a9.62,9.62,0,0,0,7.79-3.81l8.42-14.43c.08-.15,2.13-3.75-.43-8.91a8.45,8.45,0,0,0-7.54-5H16.77c-3.21,0-5.75,1.69-7.56,5A9.58,9.58,0,0,0,8.8,23.07Z" fill="#6e8cd7"/></svg>