<svg id="图层_1" data-name="图层 1" xmlns="http://www.w3.org/2000/svg" viewBox="0 0 50 50"><title>边框</title><path d="M25.07,41.68l-.34-.33a16.38,16.38,0,0,0-3.27-2.1,39.37,39.37,0,0,1-12-9.73c-2.12-2.74-4.17-7.63-2.94-12.4.88-3.39,3.31-6,7.05-7.62.1,0,7-2.26,11.49,2.7a10.35,10.35,0,0,1,13.36-1.83,10.74,10.74,0,0,1,5.25,7.23,16.08,16.08,0,0,1-2.4,11.72c-2.93,4.13-8.53,8-12.49,9.94a20.63,20.63,0,0,0-3.38,2.08ZM17.33,9.9a12,12,0,0,0-3.42.48c-3.47,1.49-5.66,3.84-6.47,7-1.07,4.16.62,8.82,2.77,11.6a38.24,38.24,0,0,0,11.7,9.48,23.88,23.88,0,0,1,3.16,2,33.58,33.58,0,0,1,3.29-2c3.88-1.85,9.32-5.65,12.15-9.65a15.26,15.26,0,0,0,2.26-11A9.85,9.85,0,0,0,38,11.18a9.36,9.36,0,0,0-12.51,2l-.36.46-.37-.45A9.24,9.24,0,0,0,17.33,9.9Z" fill="#6e8cd7"/></svg>