<svg id="图层_1" data-name="图层 1" xmlns="http://www.w3.org/2000/svg" viewBox="0 0 50 50"><title>边框</title><path id="shape181" d="M10.61,25.18A14.49,14.49,0,1,1,25.1,39.67,14.47,14.47,0,0,1,10.61,25.18Zm.22,0A14.27,14.27,0,1,0,25.1,10.91,14.26,14.26,0,0,0,10.83,25.18ZM31.79,9l2.31,2.31,3,1.17,1.51,3.38,2.61,2.62v3.26l1.32,3-1.32,3.45v3.71L39,34.19l-1.18,3-3.37,1.51-2.63,2.61H28.54l-3,1.33L22.1,41.35H18.4l-2.31-2.3-3-1.17L11.54,34.5,8.92,31.88V28.62l-1.33-3,1.33-3.46v-3.7l2.31-2.31,1.16-3,3.38-1.51L18.4,9h3.25l3-1.32L28.09,9ZM25.1,41.46A16.28,16.28,0,1,0,8.82,25.18,16.28,16.28,0,0,0,25.1,41.46Z" fill="#6e8cd7" stroke="#6e8cd7"/></svg>