<svg id="图层_1" data-name="图层 1" xmlns="http://www.w3.org/2000/svg" viewBox="0 0 50 50"><title>边框</title><path d="M25.13,6.93A18.72,18.72,0,1,0,43.84,25.65,18.71,18.71,0,0,0,25.13,6.93Zm17,18.72.41-.25V25l.4.22.4-.22v.45l.42.25-.42.23v.47l-.4-.23-.4.23v-.47Zm.9-3.4.44.17-.37.3.08.46L42.73,23l-.36.29-.08-.45-.45-.16.37-.31-.08-.46.44.16.35-.3Zm-1-3.49.16.43.47.09-.31.36.16.44L42,20l-.3.36-.16-.44-.47-.08.3-.37L41.23,19l.46.08Zm-2.15-2.42h.47l.23-.41.23.41h.48l-.24.41.24.4h-.47l-.24.4-.22-.4h-.48l.24-.41Zm-1.38-2.5.16-.44.29.36.48-.08-.16.45.29.36-.45.08L38.9,15l-.3-.36-.47.09.16-.45L38,13.92ZM36.2,11.7l.08-.45.36.3.45-.17-.09.48.36.29-.44.16-.08.46-.36-.3-.45.16.09-.47-.35-.29ZM33.61,10V9.54l.4.22.42-.23V10l.4.24-.4.22v.47L34,10.7l-.42.24v-.48l-.4-.23ZM30.68,8.31l.44.15.37-.31.08.48.44.15-.36.3.09.46-.44-.16-.37.3-.08-.47-.44-.15.36-.31ZM27.59,7.6l.46.08.31-.37.15.45.46.09-.29.35.16.44-.46-.09-.31.37-.16-.45-.46-.08.3-.36Zm-3.17-.15h.46L25.13,7l.23.42h.47l-.24.4.24.4h-.47l-.23.42-.25-.42h-.46l.23-.4Zm-2.69.32.16-.46.31.37.45-.08L22.5,8l.29.36-.46.08-.15.45-.32-.37-.46.09.17-.44-.3-.35Zm-3.06.86.09-.48.36.31.44-.15-.08.44.35.31-.44.15-.08.47-.37-.3-.43.16.08-.46-.35-.3ZM15.82,10V9.53l.41.23.4-.22V10l.4.24-.4.23v.48l-.41-.24-.4.23v-.47l-.41-.22Zm-2.67,1.38.45.17.36-.3.08.45.44.17-.36.29.09.47-.45-.16-.36.3-.08-.46-.44-.16.36-.29Zm-2.29,2.3.48.08.29-.36.16.44.45.08-.29.36.16.45-.47-.09-.29.36-.17-.43-.45-.08.29-.36ZM9.48,16.34l.24-.41.22.41h.47l-.24.4.25.41H9.94l-.23.4-.24-.4H9l.23-.4L9,16.34ZM8.1,19.19l.16-.43.29.36L9,19l-.15.43.3.37-.47.08-.16.44L8.23,20l-.45.08.16-.44-.31-.36Zm-.86,3.06.08-.46.35.3.44-.16L8,22.39l.37.31L8,22.86l-.08.45L7.51,23l-.43.16.08-.46-.37-.3Zm0,6.79-.45-.16.37-.31-.08-.46.43.17L7.87,28l.08.46.45.17L8,28.9l.08.46-.44-.16-.35.3Zm1,3.49-.16-.44L7.63,32l.31-.38-.16-.44.45.09.3-.36.16.44.47.08-.3.37.15.44-.46-.09ZM9.94,35l-.22.4L9.48,35H9l.24-.41L9,34.13h.46l.24-.4.23.4h.48a16.8,16.8,0,0,1-2.28-8.48l-.42.23v.47l-.4-.23-.4.23v-.47l-.42-.23.42-.25V25l.4.22.4-.22v.45l.42.25a17,17,0,1,1,2.28,8.48l-.25.42.24.4Zm1.85,2.5-.16.43-.29-.36-.48.09.16-.45-.29-.36.45-.08.17-.43.29.35.47-.08L12,37l.29.36ZM14,39.58,14,40l-.36-.29-.45.17.09-.48-.36-.3.44-.15.08-.46.36.29.45-.15-.09.46.36.31Zm2.59,1.71v.47l-.4-.23-.41.23v-.48l-.41-.22.41-.24v-.46l.4.23.41-.23v.47l.4.23ZM19.56,43l-.44-.15-.36.31-.09-.48-.43-.16.35-.29-.08-.46.43.16.37-.31.08.47.44.16-.35.3Zm3.09.71-.45-.08-.31.37-.16-.45-.46-.09.3-.35-.17-.44.46.09.32-.37.15.45.46.07-.29.37Zm3.18.15h-.47l-.23.42-.25-.42h-.46l.23-.4-.23-.4h.46l.25-.41.23.41h.47l-.24.4Zm2.68-.31-.15.45-.31-.37-.46.08.16-.43-.3-.37.46-.07.16-.45.31.37.46-.09-.16.44.29.35Zm3.06-.87-.08.48-.37-.31-.44.15.09-.45-.36-.3.44-.16.08-.47.37.31.44-.16-.09.46.36.29Zm2.86-1.38v.48L34,41.53l-.4.23v-.47l-.4-.23.4-.23v-.47l.42.23.4-.23v.46l.4.24Zm2.66-1.37-.45-.17-.36.29-.08-.45-.43-.15.35-.31L36,38.66l.45.15.36-.29.08.46.44.15-.36.3Zm2.29-2.3-.48-.09-.29.36-.16-.43L38,37.37l.29-.36-.16-.45.47.08.3-.35.16.43.45.08-.29.36ZM41.24,35h-.48l-.23.4L40.3,35h-.47l.24-.4-.24-.42h.48l.22-.4.24.4h.47l-.24.41Zm.9-2.86-.16.44-.29-.36-.46.09.15-.44-.3-.37.47-.08.16-.44.3.36.45-.09-.16.44.31.38ZM43,29l-.09.46-.35-.3-.44.16.08-.46-.37-.3.45-.17.08-.46.36.31.43-.17-.08.46.37.31Z" fill="#6e8cd7"/></svg>