<svg id="图层_1" data-name="图层 1" xmlns="http://www.w3.org/2000/svg" viewBox="0 0 50 50"><title>边框</title><path d="M25,6.3A18.72,18.72,0,1,0,43.75,25,18.72,18.72,0,0,0,25,6.3Zm17,13.45a.68.68,0,1,1-.48.84A.68.68,0,0,1,42.05,19.75ZM41.89,25A16.86,16.86,0,1,1,25,8.16,16.85,16.85,0,0,1,41.89,25Zm-1.78-9.5a.69.69,0,0,1,.69,1.19.69.69,0,1,1-.69-1.19Zm-3-3.57a.68.68,0,0,1,1,1,.68.68,0,0,1-1,0A.67.67,0,0,1,37.14,12Zm-3.8-2.69a.69.69,0,0,1,1.19.69.69.69,0,0,1-1.19-.69ZM29,7.64a.69.69,0,0,1,.84-.48.68.68,0,0,1-.36,1.32A.69.69,0,0,1,29,7.64ZM25,6.53a.69.69,0,0,1,.68.68.69.69,0,1,1-1.37,0A.69.69,0,0,1,25,6.53Zm-4.79.63a.68.68,0,1,1-.48.84A.68.68,0,0,1,20.25,7.16ZM15.79,9a.69.69,0,0,1,.94.25A.69.69,0,1,1,15.79,9ZM12,12a.67.67,0,0,1,1,0,.68.68,0,0,1-1,1A.67.67,0,0,1,12,12ZM9,15.78a.69.69,0,0,1,.94-.26.7.7,0,0,1,.25.94.68.68,0,0,1-.93.25A.69.69,0,0,1,9,15.78ZM7.18,20.24A.68.68,0,0,1,8,19.75a.69.69,0,0,1,.48.84.68.68,0,0,1-1.32-.35ZM6.54,25a.69.69,0,1,1,.69.69A.7.7,0,0,1,6.54,25ZM8,30.29a.69.69,0,0,1-.84-.48.68.68,0,1,1,1.32-.36A.69.69,0,0,1,8,30.29ZM10,34.52a.69.69,0,1,1,.25-.94A.7.7,0,0,1,10,34.52Zm3,3.57a.69.69,0,1,1-1-1,.69.69,0,0,1,1,1Zm3.8,2.7a.7.7,0,0,1-.94.24.68.68,0,1,1,.94-.24Zm4.35,1.61a.68.68,0,1,1-.47-.84A.67.67,0,0,1,21.08,42.4Zm4,1.11a.69.69,0,1,1,.68-.68A.69.69,0,0,1,25,43.51Zm4.78-.64A.68.68,0,0,1,29,42.4a.69.69,0,0,1,.48-.84.67.67,0,0,1,.84.48A.66.66,0,0,1,29.82,42.87ZM34.28,41a.68.68,0,1,1-.69-1.18.68.68,0,0,1,.94.24A.69.69,0,0,1,34.28,41Zm3.83-2.94a.69.69,0,1,1-1-1,.7.7,0,0,1,1,0A.68.68,0,0,1,38.11,38.09ZM41,34.26a.68.68,0,1,1-1.18-.68.71.71,0,0,1,.94-.26A.69.69,0,0,1,41,34.26Zm1.85-4.45a.69.69,0,0,1-.84.48.68.68,0,1,1,.84-.48Zm0-4.1a.69.69,0,1,1,.68-.69A.68.68,0,0,1,42.84,25.71Z" fill="#6e8cd7"/></svg>