<svg id="图层_1" data-name="图层 1" xmlns="http://www.w3.org/2000/svg" viewBox="0 0 50 50"><title>边框</title><path d="M17.62,43.31l-3.94-1.54H8.24v-5.3L6.64,32.7l1.6-3.89v-7l-1.6-3.65,1.6-4V8.88h5.44l3.94-1.57,3.77,1.57h7.18l4-1.57,3.9,1.57H42v5.29l1.51,4L42,21.84v7l1.51,3.81L42,36.46v5.31H36.51l-3.9,1.54-4-1.54H21.46Zm3.65-2.51,7.57,0,3.76,1.43,3.82-1.47H41l0-4.61,1.4-3.56L41,28.91l0-7.35,1.4-3.39L41,14.25V9.85l-4.74,0L32.6,8.35l-3.94,1.5-7.55,0L17.62,8.36,13.77,9.85H9.21l0,4.58L7.69,18.17l1.52,3.57,0,7.35-1.48,3.6,1.52,3.68V40.8l4.74,0,3.67,1.43Z" fill="#6e8cd7"/></svg>