<svg id="图层_1" data-name="图层 1" xmlns="http://www.w3.org/2000/svg" viewBox="0 0 50 50"><title>边框</title><path d="M25.07,6.3A18.72,18.72,0,1,0,43.78,25,18.72,18.72,0,0,0,25.07,6.3Zm17.61,24c-.09.32-1.28,0-1.76,1.16s.42,1.94.33,2.17-1.31-.27-1.87.75.32,1.92.09,2.15-1.28-.48-2.15.41-.42,2.16-.54,2.26-1.25-.62-2.2,0a2.29,2.29,0,0,0-.72,2.09,1.85,1.85,0,0,0-2.17-.54,1.91,1.91,0,0,0-1.16,1.85,1.8,1.8,0,0,0-2.06-.83A1.76,1.76,0,0,0,27,43.48a2.31,2.31,0,0,0-1.89-1.35c-1.34-.06-1.46,1.31-1.82,1.25S23,42,21.8,41.81s-1.59.9-1.9.83-.08-1.17-1.24-1.71-2,.51-2.22.4.32-1.19-.75-1.93-2,.16-2.23,0,.32-1.32-.42-2.18-2.07-.15-2.26-.39.5-1.19.05-2.14a2.3,2.3,0,0,0-1.81-1,1.83,1.83,0,0,0,.23-2A1.85,1.85,0,0,0,7.5,30.36a1.78,1.78,0,0,0,.81-1.84C8.16,27.15,6.6,27,6.6,26.74s1.34-.37,1.29-1.8-1.25-1.32-1.17-1.78S8,22.89,8.31,21.52a1.91,1.91,0,0,0-.93-2,1.62,1.62,0,0,0,1.84-1.1,2,2,0,0,0-.44-2.15,1.77,1.77,0,0,0,2-.68c.65-1.1-.22-1.85,0-2.21s1.19.51,2.17-.47.31-2,.48-2.17,1.25.71,2.2,0a2.09,2.09,0,0,0,.62-2.07,2.07,2.07,0,0,0,2.15.51c1.28-.44,1.07-1.73,1.31-1.81s.81,1.16,2.12.84.94-1.64,1.39-1.64.63,1.3,1.92,1.28A2.12,2.12,0,0,0,27,6.57a1.63,1.63,0,0,0,1.25,1.61,2.39,2.39,0,0,0,2.19-.81,1.58,1.58,0,0,0,1,1.73c1.25.59,2-.76,2.3-.43s-.24,1.35.83,2,2-.37,2.32.06-.64,1.21.21,2.06,2.09.35,2.2.55-.65,1.11,0,2.15,1.87.5,2,.74-.9,1.19-.36,2.3,1.7.72,1.79.95-1.08,1.11-.77,2.3a2,2,0,0,0,1.64,1.37A2.11,2.11,0,0,0,42.19,25c0,1.35,1.28,1.3,1.23,1.72s-1.31.32-1.54,1.54S42.77,30,42.68,30.31Z" fill="#6e8cd7" stroke="#6e8cd7" stroke-width="0.5"/></svg>