<svg id="图层_1" data-name="图层 1" xmlns="http://www.w3.org/2000/svg" viewBox="0 0 50 50"><title>边框</title><path d="M44.31,24.23a18.93,18.93,0,0,0-.45-3.48.75.75,0,0,0,.36-.85.74.74,0,0,0-.72-.56,18.87,18.87,0,0,0-1.45-3.46.64.64,0,0,0,.06-.7.62.62,0,0,0-.65-.29A19.71,19.71,0,0,0,39.24,12a.82.82,0,0,0-.11-1,.83.83,0,0,0-1-.1A19.2,19.2,0,0,0,35.2,8.64.61.61,0,0,0,34.91,8a.62.62,0,0,0-.7.06A18.94,18.94,0,0,0,30.77,6.6a.75.75,0,0,0-1.41-.37,20.07,20.07,0,0,0-3.49-.45.81.81,0,0,0-1.58,0,20.07,20.07,0,0,0-3.49.45.75.75,0,0,0-1.41.36A19.81,19.81,0,0,0,15.94,8a.61.61,0,0,0-1,.59A19.35,19.35,0,0,0,12,10.86a.82.82,0,0,0-1,.1.83.83,0,0,0-.11,1A18.43,18.43,0,0,0,8.7,14.89a.63.63,0,0,0-.66.29.64.64,0,0,0,.06.7,19.59,19.59,0,0,0-1.45,3.46.77.77,0,0,0-.72.56.75.75,0,0,0,.36.84,20,20,0,0,0-.45,3.49.8.8,0,0,0,0,1.57,20,20,0,0,0,.45,3.49.77.77,0,0,0-.36.86.75.75,0,0,0,.72.55A19.59,19.59,0,0,0,8.1,34.16a.62.62,0,0,0,0,.69.6.6,0,0,0,.65.29,18.58,18.58,0,0,0,2.22,2.92.83.83,0,0,0,.09,1,.82.82,0,0,0,1,.1A19.71,19.71,0,0,0,15,41.4a.61.61,0,0,0,1,.59,18.77,18.77,0,0,0,3.45,1.45.75.75,0,0,0,1.41.36,18.32,18.32,0,0,0,3.49.45.81.81,0,0,0,1.58,0,19,19,0,0,0,3.48-.45.75.75,0,0,0,1.41-.36A18.77,18.77,0,0,0,34.21,42a.61.61,0,0,0,1-.59,19.71,19.71,0,0,0,2.92-2.22.82.82,0,0,0,1-.1.83.83,0,0,0,.09-1,19.27,19.27,0,0,0,2.23-2.92.6.6,0,0,0,.65-.29.62.62,0,0,0-.06-.7A18.77,18.77,0,0,0,43.5,30.7a.76.76,0,0,0,.72-.55.77.77,0,0,0-.36-.86,19,19,0,0,0,.45-3.49.8.8,0,0,0,0-1.57Zm-.81,5a.76.76,0,0,0-.77.56.75.75,0,0,0,.41.87A19.68,19.68,0,0,1,41.73,34a.6.6,0,0,0-.6,1A18.17,18.17,0,0,1,39,37.8a.81.81,0,0,0-1.12,1.12A19.17,19.17,0,0,1,35,41.07a.62.62,0,0,0-.73-.09.61.61,0,0,0-.28.69,18.29,18.29,0,0,1-3.34,1.41.75.75,0,0,0-1.42.36,18.83,18.83,0,0,1-3.38.44.81.81,0,0,0-1.58,0,18.94,18.94,0,0,1-3.39-.44.74.74,0,0,0-.55-.76.76.76,0,0,0-.88.4,18.49,18.49,0,0,1-3.33-1.41.61.61,0,0,0-.28-.69.62.62,0,0,0-.73.09,19.17,19.17,0,0,1-2.83-2.15.85.85,0,0,0-.11-1,.83.83,0,0,0-1-.1A18.17,18.17,0,0,1,9,35a.6.6,0,0,0-.6-1A18.86,18.86,0,0,1,7,30.62a.77.77,0,0,0,.4-.87.76.76,0,0,0-.77-.56,18.94,18.94,0,0,1-.44-3.39.8.8,0,0,0,0-1.57,18.71,18.71,0,0,1,.44-3.38.76.76,0,0,0,.77-.55.75.75,0,0,0-.4-.88,18.26,18.26,0,0,1,1.4-3.34.61.61,0,0,0,.69-.28A.62.62,0,0,0,9,15.07a19.17,19.17,0,0,1,2.15-2.83.82.82,0,0,0,1-.11.8.8,0,0,0,.1-1A18.74,18.74,0,0,1,15.14,9a.6.6,0,0,0,1-.6A18.55,18.55,0,0,1,19.48,7a.75.75,0,0,0,.87.4.76.76,0,0,0,.56-.77,18.71,18.71,0,0,1,3.38-.44.81.81,0,0,0,1.58,0,18.71,18.71,0,0,1,3.38.44A.75.75,0,0,0,30.68,7,18.55,18.55,0,0,1,34,8.36.6.6,0,0,0,35,9a18.65,18.65,0,0,1,2.84,2.16.8.8,0,0,0,.1,1,.82.82,0,0,0,1,.11,19.17,19.17,0,0,1,2.15,2.83.62.62,0,0,0-.1.73.61.61,0,0,0,.7.27,18.69,18.69,0,0,1,1.41,3.35.75.75,0,0,0,.36,1.43,18.71,18.71,0,0,1,.44,3.38.8.8,0,0,0,0,1.57A18.94,18.94,0,0,1,43.5,29.19Z" fill="#6e8cd7"/><path d="M25.08,7a18,18,0,1,0,18,18A18,18,0,0,0,25.08,7Zm0,35.18A17.19,17.19,0,1,1,42.27,25,17.21,17.21,0,0,1,25.08,42.21Z" fill="#6e8cd7"/></svg>