<svg id="图层_1" data-name="图层 1" xmlns="http://www.w3.org/2000/svg" viewBox="0 0 50 50"><title>边框</title><path d="M25.05,43c-7.34,0-9.29-2.23-10.11-3.9a4.85,4.85,0,0,1-.09-3.86,5,5,0,0,1-3.73-.11c-1-.43-3.93-1.74-3.93-10.13,0-5.8,1.29-9.14,3.93-10.21a4.92,4.92,0,0,1,3.78-.09,4.62,4.62,0,0,1,0-3.78C16.08,8.3,19.41,7,25.1,7s9,1.32,10.13,3.92a4.92,4.92,0,0,1,.11,3.76,4.92,4.92,0,0,1,3.72.12C40.52,15.41,43,17.5,43,24.88c0,5.74-1.25,9-3.93,10.26a4.91,4.91,0,0,1-3.78.08,5,5,0,0,1,0,3.86C34.51,40.88,32.15,43,25.05,43ZM16.6,34.17a4.19,4.19,0,0,0-.82,4.55c.71,1.44,2.45,3.37,9.27,3.37,6.58,0,8.71-1.82,9.34-3.35a4,4,0,0,0-.88-4.54h0l.61-.71h0a4.58,4.58,0,0,0,4.58.8c2.27-1.06,3.38-4.14,3.38-9.41,0-6.83-2.11-8.7-3.37-9.2a4.09,4.09,0,0,0-4.45.75l0,0-.67-.65h0a4.07,4.07,0,0,0,.81-4.5C33.2,8.53,28.68,8,25.1,8c-5.28,0-8.34,1.1-9.35,3.36a4.18,4.18,0,0,0,.94,4.49l-.65.67a4.34,4.34,0,0,0-4.56-.8c-2.23.9-3.36,4-3.36,9.35,0,7.78,2.53,8.9,3.36,9.27A4.08,4.08,0,0,0,16,33.5l0,0,.67.65Z" fill="#6e8cd7"/></svg>