<svg id="图层_1" data-name="图层 1" xmlns="http://www.w3.org/2000/svg" viewBox="0 0 50 50"><title>边框</title><path d="M14.75,40.52a9.56,9.56,0,0,1-5-1.49,7.7,7.7,0,0,1-4.13-6.27,7.57,7.57,0,0,1,2-5.53A4.92,4.92,0,0,1,6.2,22a6.4,6.4,0,0,1,6-4.44c-.06-1.32.31-4.58,4.86-6.77,5.33-2.56,10-.92,11.8,2a6.52,6.52,0,0,1,4.33,0,7.4,7.4,0,0,1,4,4.06c1.23.23,6.8,1.6,7.34,7.08a8,8,0,0,1-2.22,6.62,7.29,7.29,0,0,1-4,2.2c-.59,1.17-3.27,5.78-8.52,4.21-.71,1-3.31,4.2-7,3.32A5.27,5.27,0,0,1,20,38.69,8.51,8.51,0,0,1,14.75,40.52Zm-2.7-22.09a5.59,5.59,0,0,0-5,3.85,4.24,4.24,0,0,0,1.5,4.6l.47.34-.46.36a6.36,6.36,0,0,0-2,5.13,6.85,6.85,0,0,0,3.71,5.57c5.52,3.33,9.31-.37,9.47-.52l.37-.37.3.42a4.3,4.3,0,0,0,2.54,1.55c3.67.88,6.24-3.17,6.26-3.21l.18-.29.33.11c5.44,1.84,7.79-3.66,7.88-3.89l.12-.29.32,0a6,6,0,0,0,3.67-1.94,7.17,7.17,0,0,0,2-5.92c-.54-5.45-6.58-6.32-6.84-6.35l-.24,0-.1-.22a6.67,6.67,0,0,0-3.62-3.81,5.81,5.81,0,0,0-4,.15l-.37.18-.2-.36c-1.5-2.74-5.81-4.36-10.85-1.94S13,17.79,13.07,17.94l.14.64-.63-.11A3,3,0,0,0,12.05,18.43Z" fill="#6e8cd7"/></svg>