<svg id="图层_1" data-name="图层 1" xmlns="http://www.w3.org/2000/svg" viewBox="0 0 50 50"><title>边框</title><path d="M37.26,43.64H12.81V42.16a5.42,5.42,0,0,1-3.2-1.59,5.13,5.13,0,0,1-1.36-3H6.79V13.17H8.27a5.36,5.36,0,0,1,1.41-3.09A5.45,5.45,0,0,1,12.81,8.6V7.14H37.26V8.61A5.66,5.66,0,0,1,40.31,10a5.13,5.13,0,0,1,1.51,3.13h1.46V37.61H41.82a5.35,5.35,0,0,1-1.42,3.08,5.28,5.28,0,0,1-3.14,1.51Zm-23.45-1H36.26V41.23h.5a4.1,4.1,0,0,0,4.09-4.1l0-.52h1.45V14.17H40.84v-.52a4.23,4.23,0,0,0-1.22-2.88,4.64,4.64,0,0,0-2.87-1.2h-.5V8.14H13.81V9.56h-.5a4.52,4.52,0,0,0-2.91,1.21,4.5,4.5,0,0,0-1.17,2.88v.51H7.79V36.61H9.26l0,.53a4.12,4.12,0,0,0,1.11,2.75,4.7,4.7,0,0,0,3,1.32h.49Z" fill="#6e8cd7"/></svg>