<svg id="图层_1" data-name="图层 1" xmlns="http://www.w3.org/2000/svg" viewBox="0 0 50 50"><title>边框</title><path d="M39.57,40.52H10.48l-1.1-1.11v-.69h-.7l-.9-.9H6.67V36.71l-.9-.91v-.68H5.06L4,34V16.79l1.11-1.13h.71V15l.9-.91V13h1.1l.91-.9h.69v-.69l1.11-1.12H39.59l1.11,1.12v.69h.69l.91.9h1.11v1.11l.9.91v.68H45l1.13,1.13V34L45,35.12h-.7v.68l-.89.91v1.11H42.28l-.9.9h-.69v.69Zm-28.67-1H39.16l.53-.52V37.72H41l.9-.9h.53V36.3l.89-.91V34.12h1.29l.55-.55V17.21l-.54-.55H43.31V15.39l-.9-.91V14h-.52l-.91-.9H39.7V11.78l-.53-.53H10.92l-.53.53v1.28H9.11l-.9.9H7.69v.52l-.9.91v1.27H5.5L5,17.2V33.58l.51.54H6.77v1.27l.9.91v.52h.52l.9.9h1.29V39Z" fill="#6e8cd7"/></svg>