<svg id="图层_1" data-name="图层 1" xmlns="http://www.w3.org/2000/svg" viewBox="0 0 50 50"><title>边框</title><path d="M44.6,33.81a1.16,1.16,0,0,0-.34,1.56c.22.22.76.6.85,1s0,1-.5.92-.06-1,0-1a.89.89,0,0,0-.72-.09c-.3.09-.37-.22-.44-1a2.13,2.13,0,0,1,.78-1.89,3.26,3.26,0,0,1,1.69-.5V18a2.71,2.71,0,0,1-2.05-.88,2.77,2.77,0,0,1-.25-2.41c.09-.2.21-.13.45-.08a.65.65,0,0,0,.51-.12s-.46-.74-.06-1c.13-.07.53,0,.58.66s-.7.9-.94,1.37a1.26,1.26,0,0,0,.57,1.56c.87.45,1.34.07,1.34-.55,0-.43-.26-.65-.39-.29a.44.44,0,0,1-.58.25c-.37-.15-.45-.41-.38-.58s.83-.32,1.06-1.34a2.44,2.44,0,0,0-.36-1.84.52.52,0,0,0,.38-.39c.06-.17,0-.41-.06-.48a.56.56,0,0,0-.58.19c-.22.22-.16.34-.16.34a2.29,2.29,0,0,0-2.13-.36,1.76,1.76,0,0,0-1,.83c-.08.26-.2.18-.29.13-.38-.2-.47-.55-.19-.72s.19-.6-.31-.56c-.87.2-.59,1.37-.15,1.73a1.21,1.21,0,0,0,1.47.07c.38-.31.25-.59,1-.74s1,.33.77.5-.68,0-1,0a1.06,1.06,0,0,0,0,.73c.09.34-1.29.5-2.1.16-1.29-.54-1.17-2.34-1.17-2.34H10.24c0,2.27-1.4,2.52-2.11,2.55S6.88,14.26,7,14a1.05,1.05,0,0,0,0-.73s-.86.21-1,0,0-.54.8-.48.6.79,1.36.93a1.19,1.19,0,0,0,1.45-.93A.92.92,0,0,0,9,11.67c-.39,0-.66.31-.3.63s0,.59-.22.73-.24-.1-.24-.1a1.93,1.93,0,0,0-1.54-1,2.43,2.43,0,0,0-1.64.46A.41.41,0,0,0,4.91,12a.6.6,0,0,0-.58-.14c-.12.1-.07.39,0,.61a.44.44,0,0,0,.32.25,2.07,2.07,0,0,0,.42,3c.35.15.29.3.26.42-.09.39-.75.6-.94.11s-.61.13-.26.77,1.71.11,1.84-.82-.37-.89-.82-1.47,0-1.44.4-1.23-.06,1-.06,1a.76.76,0,0,0,.7.07c.5-.12.42,1.48.42,1.48C6.46,18,4.19,18,4.19,18V32.83a2.81,2.81,0,0,1,2.1.9,2.58,2.58,0,0,1,.1,2.46c-.2.16-.42-.21-.87.11.43.88.06,1,.06,1s-.4.19-.57-.52.6-1,.83-1.35a1.17,1.17,0,0,0-.25-1.55c-.6-.53-1-.41-1.3-.24a.86.86,0,0,0-.15,1c.21.19.27-.08.34-.21A.41.41,0,0,1,5,34.26a.55.55,0,0,1,.39.51c0,.22-.35.26-.49.41a2,2,0,0,0-.64,1.28A2.78,2.78,0,0,0,4.66,38c-.29,0-.53.68-.32.85s.81-.23.76-.52a2.41,2.41,0,0,0,1.4.48,2,2,0,0,0,1.74-.92c.11-.34.24-.19.32-.15s.43.33.33.53-.34.28-.31.48a.39.39,0,0,0,.44.32c.24,0,.57-.44.6-.7a1.37,1.37,0,0,0-.46-1.11,1.34,1.34,0,0,0-1-.24,1,1,0,0,0-.7.5.83.83,0,0,1-.78.44A.75.75,0,0,1,6,37.79a.23.23,0,0,1,.12-.36,2.36,2.36,0,0,1,.86,0,1,1,0,0,0,0-.67c-.08-.18.06-.34.67-.41a2.33,2.33,0,0,1,2,.58,3.24,3.24,0,0,1,.62,2H39.9a3.2,3.2,0,0,1,.27-1.43,1.67,1.67,0,0,1,.91-.9,2.53,2.53,0,0,1,1.07-.2,2.08,2.08,0,0,1,.85.13.22.22,0,0,1,.16.32.9.9,0,0,0,0,.63,4.17,4.17,0,0,1,.76-.07c.16,0,.38.18.19.41s-.59.23-1,.13-.55-.54-.72-.67a1,1,0,0,0-.89-.23,1.06,1.06,0,0,0-.86.57,1.5,1.5,0,0,0-.16.86.68.68,0,0,0,.6.57c.36,0,.49-.26.39-.43s-.41-.2-.26-.53.56-.5.57-.3.28.52.68.77a2.44,2.44,0,0,0,1.37.27A2.61,2.61,0,0,0,45,38.37c0,.35.56.68.74.53s.06-.82-.33-.86a2.59,2.59,0,0,0,.35-1.92A1.78,1.78,0,0,0,44.88,35c-.24-.14-.2-.41.08-.62a.49.49,0,0,1,.65,0c.11.11.1.4.32.33s.23-.8,0-1S45.29,33.29,44.6,33.81Zm-1.43-.2a3.38,3.38,0,0,0-.25,2.25,3.77,3.77,0,0,0-2.53.42,3.17,3.17,0,0,0-1.08,2.06H10.82a3.31,3.31,0,0,0-1.09-2.06,4,4,0,0,0-2.52-.42,3.57,3.57,0,0,0-.28-2.27,3.08,3.08,0,0,0-2.16-1.36V18.55A3.16,3.16,0,0,0,7,17.17a3.53,3.53,0,0,0,.25-2.25,4.15,4.15,0,0,0,2.52-.42,3.37,3.37,0,0,0,1.09-2.05H39.31a3.22,3.22,0,0,0,1.08,2.05,4,4,0,0,0,2.53.42,3.38,3.38,0,0,0,.25,2.25,3.13,3.13,0,0,0,2.19,1.38V32.23A3.22,3.22,0,0,0,43.17,33.61Z" fill="#6e8cd7"/><path d="M9,39.21a.49.49,0,0,1-.54-.41.43.43,0,0,1,.17-.36.61.61,0,0,0,.15-.17.12.12,0,0,0,0-.09.78.78,0,0,0-.27-.31l-.06,0-.06,0s0,0-.08.15a2.06,2.06,0,0,1-1.77,1H6.5a2.49,2.49,0,0,1-1.32-.41.73.73,0,0,1-.27.33.61.61,0,0,1-.62.11.46.46,0,0,1-.1-.51A.79.79,0,0,1,4.53,38l0-.07a2.52,2.52,0,0,1-.33-1.46,2,2,0,0,1,.62-1.29l0,0A1.25,1.25,0,0,1,5.07,35c.14-.06.22-.11.22-.17A.44.44,0,0,0,5,34.36a.33.33,0,0,0-.41.11.43.43,0,0,0,0,.07c0,.1-.1.23-.22.25a.25.25,0,0,1-.24-.09.72.72,0,0,1-.14-.55.88.88,0,0,1,.3-.62,1.13,1.13,0,0,1,1.43.24,1.26,1.26,0,0,1,.25,1.69,1.45,1.45,0,0,1-.28.27c-.29.24-.63.52-.52,1a.59.59,0,0,0,.26.44.19.19,0,0,0,.17,0s0,0,.07-.07,0-.29-.18-.77l0-.08.07,0a.66.66,0,0,1,.67-.11c.11,0,.15,0,.19,0a2.55,2.55,0,0,0-.13-2.33,2.7,2.7,0,0,0-2-.85h-.1V17.87h.1c.08,0,2.18,0,2.35-1.83,0-.44,0-1.19-.2-1.35a.1.1,0,0,0-.09,0,.86.86,0,0,1-.8-.1l-.06-.05,0-.07a1.3,1.3,0,0,0,.19-.73.17.17,0,0,0-.09-.11c-.11-.06-.21,0-.26.09a.83.83,0,0,0,0,1,2.86,2.86,0,0,0,.39.39,1,1,0,0,1,.45,1.16A1.48,1.48,0,0,1,4.92,17.4a.76.76,0,0,1-.84-.31,1,1,0,0,1,0-1A.28.28,0,0,1,4.28,16c.07,0,.17.06.24.24a.32.32,0,0,0,.33.23.5.5,0,0,0,.42-.32c0-.13.05-.2-.2-.31a1.8,1.8,0,0,1-.82-1.06,2.38,2.38,0,0,1,.28-2,.55.55,0,0,1-.26-.25c-.09-.2-.19-.58,0-.73s.5,0,.7.13a.6.6,0,0,1,.21.28,2.47,2.47,0,0,1,1.57-.38,2,2,0,0,1,1.61,1l0,0a.08.08,0,0,0,0,.05l.07,0c.07,0,.31-.2.32-.35a.28.28,0,0,0-.12-.23.45.45,0,0,1-.18-.5.57.57,0,0,1,.55-.3h0a1,1,0,0,1,.6,1.25,1.3,1.3,0,0,1-1.56,1,1.08,1.08,0,0,1-.74-.52.77.77,0,0,0-.62-.41c-.52,0-.66.09-.7.15a.19.19,0,0,0,0,.18c.05.09.46.09.87,0l.08,0,0,.07a1.1,1.1,0,0,1,0,.81H7v0a1.75,1.75,0,0,0,1.08.21c1.32-.05,2-.87,2-2.45v-.1H40v.11s-.1,1.73,1.11,2.24a2.64,2.64,0,0,0,1.94,0s0,0,0,0a1.1,1.1,0,0,1,0-.78l0-.08.08,0,.14,0c.24,0,.61.1.74,0s0-.11,0-.13-.26-.27-.7-.19a.78.78,0,0,0-.63.4,2.35,2.35,0,0,1-.28.32,1.32,1.32,0,0,1-1.6-.07,1.47,1.47,0,0,1-.43-1.31.8.8,0,0,1,.62-.6c.35,0,.52.14.57.3a.39.39,0,0,1-.19.45.2.2,0,0,0-.11.18c0,.13.12.26.29.36s.09.05.1,0,0,0,.06-.11a1.85,1.85,0,0,1,1.1-.89,2.29,2.29,0,0,1,2.07.28.77.77,0,0,1,.17-.24.63.63,0,0,1,.71-.2.53.53,0,0,1,.09.59.65.65,0,0,1-.32.41,2.51,2.51,0,0,1,.31,1.82A1.91,1.91,0,0,1,45,15.88a.76.76,0,0,0-.15.1.25.25,0,0,0,0,.19.52.52,0,0,0,.31.26.33.33,0,0,0,.45-.2c.1-.25.25-.25.3-.24s.29.27.29.57a.82.82,0,0,1-.35.74,1.13,1.13,0,0,1-1.14-.1,1.36,1.36,0,0,1-.61-1.69,1.59,1.59,0,0,1,.44-.49c.26-.23.51-.45.49-.83a.68.68,0,0,0-.25-.56.22.22,0,0,0-.19,0c-.17.1-.14.36.09.79a.16.16,0,0,1,0,.1v0l-.05.05a.85.85,0,0,1-.58.13l-.11,0c-.18,0-.19,0-.24.06A2.69,2.69,0,0,0,44,17a2.61,2.61,0,0,0,2,.85h.09v15H46a3.08,3.08,0,0,0-1.62.48,2,2,0,0,0-.75,1.8c0,.41.09.82.2.9s0,0,.11,0a1,1,0,0,1,.81.09l.22.14-.24,0a1.17,1.17,0,0,0-.18.71.13.13,0,0,0,.12.09.3.3,0,0,0,.27-.1.89.89,0,0,0,.12-.7,1.82,1.82,0,0,0-.61-.76l-.21-.19a1,1,0,0,1-.19-.76,1.26,1.26,0,0,1,.54-1h0c.56-.42,1.05-.46,1.45-.11a1,1,0,0,1,.19.83.4.4,0,0,1-.21.33c-.24.08-.32-.12-.37-.23a.44.44,0,0,0-.06-.12.48.48,0,0,0-.72.31.18.18,0,0,0,.11.15,1.91,1.91,0,0,1,1,1.2A2.78,2.78,0,0,1,45.61,38a.65.65,0,0,1,.31.4.6.6,0,0,1-.07.59.44.44,0,0,1-.5,0,.82.82,0,0,1-.39-.41,2.73,2.73,0,0,1-1.07.39,2.58,2.58,0,0,1-1.43-.28,1.45,1.45,0,0,1-.73-.85s-.27.1-.37.33,0,.2.09.28a.49.49,0,0,1,.16.16.36.36,0,0,1,0,.35.53.53,0,0,1-.48.23.78.78,0,0,1-.7-.66,1.68,1.68,0,0,1,.17-.92,1.18,1.18,0,0,1,.94-.62,1.15,1.15,0,0,1,1,.25,1.64,1.64,0,0,1,.21.23,1,1,0,0,0,.48.42c.25.07.69.14.86-.09.05-.06.07-.1.05-.14s-.11-.1-.18-.11a3.51,3.51,0,0,0-.72.07h-.08l0-.07a1,1,0,0,1,0-.72.12.12,0,0,0,0-.1s-.09-.06-.1-.07a2.09,2.09,0,0,0-.83-.13,2.51,2.51,0,0,0-1,.19,1.6,1.6,0,0,0-.86.86A3.16,3.16,0,0,0,40,38.92V39H10.14v-.1a3.18,3.18,0,0,0-.59-1.88,2.25,2.25,0,0,0-1.9-.55c-.47.06-.57.16-.6.2a.1.1,0,0,0,0,.07,1.08,1.08,0,0,1,0,.75l0,.08-.08,0a2.31,2.31,0,0,0-.79-.06s-.08,0-.09.07a.17.17,0,0,0,0,.15c0,.08.24.18.58.16a.74.74,0,0,0,.7-.39A1.06,1.06,0,0,1,8.13,37a1.46,1.46,0,0,1,1.09.26,1.43,1.43,0,0,1,.5,1.2C9.69,38.71,9.33,39.21,9,39.21Zm-.61-1.6a.38.38,0,0,1,.17.06l0,0A.85.85,0,0,1,9,38.1a.32.32,0,0,1,0,.26.9.9,0,0,1-.19.23c-.09.08-.12.12-.12.18S8.82,39,9,39s.48-.39.5-.61a1.26,1.26,0,0,0-.42-1,1.23,1.23,0,0,0-.95-.22.85.85,0,0,0-.62.45,1,1,0,0,1-.86.49.85.85,0,0,1-.77-.25.36.36,0,0,1,0-.33.33.33,0,0,1,.21-.19,2.26,2.26,0,0,1,.82,0,.8.8,0,0,0,0-.51.26.26,0,0,1,0-.25c.09-.15.33-.25.75-.3a2.45,2.45,0,0,1,2.06.61,3.16,3.16,0,0,1,.65,1.92H39.8a3.07,3.07,0,0,1,.28-1.37,1.82,1.82,0,0,1,1-1,2.72,2.72,0,0,1,1.1-.2,2,2,0,0,1,.89.15.38.38,0,0,1,.22.16.34.34,0,0,1,0,.28.78.78,0,0,0,0,.48,3.55,3.55,0,0,1,.7-.06.44.44,0,0,1,.34.24.33.33,0,0,1-.08.34c-.18.23-.55.29-1.07.15a1.14,1.14,0,0,1-.59-.48.92.92,0,0,0-.17-.2,1,1,0,0,0-.81-.21,1,1,0,0,0-.79.52,1.4,1.4,0,0,0-.15.79.57.57,0,0,0,.51.49.32.32,0,0,0,.29-.13.16.16,0,0,0,0-.15.36.36,0,0,0-.11-.1.37.37,0,0,1-.16-.52.71.71,0,0,1,.61-.44.18.18,0,0,1,.15.18,1.33,1.33,0,0,0,.63.69,2.5,2.5,0,0,0,1.31.25A2.67,2.67,0,0,0,45,38.29l.17-.12,0,.21c0,.16.15.31.3.4s.25.07.28,0a.42.42,0,0,0,0-.38c0-.06-.11-.28-.29-.3l-.2,0,.13-.15a2.48,2.48,0,0,0,.34-1.82,1.8,1.8,0,0,0-.88-1.09.38.38,0,0,1-.21-.31.56.56,0,0,1,.28-.47.58.58,0,0,1,.78,0,.59.59,0,0,1,.11.19c.06.13.07.13.11.11s.06-.06.08-.18a.79.79,0,0,0-.12-.64c-.12-.1-.49-.42-1.2.12h0a1.11,1.11,0,0,0-.47.8.88.88,0,0,0,.15.61l.19.18a2,2,0,0,1,.68.86,1.05,1.05,0,0,1-.17.88.5.5,0,0,1-.44.17.34.34,0,0,1-.31-.38,1.38,1.38,0,0,1,.2-.68.85.85,0,0,0-.55,0,.31.31,0,0,1-.27,0c-.17-.12-.23-.42-.28-1.05a2.2,2.2,0,0,1,.81-2,3.23,3.23,0,0,1,1.65-.52V18.08a2.8,2.8,0,0,1-2-.91,2.85,2.85,0,0,1-.26-2.51c.11-.24.28-.2.45-.16l.11,0a.6.6,0,0,0,.37-.06c-.12-.22-.4-.78,0-1a.42.42,0,0,1,.39,0,.82.82,0,0,1,.35.72,1.23,1.23,0,0,1-.56,1,1.32,1.32,0,0,0-.39.43A1.15,1.15,0,0,0,44.81,17a1,1,0,0,0,.93.11.64.64,0,0,0,.26-.57c0-.25-.09-.37-.12-.37h0s0,0-.08.11a.52.52,0,0,1-.71.31.68.68,0,0,1-.42-.37.45.45,0,0,1,0-.34c0-.07.1-.12.22-.19a1.72,1.72,0,0,0,.84-1.13,2.32,2.32,0,0,0-.36-1.76l-.08-.13.14,0c.19-.05.25-.16.31-.33a.4.4,0,0,0,0-.35s-.25,0-.45.17-.14.23-.14.24L45,12.5a2.19,2.19,0,0,0-2-.34,1.67,1.67,0,0,0-1,.76.34.34,0,0,1-.18.24.3.3,0,0,1-.25-.05.65.65,0,0,1-.41-.54.42.42,0,0,1,.21-.36.17.17,0,0,0,.1-.21c0-.09-.13-.17-.35-.16a.58.58,0,0,0-.45.44A1.28,1.28,0,0,0,41,13.4a1.13,1.13,0,0,0,1.35.07,1.47,1.47,0,0,0,.24-.29,1,1,0,0,1,.76-.48c.53-.1.83.1.92.3a.31.31,0,0,1-.06.38c-.2.17-.59.11-.9.06h-.06a1,1,0,0,0,0,.57.23.23,0,0,1-.08.26,2.74,2.74,0,0,1-2.15,0A2.46,2.46,0,0,1,39.79,12H10.34c-.05,1.62-.81,2.5-2.2,2.55-.48,0-1.07-.06-1.25-.29a.26.26,0,0,1,0-.21.91.91,0,0,0,0-.58c-.28.06-.87.15-1-.11a.39.39,0,0,1,0-.38c.09-.13.31-.28.88-.24a.94.94,0,0,1,.77.5.94.94,0,0,0,.61.44,1.11,1.11,0,0,0,1.33-.86.82.82,0,0,0-.46-1,.35.35,0,0,0-.34.17c0,.11.06.23.12.28a.49.49,0,0,1,.19.4c0,.22-.23.38-.41.5a.3.3,0,0,1-.28,0A.29.29,0,0,1,8.18,13a1.76,1.76,0,0,0-1.46-.91,2.34,2.34,0,0,0-1.56.44L5,12.62l0-.22a.27.27,0,0,0-.14-.28A.55.55,0,0,0,4.39,12a.61.61,0,0,0,.06.49.36.36,0,0,0,.25.19l.15,0-.08.13a2.23,2.23,0,0,0-.33,1.9,1.67,1.67,0,0,0,.7.94c.38.16.37.35.32.52a.66.66,0,0,1-.6.49.51.51,0,0,1-.53-.36.25.25,0,0,0-.07-.11h0a.17.17,0,0,0,0,0,.78.78,0,0,0,0,.75.58.58,0,0,0,.64.21,1.27,1.27,0,0,0,1-1,.86.86,0,0,0-.38-1,2.37,2.37,0,0,1-.42-.42,1,1,0,0,1,0-1.24.39.39,0,0,1,.5-.14.36.36,0,0,1,.19.24,1.25,1.25,0,0,1-.16.79.82.82,0,0,0,.55,0,.25.25,0,0,1,.26.06c.33.27.28,1.39.28,1.51a2.37,2.37,0,0,1-2.45,2V32.73a2.75,2.75,0,0,1,2.08.94,2.6,2.6,0,0,1,.08,2.6.36.36,0,0,1-.36,0,.51.51,0,0,0-.44,0,1.15,1.15,0,0,1,.14.87.27.27,0,0,1-.18.16.46.46,0,0,1-.33,0,.88.88,0,0,1-.37-.59,1.19,1.19,0,0,1,.59-1.19,2.15,2.15,0,0,0,.26-.24,1.08,1.08,0,0,0-.23-1.42c-.44-.38-.83-.45-1.19-.22a.65.65,0,0,0-.21.47.55.55,0,0,0,.08.38l.06.05a.58.58,0,0,0,.08-.14l0-.09A.53.53,0,0,1,5,34.16a.65.65,0,0,1,.46.6c0,.21-.18.3-.33.37a.94.94,0,0,0-.18.11l-.06.06a1.85,1.85,0,0,0-.56,1.17,2.38,2.38,0,0,0,.31,1.35l.09.18,0,.12-.11,0c-.11,0-.24.19-.3.39s0,.25,0,.28a.42.42,0,0,0,.4-.1.43.43,0,0,0,.2-.32l0-.21.18.11.09.05a2.39,2.39,0,0,0,1.27.41h.06a1.91,1.91,0,0,0,1.58-.85.4.4,0,0,1,.2-.27Zm30.9.83H10.73v-.09a3.2,3.2,0,0,0-1.05-2A4,4,0,0,0,7.22,36l-.15,0,0-.15a3.58,3.58,0,0,0-.27-2.21,3,3,0,0,0-2.08-1.3H4.67V18.46h.09a3.09,3.09,0,0,0,2.11-1.32,3.47,3.47,0,0,0,.24-2.19l0-.14.15,0a4.08,4.08,0,0,0,2.45-.4,3.25,3.25,0,0,0,1.05-2v-.08H39.4v.09a3.15,3.15,0,0,0,1,2,4,4,0,0,0,2.46.4l.16,0L43,15a3.26,3.26,0,0,0,.24,2.17,3.05,3.05,0,0,0,2.11,1.33h.09V32.32h-.09a3.1,3.1,0,0,0-2.11,1.33h0A3.36,3.36,0,0,0,43,35.84l0,.15-.15,0a3.76,3.76,0,0,0-2.46.4,3.09,3.09,0,0,0-1,2v.09Zm-28.4-.2H39.22a3.19,3.19,0,0,1,1.11-2,3.72,3.72,0,0,1,2.46-.46,3.56,3.56,0,0,1,.29-2.17h0a3.18,3.18,0,0,1,2.18-1.42V18.64a3.15,3.15,0,0,1-2.18-1.43A3.42,3.42,0,0,1,42.79,15a3.9,3.9,0,0,1-2.46-.46,3.25,3.25,0,0,1-1.11-2H10.91a3.38,3.38,0,0,1-1.12,2A3.91,3.91,0,0,1,7.33,15a3.56,3.56,0,0,1-.28,2.18,3.07,3.07,0,0,1-2.18,1.42V32.15A3,3,0,0,1,7,33.55a3.7,3.7,0,0,1,.31,2.2,3.87,3.87,0,0,1,2.46.45A3.27,3.27,0,0,1,10.91,38.24Z" fill="#6e8cd7"/></svg>