<svg id="图层_1" data-name="图层 1" xmlns="http://www.w3.org/2000/svg" viewBox="0 0 50 50"><title>边框</title><path d="M38.82,9.25V4.82H34.41V8.3h-.93V4.82H16.67V8.31h-.93V4.82h-4.4V9.24h3.47v.9l-3.47,0V40.62h3.48v.92H11.34V46h4.41V42.47h.92V46H33.48V42.48h.93V46h4.41V41.54H35.34v-.92h3.48V10.16H35.34V9.25ZM35.34,5.77h2.54V8.32H35.34ZM14.82,45H12.28V42.47h2.54ZM12.27,8.31V5.76h2.54V8.31ZM37.88,42.47V45H35.34V42.47Zm0-31.37V39.69l-3.48,0v1.87H32.55V45H17.62l0-3.47H15.75V39.69H12.27V11.09h3.47V9.24H17.6V5.76H32.55V9.24H34.4v1.86Z" fill="#6e8cd7"/></svg>