<svg id="图层_1" data-name="图层 1" xmlns="http://www.w3.org/2000/svg" viewBox="0 0 50 50"><title>边框</title><path d="M39.58,44.34H36.39v-.8H35.9v.8H32.67v-.8H32.2v.8H29v-.8h-.46v.8H25.32v-.8h-.49v.8h-3.2v-.8h-.48v.8H18v-.8h-.49v.8h-3.2v-.8h-.49v.8H10.56v-.8H9.8v-3.2h.76v-.45H9.8v-3.2h.76v-.46H9.8V33h.76v-.5H9.8V29.34h.76v-.5H9.8V25.63h.76v-.46H9.8V22h.76v-.5H9.8v-3.2h.76v-.48H9.8v-3.2h.76v-.46H9.8v-3.2h.76v-.51H9.8V7.21h.76V6.44h3.21v.77h.49V6.44h3.2v.77H18V6.44h3.21v.77h.48V6.44h3.2v.77h.49V6.44h3.21v.77H29V6.44H32.2v.77h.47V6.44h3.21v.77h.51V6.44h3.2v.77h.8v3.2h-.81v.51h.81v3.2h-.81v.46h.81v3.2h-.81v.48h.81v3.2h-.81V22h.81v3.21h-.81v.46h.81v3.21h-.81v.49h.81v3.2h-.81V33h.81v3.19h-.81v.46h.81v3.2h-.81v.45h.81v3.2h-.81Zm-2.29-.91h1.38v-.8h.81V41.24h-.81v-2.3h.81V37.59h-.81V35.33h.81V34h-.81V31.62h.81V30.23h-.81v-2.3h.81V26.54h-.81V24.26h.81V22.87h-.81V20.56h.81V19.17h-.81V16.88h.81V15.49h-.81V13.22h.81V11.83h-.81V9.5h.81V8.11h-.79V7.35h-1.4v.76H35V7.35H33.58v.76H31.29V7.35H29.9v.76H27.62V7.35H26.23v.76h-2.3V7.35H22.54v.76H20.25V7.35H18.86v.76H16.55V7.35H15.16v.76h-2.3V7.35H11.47v.76H10.7V9.5h.77v2.33H10.7v1.39h.77v2.27H10.7v1.39h.77v2.29H10.7v1.39h.77v2.31H10.7v1.39h.77v2.28H10.7v1.39h.77v2.31H10.7v1.38h.77v2.32H10.7v1.39h.77v2.26H10.7v1.34h.77v2.31H10.7v1.39h.77v.8h1.39v-.8h2.3v.8h1.39v-.8h2.3v.8h1.4v-.8h2.29v.8h1.39v-.8h2.3v.8h1.39v-.8H29.9v.8h1.39v-.8h2.29v.8H35v-.8h2.3Z" fill="#6e8cd7"/></svg>