<svg id="图层_1" data-name="图层 1" xmlns="http://www.w3.org/2000/svg" viewBox="0 0 50 50"><title>边框</title><path d="M38.83,45.58H36.5v-1.1H35.25v1.1H32.89v-1.1H31.63v1.1H29.31v-1.1H28.06v1.1h-2.3v-1.1H24.48v1.1H22.15v-1.1H20.89v1.1H18.55v-1.1H17.3v1.1H15v-1.1H13.71v1.1H11.38v-1.1h-1.1V42.14h1.1v-1.2h-1.1V38.65h.05l0,0c.07,0,.48,0,1,0V37.32h-1.1V35h1.1V33.76h-1.1V31.43h1.1V30.16h-1.1V27.83h1.1V26.58h-1.1V24.24h1.1V23h-1.1V20.66h1.1V19.39h-1.1V17.07h1.1V15.81h-1.1V13.48h1.1V12.26h-1.1V9.92h1.1V8.64h-1.1V6.3h1.1V5.2h2.33V6.3H15V5.2H17.3V6.3h1.28l0-1.1h2.34V6.3h1.26V5.2h2.33V6.3h1.28V5.2h2.3V6.3h1.25V5.2h2.32V6.3h1.26V5.2h2.34V6.3H36.5V5.2h2.34V6.3h1.1V8.64H38.83V9.92h1.11v2.34H38.83v1.22h1.11v2.33H38.83v1.26h1.11v2.32H38.83v1.27h1.11V23H38.83v1.23h1.11v2.34H38.83v1.24h1.11v2.34H38.83v1.27h1.11v2.33H38.83V35h1.11v2.32H38.83V38.6h1.11v2.34H38.83v1.2h1.11v2.34H38.83Zm-.69-1.79L38.16,7H12.06V43.79Z" fill="#6e8cd7"/></svg>