<svg id="图层_1" data-name="图层 1" xmlns="http://www.w3.org/2000/svg" viewBox="0 0 50 50"><title>边框</title><path d="M10.17,6.53v38h29.9v-38ZM37.57,8A1.06,1.06,0,1,1,36.51,9,1.07,1.07,0,0,1,37.57,8ZM12.69,8A1.06,1.06,0,1,1,11.61,9,1.07,1.07,0,0,1,12.69,8Zm0,34.95a1.07,1.07,0,1,1,1.06-1.06A1.08,1.08,0,0,1,12.69,42.9Zm24.88,0a1.07,1.07,0,1,1,1.08-1.06A1.08,1.08,0,0,1,37.57,42.9Zm1.71-4.54A5.52,5.52,0,0,0,35.59,40a5.27,5.27,0,0,0-1.7,3.75H16.34A5.2,5.2,0,0,0,14.64,40,5.52,5.52,0,0,0,11,38.36V12.69A5.43,5.43,0,0,0,14.64,11a5.15,5.15,0,0,0,1.7-3.74H33.89A5.16,5.16,0,0,0,35.59,11a5.63,5.63,0,0,0,3.69,1.65Z" fill="#6e8cd7"/></svg>