<svg xmlns="http://www.w3.org/2000/svg" width="1073" xmlns:xlink="http://www.w3.org/1999/xlink" height="777" xmlns:ev="http://www.w3.org/2001/xml-events" viewBox="0 0 1073 777"><defs/><g transform="translate(5.5,5.5)" id="page1"><rect width="1063" fill="#ffffff" y="0" height="767" x="0"/><g transform="translate(392.00,39.00)" id="group1"><path stroke-width="1" fill="#ffffff" stroke="#000000" fill-rule="nonzero" transform="translate(0.30,12.84)" d="M-0.2,6.9L-0.2,109.3L83.2,116.7L145.2,102.9L166.7,109.3L166.7,6.9L145.2,.0L83.2,13.7L-0.2,6.9z" id="shape2"/><path stroke-width="1" fill="#bfbfbf" stroke="#000000" fill-rule="nonzero" transform="translate(0.03,0.09)" d="M.0,19.6L83.5,26.5L145.5,12.7L167.0,20.6L180.0,6.5L166.0,.0L103.1,12.7L13.4,5.9L.0,19.6z" id="shape3"/><path stroke-width="1" fill="#bfbfbf" stroke="#000000" fill-rule="nonzero" transform="translate(166.94,6.62)" d="M.1,14.1L.1,115.5L12.9,102.6L13.1,.0L.1,14.1z" id="shape4"/><text xml:space="preserve" style="fill:#191919;font-family:Arial;font-size:12.00pt"><tspan y="71.3" x="21.0">create a reservation</tspan></text></g><g transform="translate(807.16,63.90)" id="group5"><g transform="translate(-0.23,1.50)" id="shape6"><path fill="#ffffff" fill-rule="nonzero" d="M.0,.0L199.8,.0L199.8,75.8L.0,75.8L.0,.0z"/><path fill="none" stroke="#000000" d="M.0,.0L199.8,.0L199.8,75.8L.0,75.8L.0,.0zM124.0,.0L124.0,75.8"/><text xml:space="preserve" style="fill:#191919;font-family:Arial;font-size:12.00pt"><tspan y="44.4" x="20.7">reservation</tspan></text></g><g transform="matrix(0.59,0.81,-0.81,0.59,159.9,39.9)" id="shape7"><path fill="none" stroke="#000000" d="M.0,.0C26.5,14.1,57.9,15.0,85.0,2.7"/><path stroke-width="1" fill="#000000" stroke="#000000" stroke-linecap="round" d="M-1.8,-0.9C-1.2,-1.9,-0.0,-2.3,.9,-1.8C1.9,-1.2,2.3,-0.0,1.8,.9C1.2,1.9,.0,2.3,-0.9,1.8C-1.9,1.2,-2.3,.0,-1.8,-0.9"/><path stroke-width="1" fill="#000000" stroke="#000000" stroke-linecap="round" d="M83.7,-0.0L90.4,.0L86.3,5.3L83.7,-0.0"/></g></g><g transform="translate(566.60,103.80)" id="shape8"><path fill="none" stroke="#191919" d="M.0,.0L234.0,.0"/><path stroke-width="1" fill="#191919" stroke="#191919" stroke-linecap="round" d="M234.0,-3.0L240.0,.0L234.0,3.0L234.0,-3.0"/><rect width="134.0" fill="#ffffff" y="-25.5" height="19.0" x="39.9"/><text xml:space="preserve" style="fill:#191919;font-family:Arial;font-size:12.00pt"><tspan y="-9.5" x="39.9">opened reservation</tspan></text></g><g transform="translate(99.00,245.86)" id="group9"><g transform="translate(-0.23,1.50)" id="shape10"><path fill="#ffffff" fill-rule="nonzero" d="M.0,.0L199.8,.0L199.8,75.8L.0,75.8L.0,.0z"/><path fill="none" stroke="#000000" d="M.0,.0L199.8,.0L199.8,75.8L.0,75.8L.0,.0zM124.0,.0L124.0,75.8"/><text xml:space="preserve" style="fill:#191919;font-family:Arial;font-size:12.00pt"><tspan y="44.4" x="20.7">reservation</tspan></text></g><g transform="matrix(0.72,-0.70,0.70,0.72,159.9,39.9)" id="shape11"><path fill="none" stroke="#000000" d="M.0,.0C52.3,-27.9,114.8,-28.8,167.8,-2.7"/><path stroke-width="1" fill="#000000" stroke="#000000" stroke-linecap="round" d="M-1.8,.9C-2.3,-0.0,-1.9,-1.2,-0.9,-1.8C.0,-2.3,1.2,-1.9,1.8,-0.9C2.3,.0,1.9,1.2,.9,1.8C-0.0,2.3,-1.2,1.9,-1.8,.9"/><path stroke-width="1" fill="#000000" stroke="#000000" stroke-linecap="round" d="M169.2,-5.4L173.1,.0L166.4,-0.1L169.2,-5.4"/></g></g><g transform="translate(198.69,323.16)" id="shape12"><path fill="none" stroke="#191919" d="M.0,.0L.0,242.0"/><path stroke-width="1" fill="#191919" stroke="#191919" stroke-linecap="round" d="M3.0,242.0L.0,248.0L-3.0,242.0L3.0,242.0"/></g><g transform="translate(99.00,572.00)" id="shape13"><path stroke-width="2" fill="none" stroke="#000000" d="M199.8,.0L.0,.0M.0,66.0L199.8,66.0"/><text xml:space="preserve" style="fill:#191919;font-family:Arial;font-size:12.00pt"><tspan y="39.5" x="61.4">reservation</tspan></text></g><g transform="translate(458.00,685.00)" id="group14"><path fill="#ffffff" stroke="#000000" fill-rule="nonzero" transform="translate(-0.41,-0.19)" d="M.0,.0L153.0,.0L153.0,43.3L.0,43.3L.0,.0z" id="shape15"/><path fill="#bfbfbf" stroke="#000000" fill-rule="nonzero" d="M152.0,43.0L164.7,29.1L164.7,-13.9L152.0,.0L152.0,43.0z" id="shape16"/><path fill="#bfbfbf" stroke="#000000" fill-rule="nonzero" d="M.0,.0L152.0,.0L164.7,-13.9L12.7,-13.9L.0,.0z" id="shape17"/></g><g transform="translate(198.92,638.00)" id="shape18"><path fill="none" stroke="#191919" d="M.0,.0L.0,68.0L254.0,68.0"/><path stroke-width="1" fill="#191919" stroke="#191919" stroke-linecap="round" d="M254.0,65.0L260.0,68.0L254.0,71.0L254.0,65.0"/><rect width="127.0" fill="#ffffff" y="42.5" height="19.0" x="77.6"/><text xml:space="preserve" style="fill:#191919;font-family:Arial;font-size:12.00pt"><tspan y="58.5" x="77.6">closed reservation</tspan></text></g><g transform="translate(497.00,224.20)" id="group19"><path stroke-width="1" fill="#ffffff" stroke="#000000" fill-rule="nonzero" transform="translate(0.28,12.20)" d="M-0.2,6.5L-0.2,103.9L79.1,110.8L138.0,97.8L158.4,103.9L158.4,6.5L138.0,.0L79.1,13.0L-0.2,6.5z" id="shape20"/><path stroke-width="1" fill="#bfbfbf" stroke="#000000" fill-rule="nonzero" transform="translate(0.03,0.09)" d="M.0,18.6L79.3,25.1L138.2,12.1L158.6,19.6L171.0,6.2L157.7,.0L97.9,12.1L12.7,5.6L.0,18.6z" id="shape21"/><path stroke-width="1" fill="#bfbfbf" stroke="#000000" fill-rule="nonzero" transform="translate(158.60,6.29)" d="M.0,13.4L.0,109.8L12.3,97.4L12.4,.0L.0,13.4z" id="shape22"/><text xml:space="preserve" style="fill:#191919;font-family:Arial;font-size:12.00pt"><tspan y="68.1" x="13.0">confirm a reservation</tspan></text></g><g transform="translate(694.50,358.44)" id="group23"><path stroke-width="1" fill="#ffffff" stroke="#000000" fill-rule="nonzero" transform="translate(0.28,12.20)" d="M-0.2,6.5L-0.2,103.9L79.1,110.8L138.0,97.8L158.4,103.9L158.4,6.5L138.0,.0L79.1,13.0L-0.2,6.5z" id="shape24"/><path stroke-width="1" fill="#bfbfbf" stroke="#000000" fill-rule="nonzero" transform="translate(0.03,0.09)" d="M.0,18.6L79.3,25.1L138.2,12.1L158.6,19.6L171.0,6.2L157.7,.0L97.9,12.1L12.7,5.6L.0,18.6z" id="shape25"/><path stroke-width="1" fill="#bfbfbf" stroke="#000000" fill-rule="nonzero" transform="translate(158.60,6.29)" d="M.0,13.4L.0,109.8L12.3,97.4L12.4,.0L.0,13.4z" id="shape26"/><text xml:space="preserve" style="fill:#191919;font-family:Arial;font-size:12.00pt"><tspan y="68.1" x="16.0">cancel a reservation</tspan></text></g><g transform="translate(582.50,347.32)" id="shape27"><path fill="none" stroke="#191919" d="M.0,.0L.0,71.0L106.0,71.0"/><path stroke-width="1" fill="#191919" stroke="#191919" stroke-linecap="round" d="M106.0,68.0L112.0,71.0L106.0,74.0L106.0,68.0"/><rect width="150.0" fill="#ffffff" y="38.8" height="19.0" x="-74.0"/><text xml:space="preserve" style="fill:#191919;font-family:Arial;font-size:12.00pt"><tspan y="54.8" x="-74.0">confirmed reservation</tspan></text></g><g transform="translate(906.85,141.20)" id="shape28"><path fill="none" stroke="#191919" d="M.0,.0L.0,277.0L-40.0,277.0"/><path stroke-width="1" fill="#191919" stroke="#191919" stroke-linecap="round" d="M-40.0,280.0L-46.0,277.0L-40.0,274.0L-40.0,280.0"/></g><g transform="translate(907.16,139.90)" id="shape29"><path fill="none" stroke="#191919" d="M.0,.0L.0,146.0L-239.0,146.0"/><path stroke-width="1" fill="#191919" stroke="#191919" stroke-linecap="round" d="M-239.0,149.0L-245.0,146.0L-239.0,143.0L-239.0,149.0"/></g><g transform="translate(907.16,139.90)" id="shape30"><path fill="none" stroke="#191919" d="M.0,.0L.0,394.0L-324.0,394.0"/><path stroke-width="1" fill="#191919" stroke="#191919" stroke-linecap="round" d="M-324.0,397.0L-330.0,394.0L-324.0,391.0L-324.0,397.0"/><rect width="134.0" fill="#ffffff" y="368.5" height="19.0" x="-185.6"/><text xml:space="preserve" style="fill:#191919;font-family:Arial;font-size:12.00pt"><tspan y="384.5" x="-185.6">opened reservation</tspan></text><rect width="69.0" fill="#ffffff" y="34.8" height="19.0" x="14.5"/><rect width="81.0" fill="#ffffff" y="53.8" height="19.0" x="8.5"/><text xml:space="preserve" style="fill:#191919;font-family:Arial;font-size:12.00pt"><tspan y="50.8" x="14.5">confirmed</tspan><tspan y="69.8" x="8.5"> reservation</tspan></text><rect width="57.0" fill="#ffffff" y="82.8" height="19.0" x="-73.5"/><rect width="77.0" fill="#ffffff" y="101.8" height="19.0" x="-83.5"/><text xml:space="preserve" style="fill:#191919;font-family:Arial;font-size:12.00pt"><tspan y="98.8" x="-73.5">opened </tspan><tspan y="117.8" x="-83.5">reservation</tspan></text></g><g transform="translate(411.67,472.44)" id="group31"><path stroke-width="1" fill="#ffffff" stroke="#000000" fill-rule="nonzero" transform="translate(0.28,12.20)" d="M-0.2,6.5L-0.2,103.9L79.1,110.8L138.0,97.8L158.4,103.9L158.4,6.5L138.0,.0L79.1,13.0L-0.2,6.5z" id="shape32"/><path stroke-width="1" fill="#bfbfbf" stroke="#000000" fill-rule="nonzero" transform="translate(0.03,0.09)" d="M.0,18.6L79.3,25.1L138.2,12.1L158.6,19.6L171.0,6.2L157.7,.0L97.9,12.1L12.7,5.6L.0,18.6z" id="shape33"/><path stroke-width="1" fill="#bfbfbf" stroke="#000000" fill-rule="nonzero" transform="translate(158.60,6.29)" d="M.0,13.4L.0,109.8L12.3,97.4L12.4,.0L.0,13.4z" id="shape34"/><text xml:space="preserve" style="fill:#191919;font-family:Arial;font-size:12.00pt"><tspan y="68.1" x="24.0">fulfill a reservation</tspan></text></g><g transform="translate(199.00,321.86)" id="shape35"><path fill="none" stroke="#191919" d="M.0,.0L.0,212.0L206.0,212.0"/><path stroke-width="1" fill="#191919" stroke="#191919" stroke-linecap="round" d="M206.0,209.0L212.0,212.0L206.0,215.0L206.0,209.0"/><rect width="123.0" fill="#ffffff" y="218.5" height="19.0" x="45.8"/><text xml:space="preserve" style="fill:#191919;font-family:Arial;font-size:12.00pt"><tspan y="234.5" x="45.8">fulfill a reservation</tspan></text><rect width="150.0" fill="#ffffff" y="186.5" height="19.0" x="34.2"/><text xml:space="preserve" style="fill:#191919;font-family:Arial;font-size:12.00pt"><tspan y="202.5" x="34.2">confirmed reservation</tspan></text></g><g transform="translate(497.00,285.76)" id="shape36"><path fill="none" stroke="#191919" d="M.0,.0L-192.0,.0"/><path stroke-width="1" fill="#191919" stroke="#191919" stroke-linecap="round" d="M-192.0,3.0L-198.0,.0L-192.0,-3.0L-192.0,3.0"/><rect width="150.0" fill="#ffffff" y="-25.5" height="19.0" x="-161.5"/><text xml:space="preserve" style="fill:#191919;font-family:Arial;font-size:12.00pt"><tspan y="-9.5" x="-161.5">confirmed reservation</tspan></text></g><g transform="matrix(0.00,1.00,-1.00,0.00,138.0,70.2)" id="shape37"><path fill="none" stroke="#191919" d="M85.8,57.0L85.8,.0L.0,.0M.0,.0L28.8,.0L.0,.0zM33.6,-254.0L33.6,.0L.0,.0M-28.3,57.0L-28.3,.0L.0,.0M46.1,.0L46.1,.0L.0,.0M9.8,.0L9.8,.0L.0,.0"/><text transform="matrix(0.00,-1.00,1.00,0.00,-28.2,85.8)" xml:space="preserve" style="fill:#191919;font-family:Arial;font-size:12.00pt"><tspan y="44.5" x="-4.7">restaurant</tspan><tspan y="63.5" x="-4.2">front desk</tspan><tspan y="82.5" x="-2.2">attendant</tspan></text></g><g transform="translate(194.00,71.00)" id="shape38"><text xml:space="preserve" style="fill:#191919;font-family:Arial;font-size:12.00pt"><tspan y="20.5" x="46.0">customer</tspan></text></g><g transform="translate(194.00,111.70)" id="shape39"><text xml:space="preserve" style="fill:#191919;font-family:Arial;font-size:12.00pt"><tspan y="20.5" x="39.5">information</tspan></text></g></g></svg>